STARTFONT 2.1
COMMENT
COMMENT Converted from OpenType font "Patriot-Medium.otf" by "otf2bdf 3.0".
COMMENT
FONT -FreeType-Patriot Medium-Medium-R-Normal--89-640-100-100-P-431-ISO10646-1
SIZE 64 100 100
FONTBOUNDINGBOX 149 118 -35 -24
STARTPROPERTIES 19
FOUNDRY "FreeType"
FAMILY_NAME "Patriot Medium"
WEIGHT_NAME "Medium"
SLANT "R"
SETWIDTH_NAME "Normal"
ADD_STYLE_NAME ""
PIXEL_SIZE 89
POINT_SIZE 640
RESOLUTION_X 100
RESOLUTION_Y 100
SPACING "P"
AVERAGE_WIDTH 431
CHARSET_REGISTRY "ISO10646"
CHARSET_ENCODING "1"
FONT_ASCENT 89
FONT_DESCENT 17
COPYRIGHT "Copyright © 2020 by Behalf Studio. All rights reserved."
_OTF_FONTFILE "Patriot-Medium.otf"
_OTF_PSNAME "Patriot-Medium"
ENDPROPERTIES
CHARS 426
STARTCHAR 0020
ENCODING 32
SWIDTH 371 0
DWIDTH 33 0
BBX 0 0 0 0
BITMAP
ENDCHAR
STARTCHAR 0021
ENCODING 33
SWIDTH 270 0
DWIDTH 24 0
BBX 14 63 5 -1
BITMAP
3FF0
3FF0
3FF0
3FF0
3FF0
3FF0
3FF0
3FF0
3FF0
3FF0
3FF0
3FF0
3FF0
3FF0
3FF0
3FF0
3FF0
3FF0
3FF0
3FF0
3FF0
3FF0
3FF0
3FF0
3FF0
3FF0
3FF0
3FF0
3FF0
3FF0
3FF0
3FF0
3FF0
3FF0
3FF0
3FF0
3FF0
3FF0
3FF0
3FF0
0000
0000
0000
0000
0000
0000
0000
0000
0000
0FC0
1FF0
3FF8
7FF8
FFFC
FFFC
FFFC
FFFC
FFFC
FFFC
7FF8
7FF8
3FF0
0FC0
ENDCHAR
STARTCHAR 0022
ENCODING 34
SWIDTH 326 0
DWIDTH 29 0
BBX 20 19 5 43
BITMAP
FE07F0
FE07F0
FE07F0
FE07F0
FE07F0
FE07F0
FE07F0
FE07F0
FE07F0
FE07F0
FE07F0
FE07F0
FE07F0
FE07F0
FE07F0
FE07F0
FE07F0
FE07F0
FE07F0
ENDCHAR
STARTCHAR 0023
ENCODING 35
SWIDTH 641 0
DWIDTH 57 0
BBX 47 62 5 0
BITMAP
0003FE003FE0
0003FC003FC0
0007FC007FC0
0007FC007FC0
0007FC007FC0
0007FC007FC0
0007FC007FC0
0007FC007FC0
0007FC007FC0
000FF800FF80
000FF800FF80
000FF800FF80
000FF800FF80
000FF800FF80
000FF800FF80
000FF800FF80
001FF001FF00
001FF001FF00
3FFFFFFFFFFE
3FFFFFFFFFFE
3FFFFFFFFFFE
3FFFFFFFFFFE
3FFFFFFFFFFE
3FFFFFFFFFFE
3FFFFFFFFFFE
003FE003FE00
003FE003FE00
003FE003FE00
003FE003FE00
003FE003FE00
007FC007FC00
007FC007FC00
007FC007FC00
007FC007FC00
007FC007FC00
007FC007FC00
007FC007FC00
FFFFFFFFFFF8
FFFFFFFFFFF8
FFFFFFFFFFF8
FFFFFFFFFFF8
FFFFFFFFFFF8
FFFFFFFFFFF8
FFFFFFFFFFF8
FFFFFFFFFFF8
01FF001FF000
01FF001FF000
01FF001FF000
01FF001FF000
01FF001FF000
01FF001FF000
01FE001FE000
03FE003FE000
03FE003FE000
03FE003FE000
03FE003FE000
03FE003FE000
03FE003FE000
03FC003FC000
07FC007FC000
07FC007FC000
07FC007FC000
ENDCHAR
STARTCHAR 0024
ENCODING 36
SWIDTH 551 0
DWIDTH 49 0
BBX 40 80 5 -9
BITMAP
0000FF0000
0000FF0000
0000FF0000
0000FF0000
0000FF0000
0000FF0000
0000FF0000
0000FF0000
0007FFE000
003FFFF800
007FFFFE00
01FFFFFF00
03FFFFFF80
07FFFFFFC0
07FFFFFFE0
0FFFFFFFF0
0FFFFFFFF0
1FFFFFFFF8
1FFF81FFF8
1FFE007FFC
1FFC003FFC
3FFC001FFC
3FFC001FFE
3FF8000FF0
3FFC000F80
3FFC000C00
1FFC000000
1FFE000000
1FFF000000
1FFF800000
0FFFC00000
0FFFE00000
07FFF80000
03FFFE0000
01FFFF0000
00FFFFC000
007FFFF000
003FFFF800
001FFFFC00
0007FFFF00
0003FFFF80
0000FFFFC0
00007FFFE0
00001FFFF0
00000FFFF8
000003FFF8
000001FFFC
0000007FFC
0000003FFE
0000001FFE
0000001FFE
0000000FFF
0000000FFF
01E00007FF
0FE00007FF
7FE0000FFF
FFF0000FFF
FFF0000FFF
7FF8001FFE
7FFC001FFE
7FFE007FFE
3FFFC1FFFC
3FFFFFFFFC
1FFFFFFFF8
0FFFFFFFF8
07FFFFFFF0
03FFFFFFE0
01FFFFFFC0
00FFFFFF80
007FFFFF00
001FFFFC00
0003FFE000
0000FF0000
0000FF0000
0000FF0000
0000FF0000
0000FF0000
0000FF0000
0000FF0000
0000FF0000
ENDCHAR
STARTCHAR 0025
ENCODING 37
SWIDTH 911 0
DWIDTH 81 0
BBX 72 65 5 -1
BITMAP
000FF0000000000000
007FFE00000003F800
01FFFF80000007FC00
03FFFFC000000FF800
07FFFFE000001FF000
0FFFFFF000001FE000
1FFFFFF800003FE000
3FFFFFF800007FC000
3FFC3FFC00007F8000
7FF00FFE0000FF8000
7FE007FE0001FF0000
FFC003FE0001FE0000
FF8003FE0003FE0000
FF8001FF0007FC0000
FF8001FF000FF80000
FF8001FF000FF00000
FF8001FF001FF00000
FF8001FF003FE00000
FF8003FE003FC00000
FFC003FE007FC00000
7FE007FE00FF800000
7FF00FFE00FF000000
3FFC3FFC01FF000000
3FFFFFF803FE000000
1FFFFFF807FC000000
0FFFFFF007F8000000
07FFFFE00FF8000000
03FFFFC01FF0000000
01FFFF001FE0000000
007FFC003FE0000000
0003C0007FC0000000
000000007F80000000
00000000FF80000000
00000001FF00000000
00000003FE00000000
00000003FC001FFC00
00000007FC00FFFF00
0000000FF801FFFFC0
0000000FF007FFFFE0
0000001FF00FFFFFF0
0000003FE01FFFFFF8
0000007FC01FFFFFF8
0000007FC03FFFFFFC
000000FF803FF80FFE
000001FF007FE007FE
000001FE007FC003FE
000003FE007FC003FF
000007FC00FF8001FF
000007F800FF8001FF
00000FF800FF8001FF
00001FF000FF8001FF
00003FE000FF8001FF
00003FE000FF8001FF
00007FC0007FC003FF
0000FF80007FC003FE
0000FF00007FE007FE
0001FF00003FF81FFE
0003FE00003FFFFFFC
0003FC00001FFFFFF8
0007FC00001FFFFFF8
000FF800000FFFFFF0
001FF0000007FFFFE0
001FF0000001FFFF80
003FE00000007FFF00
0000000000001FF800
ENDCHAR
STARTCHAR 0026
ENCODING 38
SWIDTH 675 0
DWIDTH 60 0
BBX 50 64 5 -1
BITMAP
0001FFE0000000
000FFFFC000000
003FFFFF000000
007FFFFFC00000
00FFFFFFE00000
01FFFFFFF00000
03FFFFFFFC0000
07FFFFFFFC0000
0FFFFFFFFE0000
0FFFFFFFFF0000
1FFFC07FFE0000
1FFF001FFC0000
1FFE000FF80000
3FFC0007F00000
3FFC0003E00000
3FF80001C00000
3FF80000800000
3FF80000000000
3FF80000000000
3FF80000000000
3FF80000000000
3FFC0000000000
1FFC0000000000
1FFE0000000000
1FFF0000000000
0FFFE000000000
0FFFFFFFFFFFC0
07FFFFFFFFFFC0
03FFFFFFFFFFC0
01FFFFFFFFFFC0
01FFFFFFFFFFC0
03FFFFFFFFFFC0
07FFFFFFFFFFC0
0FFFFFFFFFFFC0
1FFFFFFFFFFFC0
1FFFFFFFFFFFC0
3FFF80003FF800
3FFE00003FF800
7FFC00003FF800
7FF800003FF800
FFF000003FF800
FFF000007FF800
FFF000007FF800
FFE000007FF800
FFE000007FF000
FFE00000FFF000
FFF00000FFF000
FFF00000FFF000
FFF00001FFE000
FFF80003FFE000
7FFC0003FFE000
7FFE0007FFC000
7FFF001FFFC000
3FFFE0FFFF8000
3FFFFFFFFF0000
1FFFFFFFFF0000
0FFFFFFFFE0000
07FFFFFFFC0000
03FFFFFFF80000
01FFFFFFF00000
00FFFFFFE00000
003FFFFF800000
000FFFFE000000
0001FFF0000000
ENDCHAR
STARTCHAR 0027
ENCODING 39
SWIDTH 180 0
DWIDTH 16 0
BBX 7 19 5 43
BITMAP
FE
FE
FE
FE
FE
FE
FE
FE
FE
FE
FE
FE
FE
FE
FE
FE
FE
FE
FE
ENDCHAR
STARTCHAR 0028
ENCODING 40
SWIDTH 348 0
DWIDTH 31 0
BBX 21 83 5 -12
BITMAP
000300
0007C0
0007E0
000FF0
001FF8
001FF0
003FE0
003FE0
007FC0
00FFC0
00FF80
01FF00
01FF00
03FE00
03FE00
07FC00
07FC00
07F800
0FF800
0FF000
1FF000
1FF000
1FE000
3FE000
3FC000
3FC000
3FC000
7FC000
7F8000
7F8000
7F8000
7F8000
7F8000
FF0000
FF0000
FF0000
FF0000
FF0000
FF0000
FF0000
FF0000
FF0000
FF0000
FF0000
FF0000
FF0000
FF0000
FF0000
FF0000
FF0000
FF8000
7F8000
7F8000
7F8000
7F8000
7F8000
3FC000
3FC000
3FC000
3FE000
1FE000
1FE000
1FF000
0FF000
0FF800
0FF800
07F800
07FC00
03FC00
03FE00
01FF00
01FF00
00FF80
00FF80
007FC0
007FE0
003FE0
003FF0
001FF8
000FF0
000FE0
0007C0
000380
ENDCHAR
STARTCHAR 0029
ENCODING 41
SWIDTH 348 0
DWIDTH 31 0
BBX 21 83 5 -12
BITMAP
060000
1F0000
3F0000
7F8000
FFC000
7FC000
3FE000
3FE000
1FF000
1FF800
0FF800
07FC00
07FC00
03FE00
03FE00
01FF00
01FF00
00FF00
00FF80
007F80
007FC0
003FC0
003FC0
003FE0
001FE0
001FE0
001FE0
000FF0
000FF0
000FF0
000FF0
000FF0
0007F0
0007F8
0007F8
0007F8
0007F8
0007F8
0007F8
0007F8
0007F8
0007F8
0007F8
0007F8
0007F8
0007F8
0007F8
0007F8
0007F8
0007F8
0007F8
000FF0
000FF0
000FF0
000FF0
000FF0
001FE0
001FE0
001FE0
003FE0
003FC0
003FC0
007FC0
007F80
007F80
00FF80
00FF00
01FF00
01FE00
03FE00
03FC00
07FC00
0FF800
0FF800
1FF000
3FF000
3FE000
7FE000
FFC000
7F8000
3F8000
1F0000
060000
ENDCHAR
STARTCHAR 002A
ENCODING 42
SWIDTH 450 0
DWIDTH 40 0
BBX 31 30 5 33
BITMAP
00010000
0007C000
000FE000
001FE000
001FF000
001FF000
001FF000
001FE000
001FE000
7E0FE1F8
7F8FE7FC
FFE7CFFE
FFF7DFFE
FFFFFFFE
FFFFFFFC
7FFFFFFC
3FFFFFF8
07CFE7C0
001FF000
007FFC00
00FEFE00
01FEFF00
03FEFF80
07FCFFC0
07FC7FC0
0FFC7FC0
0FF87FC0
0FF83FC0
07F01FC0
03E00F80
ENDCHAR
STARTCHAR 002B
ENCODING 43
SWIDTH 562 0
DWIDTH 50 0
BBX 41 40 5 9
BITMAP
0000FF800000
0000FF800000
0000FF800000
0000FF800000
0000FF800000
0000FF800000
0000FF800000
0000FF800000
0000FF800000
0000FF800000
0000FF800000
0000FF800000
0000FF800000
0000FF800000
0000FF800000
0000FF800000
FFFFFFFFFF80
FFFFFFFFFF80
FFFFFFFFFF80
FFFFFFFFFF80
FFFFFFFFFF80
FFFFFFFFFF80
FFFFFFFFFF80
FFFFFFFFFF80
0000FF800000
0000FF800000
0000FF800000
0000FF800000
0000FF800000
0000FF800000
0000FF800000
0000FF800000
0000FF800000
0000FF800000
0000FF800000
0000FF800000
0000FF800000
0000FF800000
0000FF800000
0000FF800000
ENDCHAR
STARTCHAR 002C
ENCODING 44
SWIDTH 270 0
DWIDTH 24 0
BBX 15 17 5 -10
BITMAP
07FE
07FC
07FC
0FF8
0FF8
0FF0
0FF0
1FE0
1FE0
1FC0
3FC0
3F80
3F80
7F00
7F00
7E00
FE00
ENDCHAR
STARTCHAR 002D
ENCODING 45
SWIDTH 438 0
DWIDTH 39 0
BBX 30 7 5 17
BITMAP
FFFFFFFC
FFFFFFFC
FFFFFFFC
FFFFFFFC
FFFFFFFC
FFFFFFFC
FFFFFFFC
ENDCHAR
STARTCHAR 002E
ENCODING 46
SWIDTH 270 0
DWIDTH 24 0
BBX 14 14 5 -1
BITMAP
0FC0
1FF0
3FF8
7FF8
FFFC
FFFC
FFFC
FFFC
FFFC
FFFC
7FF8
7FF8
3FF0
0FC0
ENDCHAR
STARTCHAR 002F
ENCODING 47
SWIDTH 416 0
DWIDTH 37 0
BBX 27 65 5 -1
BITMAP
00003FE0
00003FE0
00003FE0
00003FE0
00007FC0
00007FC0
00007FC0
0000FF80
0000FF80
0000FF80
0000FF00
0001FF00
0001FF00
0001FF00
0003FE00
0003FE00
0003FE00
0003FE00
0007FC00
0007FC00
0007FC00
000FF800
000FF800
000FF800
000FF000
001FF000
001FF000
001FF000
003FE000
003FE000
003FE000
003FC000
007FC000
007FC000
007FC000
00FF8000
00FF8000
00FF8000
00FF0000
01FF0000
01FF0000
01FF0000
03FE0000
03FE0000
03FE0000
03FC0000
07FC0000
07FC0000
07FC0000
0FF80000
0FF80000
0FF80000
0FF00000
1FF00000
1FF00000
1FF00000
3FE00000
3FE00000
3FE00000
3FC00000
7FC00000
7FC00000
7FC00000
FF800000
FF800000
ENDCHAR
STARTCHAR 0030
ENCODING 48
SWIDTH 720 0
DWIDTH 64 0
BBX 59 65 3 -1
BITMAP
0000000400000000
000007FFF8000000
00003FFFFF000000
0000FFFFFFC00000
0003FFFFFFF00000
0007FFFFFFFC0000
001FFFFFFFFE0000
003FFFFFFFFF8000
007FFFFFFFFFC000
00FFFFFFFFFFE000
01FFFFF3FFFFE000
03FFFE001FFFF000
03FFF80003FFF800
07FFE00001FFFC00
0FFFC000007FFC00
0FFF8000003FFE00
1FFF0000001FFE00
1FFE0000000FFF00
3FFC0000000FFF00
3FFC00000007FF00
3FF800000003FF80
7FF800000003FF80
7FF000000003FF80
7FF000000001FFC0
7FF000000001FFC0
7FE000000001FFC0
FFE000000000FFC0
FFE000000000FFC0
FFE000000000FFC0
FFE000000000FFC0
FFE000000000FFE0
FFE000000000FFE0
FFE000000000FFE0
FFE000000000FFE0
FFE000000000FFE0
FFE000000000FFE0
FFE000000000FFC0
FFE000000000FFC0
FFE000000000FFC0
7FE000000001FFC0
7FE000000001FFC0
7FF000000001FFC0
7FF000000001FFC0
7FF000000003FF80
3FF800000003FF80
3FF800000007FF80
3FFC00000007FF00
1FFE0000000FFF00
1FFE0000001FFF00
0FFF0000001FFE00
0FFF8000003FFE00
07FFC00000FFFC00
07FFF00001FFF800
03FFFC0007FFF800
01FFFF003FFFF000
00FFFFFFFFFFE000
00FFFFFFFFFFC000
003FFFFFFFFF8000
001FFFFFFFFF0000
000FFFFFFFFE0000
0007FFFFFFF80000
0001FFFFFFF00000
00007FFFFFC00000
00001FFFFE000000
000001FFF0000000
ENDCHAR
STARTCHAR 0031
ENCODING 49
SWIDTH 326 0
DWIDTH 29 0
BBX 20 62 4 0
BITMAP
003FF0
003FF0
003FF0
003FF0
003FF0
FFFFF0
FFFFF0
FFFFF0
FFFFF0
FFFFF0
FFFFF0
FFFFF0
FFFFF0
FFFFF0
FFFFF0
003FF0
003FF0
003FF0
003FF0
003FF0
003FF0
003FF0
003FF0
003FF0
003FF0
003FF0
003FF0
003FF0
003FF0
003FF0
003FF0
003FF0
003FF0
003FF0
003FF0
003FF0
003FF0
003FF0
003FF0
003FF0
003FF0
003FF0
003FF0
003FF0
003FF0
003FF0
003FF0
003FF0
003FF0
003FF0
003FF0
003FF0
003FF0
003FF0
003FF0
003FF0
003FF0
003FF0
003FF0
003FF0
003FF0
003FF0
ENDCHAR
STARTCHAR 0032
ENCODING 50
SWIDTH 562 0
DWIDTH 50 0
BBX 43 64 3 0
BITMAP
00000A000000
0001FFF80000
000FFFFF0000
003FFFFFC000
007FFFFFE000
00FFFFFFF800
01FFFFFFFC00
03FFFFFFFC00
07FFFFFFFE00
0FFFFFFFFF00
0FFFF9FFFF00
1FFFC01FFF80
1FFF000FFF80
3FFE0007FFC0
3FFC0003FFC0
7FF80001FFC0
7FF80001FFC0
7FF00000FFC0
7FF00000FFC0
7FF00000FFE0
FFF00000FFC0
07E00000FFC0
00000000FFC0
00000001FFC0
00000001FFC0
00000001FFC0
00000003FF80
00000003FF80
00000007FF80
00000007FF00
0000000FFF00
0000001FFE00
0000003FFE00
0000003FFC00
0000007FF800
000000FFF800
000001FFF000
000003FFE000
000007FFC000
00000FFF8000
00001FFF0000
00003FFF0000
00007FFE0000
0000FFFC0000
0001FFF80000
0001FFF00000
0003FFE00000
0007FFC00000
000FFF800000
001FFF000000
003FFE000000
007FFC000000
00FFF8000000
01FFF0000000
03FFFFFFFFE0
07FFFFFFFFE0
0FFFFFFFFFE0
1FFFFFFFFFE0
3FFFFFFFFFE0
7FFFFFFFFFE0
FFFFFFFFFFE0
FFFFFFFFFFE0
FFFFFFFFFFE0
FFFFFFFFFFE0
ENDCHAR
STARTCHAR 0033
ENCODING 51
SWIDTH 528 0
DWIDTH 47 0
BBX 42 63 3 -1
BITMAP
3FFFFFFFFE00
3FFFFFFFFE00
3FFFFFFFFE00
3FFFFFFFFE00
3FFFFFFFFC00
3FFFFFFFF800
3FFFFFFFF000
3FFFFFFFE000
3FFFFFFFE000
000003FFC000
000007FF8000
00000FFF0000
00001FFE0000
00003FFC0000
00007FF80000
0000FFF00000
0001FFE00000
0003FFC00000
0007FF800000
000FFF000000
001FFFF00000
003FFFFC0000
007FFFFF0000
00FFFFFF8000
01FFFFFFC000
03FFFFFFE000
07FFFFFFF000
07FFFFFFF800
03FFFFFFFC00
01FF83FFFC00
00FC007FFE00
0070001FFF00
0020000FFF00
00000007FF00
00000007FF80
00000003FF80
00000003FF80
00000001FFC0
00000001FFC0
00000001FFC0
00000001FFC0
00000001FFC0
00000001FFC0
00000001FFC0
00000001FF80
00000003FF80
00000003FF80
00800007FF80
01C00007FF00
07C0000FFF00
0FE0001FFF00
3FF8003FFE00
7FFE01FFFE00
FFFFFFFFFC00
7FFFFFFFF800
3FFFFFFFF800
1FFFFFFFF000
0FFFFFFFE000
07FFFFFFC000
01FFFFFF0000
00FFFFFE0000
003FFFF80000
0007FFC00000
ENDCHAR
STARTCHAR 0034
ENCODING 52
SWIDTH 551 0
DWIDTH 49 0
BBX 46 62 1 0
BITMAP
0000000FFF00
000001FFFF00
000007FFFF00
00001FFFFF00
00007FFFFF00
0001FFFFFF00
0003FFFFFF00
000FFFFFFF00
001FFFFFFF00
003FFFFFFF00
007FFFF3FF00
007FFF83FF00
00FFFE03FF00
01FFF803FF00
03FFF003FF00
03FFE003FF00
07FFC003FF00
07FF8003FF00
0FFF0003FF00
0FFF0003FF00
1FFE0003FF00
1FFC0003FF00
1FFC0003FF00
3FFC0003FF00
3FF80003FF00
3FF80003FF00
3FF80003FF00
7FF00003FF00
7FF00003FF00
7FF00003FF00
7FF00003FF00
7FF00003FF00
7FF00003FF00
7FE00003FF00
FFE00003FF00
FFFFFFFFFFFC
FFFFFFFFFFFC
FFFFFFFFFFFC
FFFFFFFFFFFC
FFFFFFFFFFFC
FFFFFFFFFFFC
FFFFFFFFFFFC
FFFFFFFFFFFC
FFFFFFFFFFFC
FFFFFFFFFFFC
00000003FF00
00000003FF00
00000003FF00
00000003FF00
00000003FF00
00000003FF00
00000003FF00
00000003FF00
00000003FF00
00000003FF00
00000003FF00
00000003FF00
00000003FF00
00000003FF00
00000003FF00
00000003FF00
00000003FF00
ENDCHAR
STARTCHAR 0035
ENCODING 53
SWIDTH 551 0
DWIDTH 49 0
BBX 42 63 4 -1
BITMAP
0FFFFFFFFE00
0FFFFFFFFE00
0FFFFFFFFE00
1FFFFFFFFE00
1FFFFFFFFE00
1FFFFFFFFE00
1FFFFFFFFE00
1FFFFFFFFE00
1FFFFFFFFE00
1FF800000000
1FF800000000
1FF800000000
1FF000000000
1FF000000000
3FF000000000
3FF000000000
3FF000000000
3FF000000000
3FF000000000
3FF07FC00000
3FF3FFF80000
3FFFFFFE0000
3FFFFFFF8000
3FFFFFFFC000
7FFFFFFFE000
7FFFFFFFF000
7FFFFFFFF800
7FFFFFFFFC00
7FFFFFFFFE00
7FFF81FFFE00
7FFC003FFF00
1FF0001FFF00
07E0000FFF80
01C00007FF80
00000003FF80
00000003FFC0
00000001FFC0
00000001FFC0
00000001FFC0
00000001FFC0
00000001FFC0
00000001FFC0
00000001FFC0
00000001FFC0
00000001FFC0
00000001FFC0
00000003FF80
00800003FF80
03C00007FF80
07C0000FFF00
0FF0001FFF00
1FF8003FFE00
7FFE00FFFE00
FFFFFFFFFC00
7FFFFFFFFC00
3FFFFFFFF800
1FFFFFFFF000
0FFFFFFFE000
07FFFFFFC000
03FFFFFF0000
00FFFFFE0000
003FFFF80000
0007FFC00000
ENDCHAR
STARTCHAR 0036
ENCODING 54
SWIDTH 618 0
DWIDTH 55 0
BBX 48 63 4 -1
BITMAP
000003FFE000
000007FFC000
000007FF8000
00000FFF8000
00001FFF0000
00003FFE0000
00003FFC0000
00007FFC0000
0000FFF80000
0000FFF00000
0001FFE00000
0003FFE00000
0003FFC00000
0007FF800000
000FFF800000
001FFF000000
001FFE000000
003FFCFE0000
007FFFFFE000
007FFFFFF800
00FFFFFFFC00
01FFFFFFFF00
03FFFFFFFF80
03FFFFFFFFC0
07FFFFFFFFE0
07FFFFFFFFF0
0FFFF80FFFF0
1FFFC003FFF8
1FFF0000FFFC
3FFE00007FFC
3FFC00003FFE
7FF800001FFE
7FF800000FFE
7FF000000FFF
7FF0000007FF
FFE0000007FF
FFE0000007FF
FFE0000003FF
FFE0000003FF
FFE0000003FF
FFE0000003FF
FFE0000003FF
FFE0000007FF
FFE0000007FF
FFE0000007FF
7FF0000007FF
7FF000000FFE
7FF800001FFE
3FFC00001FFE
3FFE00003FFC
3FFF00007FFC
1FFF8001FFF8
0FFFF007FFF8
0FFFFFFFFFF0
07FFFFFFFFE0
03FFFFFFFFC0
01FFFFFFFF80
00FFFFFFFF00
007FFFFFFE00
001FFFFFFC00
000FFFFFF000
0003FFFFC000
00003FFE0000
ENDCHAR
STARTCHAR 0037
ENCODING 55
SWIDTH 472 0
DWIDTH 42 0
BBX 40 62 3 0
BITMAP
FFFFFFFFFF
FFFFFFFFFF
FFFFFFFFFF
FFFFFFFFFF
FFFFFFFFFF
FFFFFFFFFE
FFFFFFFFFE
FFFFFFFFFE
FFFFFFFFFC
FFFFFFFFFC
0000003FF8
0000003FF8
0000003FF8
0000007FF0
0000007FF0
000000FFE0
000000FFE0
000000FFE0
000001FFC0
000001FFC0
000003FF80
000003FF80
000003FF80
000007FF00
1FFFFFFFF8
1FFFFFFFF8
1FFFFFFFF8
1FFFFFFFF8
1FFFFFFFF8
1FFFFFFFF8
1FFFFFFFF8
1FFFFFFFF8
1FFFFFFFF8
1FFFFFFFF8
00007FF000
00007FE000
0000FFE000
0000FFE000
0001FFC000
0001FFC000
0001FF8000
0003FF8000
0003FF8000
0007FF0000
0007FF0000
0007FF0000
000FFE0000
000FFE0000
001FFC0000
001FFC0000
001FFC0000
003FF80000
003FF80000
007FF00000
007FF00000
007FF00000
00FFE00000
00FFE00000
01FFC00000
01FFC00000
01FFC00000
03FF800000
ENDCHAR
STARTCHAR 0038
ENCODING 56
SWIDTH 562 0
DWIDTH 50 0
BBX 45 65 3 -1
BITMAP
000002000000
0000FFF80000
0003FFFE0000
000FFFFF8000
001FFFFFC000
003FFFFFE000
007FFFFFF000
00FFFFFFF000
00FFFFFFF800
01FFFFFFFC00
01FFE03FFC00
03FFC01FFC00
03FF800FFE00
03FF000FFE00
03FF0007FE00
03FF0007FE00
03FF0007FE00
03FF0007FE00
03FF0007FE00
03FF800FFE00
03FF801FFE00
01FFE03FFC00
01FFF8FFFC00
01FFFFFFF800
00FFFFFFF800
007FFFFFF000
007FFFFFF000
00FFFFFFF800
03FFFFFFFC00
07FFFFFFFE00
0FFFFFFFFF00
0FFFF8FFFF80
1FFF801FFFC0
3FFE0007FFC0
3FFC0001FFE0
7FF80000FFE0
7FF00000FFF0
FFF000007FF0
FFE000007FF0
FFE000003FF8
FFC000003FF8
FFC000003FF8
FFC000003FF8
FFC000003FF8
FFC000003FF8
FFC000003FF8
FFE000003FF8
FFE000003FF8
FFE000007FF0
FFF000007FF0
7FF00000FFF0
7FF80001FFE0
3FFC0003FFE0
3FFF0007FFE0
1FFFC01FFFC0
1FFFFFFFFF80
0FFFFFFFFF80
07FFFFFFFF00
03FFFFFFFE00
01FFFFFFFC00
00FFFFFFF800
007FFFFFE000
001FFFFFC000
0007FFFF0000
0000FFF80000
ENDCHAR
STARTCHAR 0039
ENCODING 57
SWIDTH 596 0
DWIDTH 53 0
BBX 48 64 3 0
BITMAP
000000800000
00007FFF0000
0003FFFFC000
000FFFFFF000
003FFFFFFC00
007FFFFFFF00
00FFFFFFFF80
01FFFFFFFFC0
03FFFFFFFFE0
07FFFFFFFFF0
0FFFFE7FFFF0
0FFFE003FFF8
1FFF8000FFFC
1FFF00007FFC
3FFC00003FFE
3FFC00001FFE
7FF800000FFE
7FF000000FFF
7FF0000007FF
7FE0000007FF
FFE0000007FF
FFE0000003FF
FFE0000003FF
FFE0000003FF
FFE0000003FF
FFE0000003FF
FFE0000003FF
FFE0000007FF
FFE0000007FF
7FF0000007FF
7FF000000FFF
7FF800000FFE
3FF800001FFE
3FFC00003FFC
3FFE00007FFC
1FFF8000FFF8
0FFFE003FFF8
0FFFFC3FFFF0
07FFFFFFFFF0
03FFFFFFFFE0
01FFFFFFFFC0
00FFFFFFFFC0
007FFFFFFF80
003FFFFFFF00
000FFFFFFF00
0003FFFFFE00
00001F3FFC00
0000007FFC00
000000FFF800
000000FFF000
000001FFE000
000003FFE000
000003FFC000
000007FF8000
00000FFF8000
00001FFF0000
00001FFE0000
00003FFE0000
00007FFC0000
00007FF80000
0000FFF00000
0001FFF00000
0003FFE00000
0003FFC00000
ENDCHAR
STARTCHAR 003A
ENCODING 58
SWIDTH 270 0
DWIDTH 24 0
BBX 14 45 5 -1
BITMAP
0FC0
1FF0
3FF8
7FF8
FFFC
FFFC
FFFC
FFFC
FFFC
FFFC
7FF8
3FF8
1FF0
0FC0
0000
0000
0000
0000
0000
0000
0000
0000
0000
0000
0000
0000
0000
0000
0000
0000
0000
0FC0
1FF0
3FF8
7FF8
FFFC
FFFC
FFFC
FFFC
FFFC
FFFC
7FF8
7FF8
3FF0
0FC0
ENDCHAR
STARTCHAR 003B
ENCODING 59
SWIDTH 292 0
DWIDTH 26 0
BBX 17 54 5 -10
BITMAP
03F000
07FC00
0FFE00
1FFF00
1FFF00
3FFF00
3FFF80
3FFF80
3FFF00
1FFF00
1FFF00
0FFE00
07FC00
03F000
000000
000000
000000
000000
000000
000000
000000
000000
000000
000000
000000
000000
000000
000000
000000
000000
000000
000000
000000
000000
000000
000000
000000
07FE00
07FC00
07FC00
0FF800
0FF800
0FF000
0FF000
1FE000
1FE000
1FC000
3FC000
3F8000
3F8000
7F0000
7F0000
7E0000
FE0000
ENDCHAR
STARTCHAR 003C
ENCODING 60
SWIDTH 562 0
DWIDTH 50 0
BBX 41 38 5 8
BITMAP
000000000180
000000000F80
000000007F80
00000001FF80
0000000FFF80
0000007FFF80
000003FFFF80
00000FFFFF80
00007FFFFE00
0003FFFFF000
000FFFFFC000
007FFFFE0000
03FFFFF00000
1FFFFF800000
7FFFFC000000
FFFFE0000000
FFFF00000000
FFF800000000
FFC000000000
FFE000000000
FFFC00000000
FFFF00000000
FFFFE0000000
FFFFFC000000
1FFFFF800000
07FFFFF00000
00FFFFFC0000
001FFFFF8000
0003FFFFF000
0000FFFFFE00
00001FFFFF80
000003FFFF80
000000FFFF80
0000001FFF80
00000003FF80
000000007F80
000000001F80
000000000380
ENDCHAR
STARTCHAR 003D
ENCODING 61
SWIDTH 562 0
DWIDTH 50 0
BBX 41 27 5 16
BITMAP
FFFFFFFFFF80
FFFFFFFFFF80
FFFFFFFFFF80
FFFFFFFFFF80
FFFFFFFFFF80
FFFFFFFFFF80
FFFFFFFFFF80
FFFFFFFFFF80
FFFFFFFFFF80
000000000000
000000000000
000000000000
000000000000
000000000000
000000000000
000000000000
000000000000
000000000000
000000000000
FFFFFFFFFF80
FFFFFFFFFF80
FFFFFFFFFF80
FFFFFFFFFF80
FFFFFFFFFF80
FFFFFFFFFF80
FFFFFFFFFF80
FFFFFFFFFF80
ENDCHAR
STARTCHAR 003E
ENCODING 62
SWIDTH 562 0
DWIDTH 50 0
BBX 41 38 5 8
BITMAP
C00000000000
F80000000000
FF0000000000
FFC000000000
FFF800000000
FFFF00000000
FFFFE0000000
FFFFF8000000
3FFFFF000000
0FFFFFE00000
01FFFFF80000
003FFFFF0000
0007FFFFE000
0000FFFFF800
00003FFFFF00
000007FFFF80
000000FFFF80
0000001FFF80
00000003FF80
00000001FF80
0000000FFF80
0000007FFF80
000003FFFF80
00001FFFFF80
00007FFFFC00
0003FFFFF000
001FFFFF8000
00FFFFFC0000
07FFFFE00000
3FFFFF800000
FFFFFC000000
FFFFE0000000
FFFF80000000
FFFC00000000
FFE000000000
FF0000000000
FC0000000000
E00000000000
ENDCHAR
STARTCHAR 003F
ENCODING 63
SWIDTH 438 0
DWIDTH 39 0
BBX 30 64 5 -1
BITMAP
003FF800
01FFFE00
03FFFF80
07FFFFC0
0FFFFFE0
1FFFFFF0
3FFFFFF0
7FFFFFF8
7FFFFFF8
FFF07FF8
FFC01FFC
FFC01FFC
3F800FFC
07800FFC
01000FFC
00001FFC
00001FF8
00001FF8
00003FF8
00007FF0
00007FF0
0000FFE0
0001FFC0
0001FFC0
0003FF80
0007FF00
0007FE00
000FFE00
001FFC00
001FF800
003FF800
003FF000
003FF000
007FE000
007FE000
007FE000
007FC000
007FC000
00FFC000
00FFC000
00FFC000
00FFC000
00FFC000
00000000
00000000
00000000
00000000
00000000
00000000
00000000
001F8000
003FC000
007FF000
00FFF000
01FFF800
01FFF800
01FFF800
01FFF800
01FFF800
01FFF800
00FFF000
00FFF000
007FE000
001F8000
ENDCHAR
STARTCHAR 0040
ENCODING 64
SWIDTH 810 0
DWIDTH 72 0
BBX 63 65 5 -1
BITMAP
0000000FFE000000
000000FFFFF00000
000007FFFFFC0000
00003FFFFFFF8000
0000FFFFFFFFC000
0001FFFFFFFFF000
0007FFFF1FFFF800
000FFFC0003FFC00
001FFE00000FFE00
003FF0000003FF00
007FE0000000FF80
00FF800000007FC0
01FF000000003FE0
03FE000000001FE0
07FC000000000FF0
07F80000000007F0
0FF00000000007F8
0FE0001FE00003F8
1FE0007FF9FC03F8
1FC000FFFDFC01FC
3FC003FFFFFC01FC
3F8007FFFFFC01FC
7F8007FFFFF801FC
7F000FFFFFF801FC
7F001FFFBFF800FE
7F001FFC0FF800FE
FF001FF807F800FE
FE003FF007F800FE
FE003FE007F801FE
FE003FE007F801FC
FE003FE007F801FC
FE007FE007F001FC
FE007FE007F001FC
FE007FE007F003FC
FE007FE007F003F8
FE007FE00FF003F8
FE007FE00FF007F8
FE003FF01FF00FF0
FF003FF83FF80FF0
7F003FFFFFF83FE0
7F001FFFFFFFFFC0
7F001FFFFFFFFF80
7F800FFFFFFFFF80
3F8007FFF9FFFF00
3F8003FFF0FFFC00
3FC001FFC07FF800
1FC0007F001FC000
1FE0000000000000
0FF0000000000000
0FF8000000000000
07F8000000000000
03FC000000000800
03FE000000001C00
01FF800000003E00
00FFC00000007F00
007FF0000001FF80
003FF8000007FF00
001FFF00001FFE00
000FFFF001FFFC00
0003FFFFFFFFF800
0001FFFFFFFFE000
00007FFFFFFF8000
00001FFFFFFE0000
000003FFFFF80000
0000007FFF800000
ENDCHAR
STARTCHAR 0041
ENCODING 65
SWIDTH 562 0
DWIDTH 50 0
BBX 45 64 4 0
BITMAP
000038000000
0007FFE00000
001FFFF80000
007FFFFE0000
00FFFFFF0000
01FFFFFF8000
03FFFFFFC000
07FFFFFFE000
0FFFFFFFF000
1FFFFFFFF000
1FFFFFFFF800
3FFF01FFF800
3FFE007FFC00
3FFC003FFC00
7FF8001FFE00
7FF8001FFE00
7FF0000FFE00
7FF0000FFE00
7FF0000FFE00
7FF0000FFE00
FFF0000FFE00
FFF0000FFE00
FFF0000FFE00
FFF0000FFE00
FFF0000FFE00
FFF0000FFE00
FFF0000FFE00
FFF0000FFE00
FFF0000FFE00
FFF0000FFE00
FFF0000FFE00
FFF0000FFE00
FFF0000FFE00
FFF0000FFE00
FFF0000FFE00
FFF0000FFE00
FFF0000FFE00
FFF0000FFE00
FFF0000FFE00
FFF0000FFE00
FFF0000FFE00
FFF0000FFE00
FFF0000FFE00
FFF0000FFE00
FFF0000FFE00
FFF0000FFE00
FFF0000FFE00
FFF0000FFE00
FFF0000FFE00
FFF0000FFE00
FFF0000FFE00
FFF0000FFE00
FFF0000FFE00
FFF0000FFE00
FFFFFFFFFFF8
FFFFFFFFFFF8
FFFFFFFFFFF8
FFFFFFFFFFF8
FFFFFFFFFFF8
FFFFFFFFFFF8
FFFFFFFFFFF8
FFFFFFFFFFF8
FFFFFFFFFFF8
FFFFFFFFFFF8
ENDCHAR
STARTCHAR 0042
ENCODING 66
SWIDTH 618 0
DWIDTH 55 0
BBX 50 62 3 0
BITMAP
03FFFFFFE00000
03FFFFFFFC0000
03FFFFFFFF0000
03FFFFFFFFC000
03FFFFFFFFE000
03FFFFFFFFF000
03FFFFFFFFF800
03FFFFFFFFFC00
03FFFFFFFFFC00
03FFFFFFFFFE00
03FF8000FFFE00
03FF80003FFF00
03FF80000FFF00
03FF80000FFF00
03FF800007FF00
03FF800007FF80
03FF800007FF80
03FF800007FF80
03FF800007FF80
03FF800007FF00
03FF800007FF00
03FF80000FFF00
03FF80000FFF00
03FF80001FFF00
03FF80007FFE00
FFFFFFFFFFFE00
FFFFFFFFFFFC00
FFFFFFFFFFF800
FFFFFFFFFFF800
FFFFFFFFFFF000
FFFFFFFFFFF800
FFFFFFFFFFFC00
FFFFFFFFFFFC00
FFFFFFFFFFFE00
FFFFFFFFFFFF00
03FF8003FFFF00
03FF80001FFF80
03FF80000FFF80
03FF800007FFC0
03FF800003FFC0
03FF800003FFC0
03FF800001FFC0
03FF800001FFC0
03FF800001FFC0
03FF800001FFC0
03FF800001FFC0
03FF800001FFC0
03FF800003FFC0
03FF800007FFC0
03FF80000FFF80
03FF80001FFF80
03FF8003FFFF80
03FFFFFFFFFF00
03FFFFFFFFFF00
03FFFFFFFFFE00
03FFFFFFFFFC00
03FFFFFFFFF800
03FFFFFFFFF000
03FFFFFFFFE000
03FFFFFFFF8000
03FFFFFFFE0000
03FFFFFFE00000
ENDCHAR
STARTCHAR 0043
ENCODING 67
SWIDTH 686 0
DWIDTH 61 0
BBX 56 65 3 -1
BITMAP
00000000E00000
000000FFFFC000
000007FFFFF800
00001FFFFFFE00
00007FFFFFFF80
0001FFFFFFFFE0
0007FFFFFFFFF0
000FFFFFFFFFFC
001FFFFFFFFFFE
003FFFFFFFFFFF
007FFFFFFFFFFF
00FFFFF001FFFF
01FFFF80007FFE
03FFFC00001FFC
03FFF8000007F8
07FFE0000003F0
0FFFC0000001E0
0FFF80000000C0
1FFF0000000000
1FFF0000000000
3FFE0000000000
3FFC0000000000
3FFC0000000000
7FF80000000000
7FF80000000000
7FF00000000000
7FF00000000000
FFF00000000000
FFF00000000000
FFE00000000000
FFE00000000000
FFE00000000000
FFE00000000000
FFE00000000000
FFE00000000000
FFE00000000000
FFE00000000000
FFF00000000000
7FF00000000000
7FF00000000000
7FF00000000000
7FF80000000000
7FF80000000000
3FFC0000000000
3FFC0000000000
1FFE0000000000
1FFF0000000000
1FFF0000000000
0FFF80000000C0
07FFE0000001E0
07FFF0000003F0
03FFF8000007F8
01FFFE00001FFC
01FFFF80007FFE
00FFFFF807FFFF
007FFFFFFFFFFF
003FFFFFFFFFFE
001FFFFFFFFFFC
000FFFFFFFFFF8
0003FFFFFFFFF0
0001FFFFFFFFC0
00007FFFFFFF80
00001FFFFFFE00
000003FFFFF000
0000007FFF8000
ENDCHAR
STARTCHAR 0044
ENCODING 68
SWIDTH 663 0
DWIDTH 59 0
BBX 52 62 5 0
BITMAP
FFFFFFE0000000
FFFFFFFE000000
FFFFFFFFC00000
FFFFFFFFF00000
FFFFFFFFFC0000
FFFFFFFFFE0000
FFFFFFFFFF8000
FFFFFFFFFFC000
FFFFFFFFFFE000
FFFFFFFFFFF000
FFE001FFFFF800
FFE0001FFFFC00
FFE00003FFFC00
FFE00000FFFE00
FFE000007FFF00
FFE000003FFF00
FFE000000FFF80
FFE000000FFF80
FFE0000007FFC0
FFE0000003FFC0
FFE0000003FFC0
FFE0000001FFC0
FFE0000001FFE0
FFE0000000FFE0
FFE0000000FFE0
FFE0000000FFE0
FFE0000000FFE0
FFE0000000FFF0
FFE0000000FFF0
FFE00000007FF0
FFE00000007FF0
FFE00000007FF0
FFE00000007FF0
FFE0000000FFF0
FFE0000000FFF0
FFE0000000FFE0
FFE0000000FFE0
FFE0000000FFE0
FFE0000001FFE0
FFE0000001FFE0
FFE0000001FFC0
FFE0000003FFC0
FFE0000003FFC0
FFE0000007FF80
FFE000000FFF80
FFE000001FFF80
FFE000003FFF00
FFE000007FFF00
FFE00001FFFE00
FFE00007FFFC00
FFE0003FFFFC00
FFE01FFFFFF800
FFFFFFFFFFF000
FFFFFFFFFFE000
FFFFFFFFFFC000
FFFFFFFFFF0000
FFFFFFFFFE0000
FFFFFFFFF80000
FFFFFFFFE00000
FFFFFFFF800000
FFFFFFFC000000
FFFFFF80000000
ENDCHAR
STARTCHAR 0045
ENCODING 69
SWIDTH 506 0
DWIDTH 45 0
BBX 43 62 2 0
BITMAP
03FFFFFF0000
03FFFFFF0000
03FFFFFF0000
03FFFFFF0000
03FFFFFF0000
03FFFFFF0000
03FFFFFF0000
03FFFFFF0000
03FFFFFF0000
03FFFFFF0000
03FF80000000
03FF80000000
03FF80000000
03FF80000000
03FF80000000
03FF80000000
03FF80000000
03FF80000000
03FF80000000
03FF80000000
03FF80000000
03FF80000000
03FF80000000
03FF80000000
03FF80000000
03FF80000000
FFFFFFFFF000
FFFFFFFFF000
FFFFFFFFF000
FFFFFFFFF000
FFFFFFFFF000
FFFFFFFFF000
FFFFFFFFF000
FFFFFFFFF000
FFFFFFFFF000
FFFFFFFFF000
03FF80000000
03FF80000000
03FF80000000
03FF80000000
03FF80000000
03FF80000000
03FF80000000
03FF80000000
03FF80000000
03FF80000000
03FF80000000
03FF80000000
03FF80000000
03FF80000000
03FF80000000
03FF80000000
03FFFFFFFFE0
03FFFFFFFFE0
03FFFFFFFFE0
03FFFFFFFFE0
03FFFFFFFFE0
03FFFFFFFFE0
03FFFFFFFFE0
03FFFFFFFFE0
03FFFFFFFFE0
03FFFFFFFFE0
ENDCHAR
STARTCHAR 0046
ENCODING 70
SWIDTH 472 0
DWIDTH 42 0
BBX 40 62 2 0
BITMAP
01FFFFFFFF
01FFFFFFFF
01FFFFFFFF
01FFFFFFFF
01FFFFFFFF
01FFFFFFFF
01FFFFFFFF
01FFFFFFFF
01FFFFFFFF
01FFFFFFFF
01FFC00000
01FFC00000
01FFC00000
01FFC00000
01FFC00000
01FFC00000
01FFC00000
01FFC00000
01FFC00000
01FFC00000
01FFC00000
01FFC00000
01FFC00000
01FFC00000
01FFC00000
01FFC00000
01FFC00000
01FFC00000
FFFFFFFFFC
FFFFFFFFFC
FFFFFFFFFC
FFFFFFFFFC
FFFFFFFFFC
FFFFFFFFFC
FFFFFFFFFC
FFFFFFFFFC
FFFFFFFFFC
01FFC00000
01FFC00000
01FFC00000
01FFC00000
01FFC00000
01FFC00000
01FFC00000
01FFC00000
01FFC00000
01FFC00000
01FFC00000
01FFC00000
01FFC00000
01FFC00000
01FFC00000
01FFC00000
01FFC00000
01FFC00000
01FFC00000
01FFC00000
01FFC00000
01FFC00000
01FFC00000
01FFC00000
01FFC00000
ENDCHAR
STARTCHAR 0047
ENCODING 71
SWIDTH 832 0
DWIDTH 74 0
BBX 70 65 3 -1
BITMAP
00000001F000000000
0000007FFFC0000000
000007FFFFF8000000
00001FFFFFFF000000
00007FFFFFFF800000
0001FFFFFFFFE00000
0003FFFFFFFFF80000
000FFFFFFFFFFC0000
001FFFFFFFFFFE0000
003FFFFFFFFFFF0000
007FFFFFFFFFFF8000
00FFFFE001FFFF8000
01FFFF80003FFE0000
03FFFC00000FFC0000
03FFF8000007F80000
07FFE0000001F00000
0FFFC0000000E00000
0FFF80000000400000
1FFF00000000000000
1FFE00000000000000
3FFE00000000000000
3FFC00000000000000
3FFC00000000000000
7FF800000000000000
7FF800000000000000
7FF000000000000000
7FF000000000000000
FFF000000000000000
FFF00001FFFFFFFFFC
FFE00001FFFFFFFFFC
FFE00001FFFFFFFFFC
FFE00001FFFFFFFFFC
FFE00001FFFFFFFFFC
FFE00001FFFFFFFFFC
FFE00001FFFFFFFFFC
FFE00001FFFFFFFFFC
FFE00001FFFFFFFFFC
FFF00001FFFFFFFFFC
7FF00000000007FF80
7FF00000000007FF80
7FF00000000007FF80
7FF8000000000FFF00
7FF8000000000FFF00
3FFC000000000FFF00
3FFC000000001FFE00
1FFE000000003FFE00
1FFF000000003FFE00
1FFF800000007FFC00
0FFF80000000FFFC00
07FFC0000001FFF800
07FFF0000003FFF800
03FFF8000007FFF000
01FFFE00001FFFE000
01FFFF80007FFFE000
00FFFFF803FFFFC000
007FFFFFFFFFFF8000
003FFFFFFFFFFF0000
001FFFFFFFFFFE0000
0007FFFFFFFFFC0000
0003FFFFFFFFF00000
0000FFFFFFFFE00000
00007FFFFFFF800000
00001FFFFFFE000000
000003FFFFF8000000
0000003FFF80000000
ENDCHAR
STARTCHAR 0048
ENCODING 72
SWIDTH 573 0
DWIDTH 51 0
BBX 44 62 2 0
BITMAP
03FF80007FF0
03FF80007FF0
03FF80007FF0
03FF80007FF0
03FF80007FF0
03FF80007FF0
03FF80007FF0
03FF80007FF0
03FF80007FF0
03FF80007FF0
03FF80007FF0
03FF80007FF0
03FF80007FF0
03FF80007FF0
03FF80007FF0
03FF80007FF0
03FF80007FF0
03FF80007FF0
03FF80007FF0
03FF80007FF0
03FF80007FF0
03FF80007FF0
03FF80007FF0
03FF80007FF0
03FF80007FF0
03FF80007FF0
FFFFFFFFFFF0
FFFFFFFFFFF0
FFFFFFFFFFF0
FFFFFFFFFFF0
FFFFFFFFFFF0
FFFFFFFFFFF0
FFFFFFFFFFF0
FFFFFFFFFFF0
FFFFFFFFFFF0
FFFFFFFFFFF0
FFFFFFFFFFF0
03FF80007FF0
03FF80007FF0
03FF80007FF0
03FF80007FF0
03FF80007FF0
03FF80007FF0
03FF80007FF0
03FF80007FF0
03FF80007FF0
03FF80007FF0
03FF80007FF0
03FF80007FF0
03FF80007FF0
03FF80007FF0
03FF80007FF0
03FF80007FF0
03FF80007FF0
03FF80007FF0
03FF80007FF0
03FF80007FF0
03FF80007FF0
03FF80007FF0
03FF80007FF0
03FF80007FF0
03FF80007FF0
ENDCHAR
STARTCHAR 0049
ENCODING 73
SWIDTH 225 0
DWIDTH 20 0
BBX 24 71 -2 0
BITMAP
001000
001800
001800
003800
003C00
003C00
007E00
007E00
01FF80
FFFFFF
7FFFFE
3FFFFC
1FFFF8
07FFE0
03FFC0
03FFC0
03FFC0
03FFC0
07FFC0
07E7E0
07C3E0
0700E0
0E0070
080010
000000
000000
000000
000000
000000
000000
000000
000000
000000
03FFC0
03FFC0
03FFC0
03FFC0
03FFC0
03FFC0
03FFC0
03FFC0
03FFC0
03FFC0
03FFC0
03FFC0
03FFC0
03FFC0
03FFC0
03FFC0
03FFC0
03FFC0
03FFC0
03FFC0
03FFC0
03FFC0
03FFC0
03FFC0
03FFC0
03FFC0
03FFC0
03FFC0
03FFC0
03FFC0
03FFC0
03FFC0
03FFC0
03FFC0
03FFC0
03FFC0
03FFC0
03FFC0
ENDCHAR
STARTCHAR 004A
ENCODING 74
SWIDTH 472 0
DWIDTH 42 0
BBX 37 63 1 -1
BITMAP
00001FFFF8
00001FFFF8
00001FFFF8
00001FFFF8
00001FFFF8
00001FFFF8
00001FFFF8
00001FFFF8
00001FFFF8
00001FFFF8
0000003FF8
0000003FF8
0000003FF8
0000003FF8
0000003FF8
0000003FF8
0000003FF8
0000003FF8
0000003FF8
0000003FF8
0000003FF8
0000003FF8
0000003FF8
0000003FF8
0000003FF8
0000003FF8
0000003FF8
0000003FF8
0000003FF8
0000003FF8
0000003FF8
0000003FF8
0000003FF8
0000003FF8
0000003FF8
0000003FF8
0000003FF8
0000003FF8
0000003FF8
0000003FF8
0000003FF8
0000003FF8
0000003FF8
0000003FF8
0000003FF8
0000007FF8
0000007FF0
00C0007FF0
01E000FFF0
07E000FFF0
1FF001FFF0
3FF803FFE0
FFFE0FFFE0
7FFFFFFFC0
7FFFFFFFC0
3FFFFFFF80
1FFFFFFF80
0FFFFFFF00
0FFFFFFE00
03FFFFFC00
01FFFFF000
007FFFE000
000FFF0000
ENDCHAR
STARTCHAR 004B
ENCODING 75
SWIDTH 562 0
DWIDTH 50 0
BBX 44 62 2 0
BITMAP
03FF8007FF00
03FF8007FF00
03FF8007FF00
03FF8007FF00
03FF8007FF00
03FF8007FF00
03FF8007FF00
03FF8007FF00
03FF8007FF00
03FF8007FF00
03FF8007FF00
03FF8007FF00
03FF8007FF00
03FF8007FF00
03FF8007FF00
03FF8007FF00
03FF8007FF00
03FF8007FF00
03FF8007FF00
03FF800FFF00
03FF800FFF00
03FF801FFE00
03FF801FFE00
03FF803FFE00
03FF80FFFC00
FFFFFFFFFC00
FFFFFFFFF800
FFFFFFFFF800
FFFFFFFFF000
FFFFFFFFFC00
FFFFFFFFFE00
FFFFFFFFFE00
FFFFFFFFFF00
FFFFFFFFFF80
FFFFFFFFFF80
03FF801FFFC0
03FF8007FFC0
03FF8003FFE0
03FF8001FFE0
03FF8000FFE0
03FF8000FFE0
03FF8000FFF0
03FF8000FFF0
03FF80007FF0
03FF80007FF0
03FF80007FF0
03FF80007FF0
03FF80007FF0
03FF80007FF0
03FF80007FF0
03FF80007FF0
03FF80007FF0
03FF80007FF0
03FF80007FF0
03FF80007FF0
03FF80007FF0
03FF80007FF0
03FF80007FF0
03FF80007FF0
03FF80007FF0
03FF80007FF0
03FF80007FF0
ENDCHAR
STARTCHAR 004C
ENCODING 76
SWIDTH 450 0
DWIDTH 40 0
BBX 33 62 5 0
BITMAP
FFE0000000
FFE0000000
FFE0000000
FFE0000000
FFE0000000
FFE0000000
FFE0000000
FFE0000000
FFE0000000
FFE0000000
FFE0000000
FFE0000000
FFE0000000
FFE0000000
FFE0000000
FFE0000000
FFE0000000
FFE0000000
FFE0000000
FFE0000000
FFE0000000
FFE0000000
FFE0000000
FFE0000000
FFE0000000
FFE0000000
FFE0000000
FFE0000000
FFE0000000
FFE0000000
FFE0000000
FFE0000000
FFE0000000
FFE0000000
FFE0000000
FFE0000000
FFE0000000
FFE0000000
FFE0000000
FFE0000000
FFE0000000
FFE0000000
FFE0000000
FFE0000000
FFE0000000
FFE0000000
FFE0000000
FFE0000000
FFE0000000
FFE0000000
FFE0000000
FFE0000000
FFFFFFFF80
FFFFFFFF80
FFFFFFFF80
FFFFFFFF80
FFFFFFFF80
FFFFFFFF80
FFFFFFFF80
FFFFFFFF80
FFFFFFFF80
FFFFFFFF80
ENDCHAR
STARTCHAR 004D
ENCODING 77
SWIDTH 877 0
DWIDTH 78 0
BBX 73 64 1 0
BITMAP
01000000000000000000
03800000380000000000
07C000003E000007FF80
0FF000003F000007FF80
0FF800003F800007FF80
1FFC00003FC00007FF80
3FFE00003FF00007FF80
7FFF80003FF80007FF80
FFFFC0003FFC0007FF80
7FFFE0003FFF0007FF80
1FFFF8003FFF8007FF80
0FFFFC003FFFC007FF80
07FFFE003FFFE007FF80
03FFFF003FFFF807FF80
03FFFFC03FFFFC07FF80
03FFFFE03FFFFE07FF80
03FFFFF03FFFFF87FF80
03FFFFF83FFFFFC7FF80
03FFFFFE3FFFFFE7FF80
03FFFFFF3FFFFFF7FF80
03FFFFFFBFFFFFFFFF80
03FFBFFFFFFBFFFFFF80
03FF9FFFFFF8FFFFFF80
03FF87FFFFF87FFFFF80
03FF83FFFFF83FFFFF80
03FF81FFFFF81FFFFF80
03FF80FFFFF807FFFF80
03FF803FFFF803FFFF80
03FF801FFFF801FFFF80
03FF800FFFF800FFFF80
03FF8003FFF8003FFF80
03FF8001FFF8001FFF80
03FF8000FFF8000FFF80
03FF80007FF80007FF80
03FF80003FF80007FF80
03FF80003FF80007FF80
03FF80003FF80007FF80
03FF80003FF80007FF80
03FF80003FF80007FF80
03FF80003FF80007FF80
03FF80003FF80007FF80
03FF80003FF80007FF80
03FF80003FF80007FF80
03FF80003FF80007FF80
03FF80003FF80007FF80
03FF80003FF80007FF80
03FF80003FF80007FF80
03FF80003FF80007FF80
03FF80003FF80007FF80
03FF80003FF80007FF80
03FF80003FF80007FF80
03FF80003FF80007FF80
03FF80003FF80007FF80
03FF80003FF80007FF80
03FF80003FF80007FF80
03FF80003FF80007FF80
03FF80003FF80007FF80
03FF80003FF80007FF80
03FF80003FF80007FF80
03FF80003FF80007FF80
03FF80003FF80007FF80
03FF80003FF80007FF80
03FF80003FF80007FF80
03FF80003FF80007FF80
ENDCHAR
STARTCHAR 004E
ENCODING 78
SWIDTH 551 0
DWIDTH 49 0
BBX 44 64 1 0
BITMAP
010000000000
038000000000
07C000007FF0
0FF000007FF0
0FF800007FF0
1FFC00007FF0
3FFE00007FF0
7FFF80007FF0
FFFFC0007FF0
7FFFE0007FF0
1FFFF8007FF0
0FFFFC007FF0
07FFFE007FF0
07FFFF007FF0
07FFFFC07FF0
07FFFFE07FF0
07FFFFF07FF0
07FFFFFC7FF0
07FFFFFE7FF0
07FFFFFF7FF0
07FFFFFFFFF0
07FF7FFFFFF0
07FF3FFFFFF0
07FF0FFFFFF0
07FF07FFFFF0
07FF03FFFFF0
07FF00FFFFF0
07FF007FFFF0
07FF003FFFF0
07FF001FFFF0
07FF0007FFF0
07FF0003FFF0
07FF0001FFF0
07FF0000FFF0
07FF00007FF0
07FF00007FF0
07FF00007FF0
07FF00007FF0
07FF00007FF0
07FF00007FF0
07FF00007FF0
07FF00007FF0
07FF00007FF0
07FF00007FF0
07FF00007FF0
07FF00007FF0
07FF00007FF0
07FF00007FF0
07FF00007FF0
07FF00007FF0
07FF00007FF0
07FF00007FF0
07FF00007FF0
07FF00007FF0
07FF00007FF0
07FF00007FF0
07FF00007FF0
07FF00007FF0
07FF00007FF0
07FF00007FF0
07FF00007FF0
07FF00007FF0
07FF00007FF0
07FF00007FF0
ENDCHAR
STARTCHAR 004F
ENCODING 79
SWIDTH 821 0
DWIDTH 73 0
BBX 67 65 3 -1
BITMAP
00000001F000000000
0000007FFFC0000000
000007FFFFFC000000
00001FFFFFFF000000
00007FFFFFFFC00000
0001FFFFFFFFF00000
0003FFFFFFFFF80000
000FFFFFFFFFFE0000
001FFFFFFFFFFF0000
003FFFFFFFFFFF8000
007FFFFFFFFFFFC000
00FFFFF001FFFFE000
01FFFF80001FFFF000
03FFFC000007FFF800
03FFF8000003FFF800
07FFE0000000FFFC00
0FFFC00000007FFE00
0FFF800000003FFE00
1FFF000000001FFF00
1FFF000000000FFF00
3FFE000000000FFF80
3FFC0000000007FF80
3FFC0000000007FF80
7FF80000000003FFC0
7FF80000000003FFC0
7FF00000000001FFC0
7FF00000000001FFC0
FFF00000000001FFE0
FFF00000000001FFE0
FFE00000000000FFE0
FFE00000000000FFE0
FFE00000000000FFE0
FFE00000000000FFE0
FFE00000000000FFE0
FFE00000000000FFE0
FFE00000000000FFE0
FFE00000000000FFE0
FFF00000000001FFE0
7FF00000000001FFC0
7FF00000000001FFC0
7FF00000000001FFC0
7FF80000000003FFC0
7FF80000000003FFC0
3FFC0000000007FF80
3FFC0000000007FF80
1FFE000000000FFF00
1FFF000000001FFF00
1FFF000000001FFF00
0FFF800000003FFE00
07FFC00000007FFC00
07FFF0000001FFFC00
03FFF8000003FFF800
01FFFE00000FFFF000
01FFFF80003FFFF000
00FFFFF803FFFFE000
007FFFFFFFFFFFC000
003FFFFFFFFFFF8000
001FFFFFFFFFFF0000
0007FFFFFFFFFE0000
0003FFFFFFFFF80000
0000FFFFFFFFF00000
00007FFFFFFFC00000
00001FFFFFFF000000
000003FFFFF8000000
0000003FFF80000000
ENDCHAR
STARTCHAR 0050
ENCODING 80
SWIDTH 562 0
DWIDTH 50 0
BBX 48 62 2 0
BITMAP
07FFFFFF0000
07FFFFFFE000
07FFFFFFFC00
07FFFFFFFE00
07FFFFFFFF80
07FFFFFFFFC0
07FFFFFFFFE0
07FFFFFFFFF0
07FFFFFFFFF8
07FFFFFFFFF8
07FF0007FFFC
07FF0000FFFC
07FF00003FFE
07FF00001FFE
07FF00001FFE
07FF00000FFE
07FF00000FFE
07FF00000FFE
07FF000007FF
07FF000007FF
07FF00000FFE
07FF00000FFE
07FF00000FFE
07FF00000FFE
07FF00001FFE
07FF00003FFE
07FF00007FFC
07FF0001FFFC
07FF000FFFF8
FFFFFFFFFFF8
FFFFFFFFFFF0
FFFFFFFFFFE0
FFFFFFFFFFC0
FFFFFFFFFF80
FFFFFFFFFF00
FFFFFFFFFE00
FFFFFFFFF800
FFFFFFFFC000
FFFFFFFC0000
07FF00000000
07FF00000000
07FF00000000
07FF00000000
07FF00000000
07FF00000000
07FF00000000
07FF00000000
07FF00000000
07FF00000000
07FF00000000
07FF00000000
07FF00000000
07FF00000000
07FF00000000
07FF00000000
07FF00000000
07FF00000000
07FF00000000
07FF00000000
07FF00000000
07FF00000000
07FF00000000
ENDCHAR
STARTCHAR 0051
ENCODING 81
SWIDTH 821 0
DWIDTH 73 0
BBX 67 66 3 -2
BITMAP
00000001F000000000
0000007FFFC0000000
000007FFFFFC000000
00001FFFFFFF000000
00007FFFFFFFC00000
0001FFFFFFFFF00000
0003FFFFFFFFF80000
000FFFFFFFFFFE0000
001FFFFFFFFFFF0000
003FFFFFFFFFFF8000
007FFFFFFFFFFFC000
00FFFFF001FFFFE000
01FFFF80001FFFF000
03FFFC000007FFF800
03FFF8000003FFF800
07FFE0000000FFFC00
0FFFC00000007FFE00
0FFF800000003FFE00
1FFF000000001FFF00
1FFF000000000FFF00
3FFE000000000FFF80
3FFC0000000007FF80
3FFC0000000007FF80
7FF80000000003FFC0
7FF80000000003FFC0
7FF00000000001FFC0
7FF00000000001FFC0
FFF00000000001FFE0
FFF00000000001FFE0
FFE00000000000FFE0
FFE00000000000FFE0
FFE00000000000FFE0
FFE00000000000FFE0
FFE00000000000FFE0
FFE00000000000FFE0
FFE00000000000FFE0
FFE00000000000FFE0
FFF00000000001FFE0
7FF00000000001FFC0
7FF00000000001FFC0
7FF00000000001FFC0
7FF80000000003FFC0
7FF80000000103FFC0
3FFC0000000387FF80
3FFC00000007C7FF80
1FFE0000000FEFFF00
1FFF0000001FFFFF00
1FFF0000003FFFFF00
0FFF8000007FFFFE00
07FFC00000FFFFFC00
07FFF00000FFFFFC00
03FFF800007FFFF800
01FFFE00003FFFF000
01FFFF80003FFFF000
00FFFFF803FFFFF000
007FFFFFFFFFFFF800
003FFFFFFFFFFFFC00
001FFFFFFFFFFFFE00
0007FFFFFFFFFFFF00
0003FFFFFFFFFFFE00
0000FFFFFFFFFFFC00
00007FFFFFFFDFF800
00001FFFFFFF0FF000
000003FFFFF807E000
0000003FFF8003C000
000000000000018000
ENDCHAR
STARTCHAR 0052
ENCODING 82
SWIDTH 607 0
DWIDTH 54 0
BBX 49 62 2 0
BITMAP
03FFFFFFC00000
03FFFFFFF80000
03FFFFFFFF0000
03FFFFFFFF8000
03FFFFFFFFE000
03FFFFFFFFF000
03FFFFFFFFF800
03FFFFFFFFFC00
03FFFFFFFFFC00
03FFFFFFFFFE00
03FF8001FFFE00
03FF80003FFF00
03FF80001FFF00
03FF80000FFF00
03FF800007FF80
03FF800003FF80
03FF800003FF80
03FF800003FF80
03FF800003FF80
03FF800003FF80
03FF800003FF80
03FF800003FF80
03FF800007FF80
03FF800007FF00
03FF80000FFF00
03FF80001FFF00
03FF80003FFF00
03FF8001FFFE00
FFFFFFFFFFFE00
FFFFFFFFFFFC00
FFFFFFFFFFF800
FFFFFFFFFFF000
FFFFFFFFFFE000
FFFFFFFFFFC000
FFFFFFFFFF8000
FFFFFFFFFF8000
FFFFFFFFFFC000
FFFFFFFFFFE000
03FF800FFFE000
03FF8003FFF000
03FF8000FFF000
03FF80007FF800
03FF80007FF800
03FF80003FF800
03FF80003FFC00
03FF80001FFC00
03FF80001FFC00
03FF80001FFC00
03FF80001FFC00
03FF80001FFC00
03FF80001FFE00
03FF80001FFE00
03FF80001FFE00
03FF80001FFE00
03FF80001FFE00
03FF80001FFE00
03FF80001FFE00
03FF80001FFE00
03FF80001FFE00
03FF80001FFE00
03FF80001FFE00
03FF80001FFE00
ENDCHAR
STARTCHAR 0053
ENCODING 83
SWIDTH 506 0
DWIDTH 45 0
BBX 40 65 3 -1
BITMAP
0000FC0000
000FFFE000
003FFFF800
00FFFFFE00
01FFFFFF00
03FFFFFF80
07FFFFFFC0
07FFFFFFE0
0FFFFFFFF0
1FFFFFFFF0
1FFFFFFFF8
1FFF81FFF8
3FFE007FFC
3FFC003FFC
3FFC003FFC
3FF8001FFC
3FF8001FF0
3FF8000F80
3FFC000C00
3FFC000000
1FFE000000
1FFE000000
1FFF800000
0FFFC00000
0FFFE00000
07FFF80000
03FFFC0000
03FFFF0000
01FFFFC000
00FFFFE000
003FFFF800
001FFFFC00
000FFFFF00
0003FFFF80
0001FFFFC0
00007FFFE0
00001FFFF0
00000FFFF0
000003FFF8
000001FFFC
000000FFFC
0000007FFE
0000003FFE
0000001FFE
0000000FFE
0000000FFE
01E0000FFF
0FE0000FFF
7FE0000FFF
FFF0000FFE
FFF0000FFE
FFF8001FFE
7FFC003FFE
7FFE007FFE
3FFFC1FFFC
3FFFFFFFFC
1FFFFFFFF8
0FFFFFFFF8
0FFFFFFFF0
07FFFFFFE0
03FFFFFFC0
00FFFFFF80
007FFFFE00
001FFFFC00
0003FFE000
ENDCHAR
STARTCHAR 0054
ENCODING 84
SWIDTH 517 0
DWIDTH 46 0
BBX 42 62 2 0
BITMAP
FFFFFFFFFFC0
FFFFFFFFFFC0
FFFFFFFFFFC0
FFFFFFFFFFC0
FFFFFFFFFFC0
FFFFFFFFFFC0
FFFFFFFFFFC0
FFFFFFFFFFC0
FFFFFFFFFFC0
FFFFFFFFFFC0
0000FFE00000
0000FFE00000
0000FFE00000
0000FFE00000
0000FFE00000
0000FFE00000
0000FFE00000
0000FFE00000
0000FFE00000
0000FFE00000
0000FFE00000
0000FFE00000
0000FFE00000
0000FFE00000
0000FFE00000
0000FFE00000
0000FFE00000
0000FFE00000
0000FFE00000
0000FFE00000
0000FFE00000
0000FFE00000
0000FFE00000
0000FFE00000
0000FFE00000
0000FFE00000
0000FFE00000
0000FFE00000
0000FFE00000
0000FFE00000
0000FFE00000
0000FFE00000
0000FFE00000
0000FFE00000
0000FFE00000
0000FFE00000
0000FFE00000
0000FFE00000
0000FFE00000
0000FFE00000
0000FFE00000
0000FFE00000
0000FFE00000
0000FFE00000
0000FFE00000
0000FFE00000
0000FFE00000
0000FFE00000
0000FFE00000
0000FFE00000
0000FFE00000
0000FFE00000
ENDCHAR
STARTCHAR 0055
ENCODING 85
SWIDTH 528 0
DWIDTH 47 0
BBX 39 63 4 -1
BITMAP
FFE0000FFE
FFE0000FFE
FFE0000FFE
FFE0000FFE
FFE0000FFE
FFE0000FFE
FFE0000FFE
FFE0000FFE
FFE0000FFE
FFE0000FFE
FFE0000FFE
FFE0000FFE
FFE0000FFE
FFE0000FFE
FFE0000FFE
FFE0000FFE
FFE0000FFE
FFE0000FFE
FFE0000FFE
FFE0000FFE
FFE0000FFE
FFE0000FFE
FFE0000FFE
FFE0000FFE
FFE0000FFE
FFE0000FFE
FFE0000FFE
FFE0000FFE
FFE0000FFE
FFE0000FFE
FFE0000FFE
FFE0000FFE
FFE0000FFE
FFE0000FFE
FFE0000FFE
FFE0000FFE
FFE0000FFE
FFE0000FFE
FFE0000FFE
FFE0000FFE
FFE0000FFE
FFE0000FFE
FFE0000FFE
FFE0000FFE
FFE0000FFE
FFE0000FFE
FFF0001FFE
7FF0001FFC
7FF0001FFC
7FF8003FFC
7FFC007FFC
3FFE00FFF8
3FFF83FFF8
1FFFFFFFF0
1FFFFFFFF0
0FFFFFFFE0
07FFFFFFC0
07FFFFFFC0
03FFFFFF80
00FFFFFE00
007FFFFC00
001FFFF000
0003FF8000
ENDCHAR
STARTCHAR 0056
ENCODING 86
SWIDTH 483 0
DWIDTH 43 0
BBX 38 62 1 0
BITMAP
FFE0001FFC
FFE0001FFC
FFE0001FFC
FFE0001FFC
FFE0001FFC
FFE0001FFC
FFE0001FFC
FFE0001FFC
FFE0001FFC
FFE0001FFC
FFE0001FFC
FFE0001FFC
FFE0001FFC
FFE0001FFC
FFE0001FFC
FFE0001FFC
FFE0001FFC
FFE0001FFC
FFE0001FFC
FFE0001FFC
FFE0001FFC
FFE0001FFC
FFE0001FFC
FFE0001FFC
FFE0001FFC
FFE0001FFC
FFE0001FFC
FFE0001FFC
FFE0001FFC
FFE0001FFC
FFE0001FFC
FFE0001FFC
FFE0003FFC
FFF0003FFC
7FF0003FF8
7FF0003FF8
7FF0003FF8
7FF0003FF8
7FF0003FF8
7FF8007FF8
7FF8007FF8
3FF8007FF0
3FF8007FF0
3FFC00FFF0
3FFC00FFF0
1FFC00FFE0
1FFE01FFE0
1FFE01FFE0
0FFE01FFC0
0FFF03FFC0
07FF03FF80
07FF87FF80
03FFCFFF00
03FFCFFF00
01FFFFFE00
00FFFFFC00
00FFFFFC00
007FFFF800
003FFFF000
001FFFE000
000FFFC000
0007FFC000
ENDCHAR
STARTCHAR 0057
ENCODING 87
SWIDTH 787 0
DWIDTH 70 0
BBX 65 62 1 0
BITMAP
FFE0001FFC0003FF80
FFE0001FFC0003FF80
FFE0001FFC0003FF80
FFE0001FFC0003FF80
FFE0001FFC0003FF80
FFE0001FFC0003FF80
FFE0001FFC0003FF80
FFE0001FFC0003FF80
FFE0001FFC0003FF80
FFE0001FFC0003FF80
FFE0001FFC0003FF80
FFE0001FFC0003FF80
FFE0001FFC0003FF80
FFE0001FFC0003FF80
FFE0001FFC0003FF80
FFE0001FFC0003FF80
FFE0001FFC0003FF80
FFE0001FFC0003FF80
FFE0001FFC0003FF80
FFE0001FFC0003FF80
FFE0001FFC0003FF80
FFE0001FFC0003FF80
FFE0001FFC0003FF80
FFE0001FFC0003FF80
FFE0001FFC0003FF80
FFE0001FFC0003FF80
FFE0001FFC0003FF80
FFE0001FFC0003FF80
FFE0001FFC0007FF80
FFE0001FFC0007FF80
FFE0001FFC0007FF80
FFE0001FFC0007FF00
FFE0003FFC0007FF00
FFF0003FFC0007FF00
7FF0003FFC0007FF00
7FF0003FFE0007FF00
7FF0003FFE0007FF00
7FF0003FFE0007FF00
7FF0003FFE000FFF00
7FF8007FFE000FFE00
7FF8007FFE000FFE00
3FF8007FFF000FFE00
3FF8007FFF001FFE00
3FFC00FFFF001FFE00
3FFC00FFFF801FFC00
1FFC00FFFF803FFC00
1FFE01FFFF803FFC00
1FFE01FFFFC03FF800
0FFE01FFFFC07FF800
0FFF03FFFFE07FF800
07FF03FFFFE0FFF000
07FF87FFFFF0FFF000
03FFCFFF7FF1FFE000
03FFCFFF7FF9FFC000
01FFFFFE3FFFFFC000
00FFFFFC3FFFFF8000
00FFFFFC1FFFFF0000
007FFFF80FFFFF0000
003FFFF007FFFE0000
001FFFE007FFFC0000
000FFFC003FFF80000
0007FFC001FFF00000
ENDCHAR
STARTCHAR 0058
ENCODING 88
SWIDTH 528 0
DWIDTH 47 0
BBX 39 62 4 0
BITMAP
FFF0000FFE
FFF0000FFE
FFF0000FFE
FFF0000FFE
FFF0000FFE
FFF0000FFE
FFF0000FFE
FFF0000FFE
FFF0000FFE
FFF0000FFE
FFF0000FFE
FFF0000FFE
FFF0000FFE
7FF0000FFE
7FF0000FFE
7FF0000FFE
7FF0001FFE
7FF8001FFE
7FF8003FFC
3FFC003FFC
3FFE007FFC
1FFFC3FFF8
1FFFFFFFF8
0FFFFFFFF0
0FFFFFFFF0
07FFFFFFE0
03FFFFFFC0
03FFFFFFC0
07FFFFFFE0
0FFFFFFFF0
0FFFFFFFF0
1FFFFFFFF8
1FFFC3FFF8
3FFE007FFC
3FFC003FFC
7FF8003FFC
7FF8001FFE
7FF0001FFE
7FF0000FFE
7FF0000FFE
7FF0000FFE
FFF0000FFE
FFF0000FFE
FFF0000FFE
FFF0000FFE
FFF0000FFE
FFF0000FFE
FFF0000FFE
FFF0000FFE
FFF0000FFE
FFF0000FFE
FFF0000FFE
FFF0000FFE
FFF0000FFE
FFF0000FFE
FFF0000FFE
FFF0000FFE
FFF0000FFE
FFF0000FFE
FFF0000FFE
FFF0000FFE
FFF0000FFE
ENDCHAR
STARTCHAR 0059
ENCODING 89
SWIDTH 517 0
DWIDTH 46 0
BBX 39 62 4 0
BITMAP
FFE0001FFE
FFE0001FFE
FFE0001FFE
FFE0001FFE
FFE0001FFE
FFE0001FFE
FFE0001FFE
FFE0001FFE
FFE0001FFE
FFE0001FFE
FFE0001FFE
FFE0001FFE
FFE0001FFE
FFE0001FFE
FFE0001FFE
FFE0001FFE
FFE0001FFE
FFE0001FFE
FFE0001FFE
FFE0001FFE
FFE0001FFE
FFE0001FFE
FFE0001FFE
FFE0001FFE
FFE0001FFE
FFE0001FFE
FFE0001FFE
FFE0001FFE
FFE0001FFC
FFE0001FFC
FFE0001FFC
FFE0001FFC
FFF0003FFC
FFF0003FFC
7FF8007FF8
7FFC00FFF8
7FFE01FFF8
3FFFFFFFF0
3FFFFFFFF0
1FFFFFFFE0
0FFFFFFFC0
07FFFFFFC0
03FFFFFF80
01FFFFFF00
00FFFFFC00
003FFFF000
000FFFC000
0003FF8000
0003FF8000
0003FF8000
0003FF8000
0003FF8000
0003FF8000
0003FF8000
0003FF8000
0003FF8000
0003FF8000
0003FF8000
0003FF8000
0003FF8000
0003FF8000
0003FF8000
ENDCHAR
STARTCHAR 005A
ENCODING 90
SWIDTH 517 0
DWIDTH 46 0
BBX 43 62 2 0
BITMAP
7FFFFFFFFFE0
7FFFFFFFFFE0
7FFFFFFFFFE0
7FFFFFFFFFE0
7FFFFFFFFFE0
7FFFFFFFFFC0
7FFFFFFFFFC0
7FFFFFFFFF80
7FFFFFFFFF00
7FFFFFFFFF00
0000001FFE00
0000001FFE00
0000003FFC00
0000007FF800
0000007FF800
000000FFF000
000000FFF000
000001FFE000
000003FFC000
000003FFC000
000007FF8000
000007FF8000
00000FFF0000
00001FFF0000
00001FFE0000
00003FFC0000
00003FFC0000
00007FF80000
0000FFF80000
0000FFF00000
0001FFE00000
0001FFE00000
0003FFC00000
0007FFC00000
0007FF800000
000FFF000000
000FFF000000
001FFE000000
003FFE000000
003FFC000000
007FFC000000
007FF8000000
00FFF0000000
00FFF0000000
01FFE0000000
03FFE0000000
03FFC0000000
07FF80000000
07FF80000000
0FFF00000000
1FFF00000000
1FFE00000000
3FFFFFFFFF80
3FFFFFFFFF80
7FFFFFFFFF80
FFFFFFFFFF80
FFFFFFFFFF80
FFFFFFFFFF80
FFFFFFFFFF80
FFFFFFFFFF80
FFFFFFFFFF80
FFFFFFFFFF80
ENDCHAR
STARTCHAR 005B
ENCODING 91
SWIDTH 258 0
DWIDTH 23 0
BBX 13 86 5 -13
BITMAP
FFF8
FFF8
FFF8
FFF8
FFF8
FFF8
FE00
FE00
FE00
FE00
FE00
FE00
FE00
FE00
FE00
FE00
FE00
FE00
FE00
FE00
FE00
FE00
FE00
FE00
FE00
FE00
FE00
FE00
FE00
FE00
FE00
FE00
FE00
FE00
FE00
FE00
FE00
FE00
FE00
FE00
FE00
FE00
FE00
FE00
FE00
FE00
FE00
FE00
FE00
FE00
FE00
FE00
FE00
FE00
FE00
FE00
FE00
FE00
FE00
FE00
FE00
FE00
FE00
FE00
FE00
FE00
FE00
FE00
FE00
FE00
FE00
FE00
FE00
FE00
FE00
FE00
FE00
FE00
FE00
FFF8
FFF8
FFF8
FFF8
FFF8
FFF8
FFF8
ENDCHAR
STARTCHAR 005C
ENCODING 92
SWIDTH 416 0
DWIDTH 37 0
BBX 27 65 5 -1
BITMAP
FF800000
FF800000
7F800000
7FC00000
7FC00000
7FC00000
3FE00000
3FE00000
3FE00000
1FE00000
1FF00000
1FF00000
1FF00000
0FF80000
0FF80000
0FF80000
07F80000
07FC0000
07FC0000
07FC0000
03FE0000
03FE0000
03FE0000
01FE0000
01FF0000
01FF0000
01FF0000
00FF8000
00FF8000
00FF8000
007F8000
007FC000
007FC000
007FC000
003FE000
003FE000
003FE000
001FE000
001FF000
001FF000
001FF000
000FF800
000FF800
000FF800
0007F800
0007FC00
0007FC00
0007FC00
0003FE00
0003FE00
0003FE00
0001FE00
0001FF00
0001FF00
0001FF00
0000FF80
0000FF80
0000FF80
00007F80
00007FC0
00007FC0
00007FC0
00003FE0
00003FE0
00003FE0
ENDCHAR
STARTCHAR 005D
ENCODING 93
SWIDTH 258 0
DWIDTH 23 0
BBX 13 86 5 -13
BITMAP
FFF8
FFF8
FFF8
FFF8
FFF8
FFF8
03F8
03F8
03F8
03F8
03F8
03F8
03F8
03F8
03F8
03F8
03F8
03F8
03F8
03F8
03F8
03F8
03F8
03F8
03F8
03F8
03F8
03F8
03F8
03F8
03F8
03F8
03F8
03F8
03F8
03F8
03F8
03F8
03F8
03F8
03F8
03F8
03F8
03F8
03F8
03F8
03F8
03F8
03F8
03F8
03F8
03F8
03F8
03F8
03F8
03F8
03F8
03F8
03F8
03F8
03F8
03F8
03F8
03F8
03F8
03F8
03F8
03F8
03F8
03F8
03F8
03F8
03F8
03F8
03F8
03F8
03F8
03F8
03F8
FFF8
FFF8
FFF8
FFF8
FFF8
FFF8
FFF8
ENDCHAR
STARTCHAR 005E
ENCODING 94
SWIDTH 506 0
DWIDTH 45 0
BBX 35 24 5 30
BITMAP
0007FE0000
000FFF0000
000FFF0000
001FFF8000
003FFF8000
003FFFC000
007FFFC000
007FBFE000
00FF9FF000
00FF1FF000
01FF0FF800
01FE0FF800
03FC07FC00
07FC03FC00
07F803FE00
0FF801FE00
0FF001FF00
1FF000FF80
1FE000FF80
3FE0007FC0
3FC0003FC0
7FC0003FE0
FF80001FE0
FF00000000
ENDCHAR
STARTCHAR 005F
ENCODING 95
SWIDTH 540 0
DWIDTH 48 0
BBX 38 6 5 -10
BITMAP
FFFFFFFFFC
FFFFFFFFFC
FFFFFFFFFC
FFFFFFFFFC
FFFFFFFFFC
FFFFFFFFFC
ENDCHAR
STARTCHAR 0060
ENCODING 96
SWIDTH 157 0
DWIDTH 14 0
BBX 14 12 0 67
BITMAP
FF80
7F80
3FC0
1FC0
1FE0
0FE0
07F0
07F0
03F8
01F8
00FC
00FC
ENDCHAR
STARTCHAR 0061
ENCODING 97
SWIDTH 562 0
DWIDTH 50 0
BBX 45 64 4 0
BITMAP
000038000000
0007FFE00000
001FFFF80000
007FFFFE0000
00FFFFFF0000
01FFFFFF8000
03FFFFFFC000
07FFFFFFE000
0FFFFFFFF000
1FFFFFFFF000
1FFFFFFFF800
3FFF01FFF800
3FFE007FFC00
3FFC003FFC00
7FF8001FFE00
7FF8001FFE00
7FF0000FFE00
7FF0000FFE00
7FF0000FFE00
7FF0000FFE00
FFF0000FFE00
FFF0000FFE00
FFF0000FFE00
FFF0000FFE00
FFF0000FFE00
FFF0000FFE00
FFF0000FFE00
FFF0000FFE00
FFF0000FFE00
FFF0000FFE00
FFF0000FFE00
FFF0000FFE00
FFF0000FFE00
FFF0000FFE00
FFF0000FFE00
FFF0000FFE00
FFF0000FFE00
FFF0000FFE00
FFF0000FFE00
FFF0000FFE00
FFF0000FFE00
FFF0000FFE00
FFF0000FFE00
FFF0000FFE00
FFF0000FFE00
FFF0000FFE00
FFF0000FFE00
FFF0000FFE00
FFF0000FFE00
FFF0000FFE00
FFF0000FFE00
FFF0000FFE00
FFF0000FFE00
FFF0000FFE00
FFFFFFFFFFF8
FFFFFFFFFFF8
FFFFFFFFFFF8
FFFFFFFFFFF8
FFFFFFFFFFF8
FFFFFFFFFFF8
FFFFFFFFFFF8
FFFFFFFFFFF8
FFFFFFFFFFF8
FFFFFFFFFFF8
ENDCHAR
STARTCHAR 0062
ENCODING 98
SWIDTH 618 0
DWIDTH 55 0
BBX 50 62 3 0
BITMAP
03FFFFFFE00000
03FFFFFFFC0000
03FFFFFFFF0000
03FFFFFFFFC000
03FFFFFFFFE000
03FFFFFFFFF000
03FFFFFFFFF800
03FFFFFFFFFC00
03FFFFFFFFFC00
03FFFFFFFFFE00
03FF8000FFFE00
03FF80003FFF00
03FF80000FFF00
03FF80000FFF00
03FF800007FF00
03FF800007FF80
03FF800007FF80
03FF800007FF80
03FF800007FF80
03FF800007FF00
03FF800007FF00
03FF80000FFF00
03FF80000FFF00
03FF80001FFF00
03FF80007FFE00
FFFFFFFFFFFE00
FFFFFFFFFFFC00
FFFFFFFFFFF800
FFFFFFFFFFF800
FFFFFFFFFFF000
FFFFFFFFFFF800
FFFFFFFFFFFC00
FFFFFFFFFFFC00
FFFFFFFFFFFE00
FFFFFFFFFFFF00
03FF8003FFFF00
03FF80001FFF80
03FF80000FFF80
03FF800007FFC0
03FF800003FFC0
03FF800003FFC0
03FF800001FFC0
03FF800001FFC0
03FF800001FFC0
03FF800001FFC0
03FF800001FFC0
03FF800001FFC0
03FF800003FFC0
03FF800007FFC0
03FF80000FFF80
03FF80001FFF80
03FF8003FFFF80
03FFFFFFFFFF00
03FFFFFFFFFF00
03FFFFFFFFFE00
03FFFFFFFFFC00
03FFFFFFFFF800
03FFFFFFFFF000
03FFFFFFFFE000
03FFFFFFFF8000
03FFFFFFFE0000
03FFFFFFE00000
ENDCHAR
STARTCHAR 0063
ENCODING 99
SWIDTH 686 0
DWIDTH 61 0
BBX 56 65 3 -1
BITMAP
00000000E00000
000000FFFFC000
000007FFFFF800
00001FFFFFFE00
00007FFFFFFF80
0001FFFFFFFFE0
0007FFFFFFFFF0
000FFFFFFFFFFC
001FFFFFFFFFFE
003FFFFFFFFFFF
007FFFFFFFFFFF
00FFFFF001FFFF
01FFFF80007FFE
03FFFC00001FFC
03FFF8000007F8
07FFE0000003F0
0FFFC0000001E0
0FFF80000000C0
1FFF0000000000
1FFF0000000000
3FFE0000000000
3FFC0000000000
3FFC0000000000
7FF80000000000
7FF80000000000
7FF00000000000
7FF00000000000
FFF00000000000
FFF00000000000
FFE00000000000
FFE00000000000
FFE00000000000
FFE00000000000
FFE00000000000
FFE00000000000
FFE00000000000
FFE00000000000
FFF00000000000
7FF00000000000
7FF00000000000
7FF00000000000
7FF80000000000
7FF80000000000
3FFC0000000000
3FFC0000000000
1FFE0000000000
1FFF0000000000
1FFF0000000000
0FFF80000000C0
07FFE0000001E0
07FFF0000003F0
03FFF8000007F8
01FFFE00001FFC
01FFFF80007FFE
00FFFFF807FFFF
007FFFFFFFFFFF
003FFFFFFFFFFE
001FFFFFFFFFFC
000FFFFFFFFFF8
0003FFFFFFFFF0
0001FFFFFFFFC0
00007FFFFFFF80
00001FFFFFFE00
000003FFFFF000
0000007FFF8000
ENDCHAR
STARTCHAR 0064
ENCODING 100
SWIDTH 663 0
DWIDTH 59 0
BBX 52 62 5 0
BITMAP
FFFFFFE0000000
FFFFFFFE000000
FFFFFFFFC00000
FFFFFFFFF00000
FFFFFFFFFC0000
FFFFFFFFFE0000
FFFFFFFFFF8000
FFFFFFFFFFC000
FFFFFFFFFFE000
FFFFFFFFFFF000
FFE001FFFFF800
FFE0001FFFFC00
FFE00003FFFC00
FFE00000FFFE00
FFE000007FFF00
FFE000003FFF00
FFE000000FFF80
FFE000000FFF80
FFE0000007FFC0
FFE0000003FFC0
FFE0000003FFC0
FFE0000001FFC0
FFE0000001FFE0
FFE0000000FFE0
FFE0000000FFE0
FFE0000000FFE0
FFE0000000FFE0
FFE0000000FFF0
FFE0000000FFF0
FFE00000007FF0
FFE00000007FF0
FFE00000007FF0
FFE00000007FF0
FFE0000000FFF0
FFE0000000FFF0
FFE0000000FFE0
FFE0000000FFE0
FFE0000000FFE0
FFE0000001FFE0
FFE0000001FFE0
FFE0000001FFC0
FFE0000003FFC0
FFE0000003FFC0
FFE0000007FF80
FFE000000FFF80
FFE000001FFF80
FFE000003FFF00
FFE000007FFF00
FFE00001FFFE00
FFE00007FFFC00
FFE0003FFFFC00
FFE01FFFFFF800
FFFFFFFFFFF000
FFFFFFFFFFE000
FFFFFFFFFFC000
FFFFFFFFFF0000
FFFFFFFFFE0000
FFFFFFFFF80000
FFFFFFFFE00000
FFFFFFFF800000
FFFFFFFC000000
FFFFFF80000000
ENDCHAR
STARTCHAR 0065
ENCODING 101
SWIDTH 506 0
DWIDTH 45 0
BBX 43 62 2 0
BITMAP
03FFFFFF0000
03FFFFFF0000
03FFFFFF0000
03FFFFFF0000
03FFFFFF0000
03FFFFFF0000
03FFFFFF0000
03FFFFFF0000
03FFFFFF0000
03FFFFFF0000
03FF80000000
03FF80000000
03FF80000000
03FF80000000
03FF80000000
03FF80000000
03FF80000000
03FF80000000
03FF80000000
03FF80000000
03FF80000000
03FF80000000
03FF80000000
03FF80000000
03FF80000000
03FF80000000
FFFFFFFFF000
FFFFFFFFF000
FFFFFFFFF000
FFFFFFFFF000
FFFFFFFFF000
FFFFFFFFF000
FFFFFFFFF000
FFFFFFFFF000
FFFFFFFFF000
FFFFFFFFF000
03FF80000000
03FF80000000
03FF80000000
03FF80000000
03FF80000000
03FF80000000
03FF80000000
03FF80000000
03FF80000000
03FF80000000
03FF80000000
03FF80000000
03FF80000000
03FF80000000
03FF80000000
03FF80000000
03FFFFFFFFE0
03FFFFFFFFE0
03FFFFFFFFE0
03FFFFFFFFE0
03FFFFFFFFE0
03FFFFFFFFE0
03FFFFFFFFE0
03FFFFFFFFE0
03FFFFFFFFE0
03FFFFFFFFE0
ENDCHAR
STARTCHAR 0066
ENCODING 102
SWIDTH 472 0
DWIDTH 42 0
BBX 40 62 2 0
BITMAP
01FFFFFFFF
01FFFFFFFF
01FFFFFFFF
01FFFFFFFF
01FFFFFFFF
01FFFFFFFF
01FFFFFFFF
01FFFFFFFF
01FFFFFFFF
01FFFFFFFF
01FFC00000
01FFC00000
01FFC00000
01FFC00000
01FFC00000
01FFC00000
01FFC00000
01FFC00000
01FFC00000
01FFC00000
01FFC00000
01FFC00000
01FFC00000
01FFC00000
01FFC00000
01FFC00000
01FFC00000
01FFC00000
FFFFFFFFFC
FFFFFFFFFC
FFFFFFFFFC
FFFFFFFFFC
FFFFFFFFFC
FFFFFFFFFC
FFFFFFFFFC
FFFFFFFFFC
FFFFFFFFFC
01FFC00000
01FFC00000
01FFC00000
01FFC00000
01FFC00000
01FFC00000
01FFC00000
01FFC00000
01FFC00000
01FFC00000
01FFC00000
01FFC00000
01FFC00000
01FFC00000
01FFC00000
01FFC00000
01FFC00000
01FFC00000
01FFC00000
01FFC00000
01FFC00000
01FFC00000
01FFC00000
01FFC00000
01FFC00000
ENDCHAR
STARTCHAR 0067
ENCODING 103
SWIDTH 832 0
DWIDTH 74 0
BBX 70 65 3 -1
BITMAP
00000001F000000000
0000007FFFC0000000
000007FFFFF8000000
00001FFFFFFF000000
00007FFFFFFF800000
0001FFFFFFFFE00000
0003FFFFFFFFF80000
000FFFFFFFFFFC0000
001FFFFFFFFFFE0000
003FFFFFFFFFFF0000
007FFFFFFFFFFF8000
00FFFFE001FFFF8000
01FFFF80003FFE0000
03FFFC00000FFC0000
03FFF8000007F80000
07FFE0000001F00000
0FFFC0000000E00000
0FFF80000000400000
1FFF00000000000000
1FFE00000000000000
3FFE00000000000000
3FFC00000000000000
3FFC00000000000000
7FF800000000000000
7FF800000000000000
7FF000000000000000
7FF000000000000000
FFF000000000000000
FFF00001FFFFFFFFFC
FFE00001FFFFFFFFFC
FFE00001FFFFFFFFFC
FFE00001FFFFFFFFFC
FFE00001FFFFFFFFFC
FFE00001FFFFFFFFFC
FFE00001FFFFFFFFFC
FFE00001FFFFFFFFFC
FFE00001FFFFFFFFFC
FFF00001FFFFFFFFFC
7FF00000000007FF80
7FF00000000007FF80
7FF00000000007FF80
7FF8000000000FFF00
7FF8000000000FFF00
3FFC000000000FFF00
3FFC000000001FFE00
1FFE000000003FFE00
1FFF000000003FFE00
1FFF800000007FFC00
0FFF80000000FFFC00
07FFC0000001FFF800
07FFF0000003FFF800
03FFF8000007FFF000
01FFFE00001FFFE000
01FFFF80007FFFE000
00FFFFF803FFFFC000
007FFFFFFFFFFF8000
003FFFFFFFFFFF0000
001FFFFFFFFFFE0000
0007FFFFFFFFFC0000
0003FFFFFFFFF00000
0000FFFFFFFFE00000
00007FFFFFFF800000
00001FFFFFFE000000
000003FFFFF8000000
0000003FFF80000000
ENDCHAR
STARTCHAR 0068
ENCODING 104
SWIDTH 573 0
DWIDTH 51 0
BBX 44 62 2 0
BITMAP
03FF80007FF0
03FF80007FF0
03FF80007FF0
03FF80007FF0
03FF80007FF0
03FF80007FF0
03FF80007FF0
03FF80007FF0
03FF80007FF0
03FF80007FF0
03FF80007FF0
03FF80007FF0
03FF80007FF0
03FF80007FF0
03FF80007FF0
03FF80007FF0
03FF80007FF0
03FF80007FF0
03FF80007FF0
03FF80007FF0
03FF80007FF0
03FF80007FF0
03FF80007FF0
03FF80007FF0
03FF80007FF0
03FF80007FF0
FFFFFFFFFFF0
FFFFFFFFFFF0
FFFFFFFFFFF0
FFFFFFFFFFF0
FFFFFFFFFFF0
FFFFFFFFFFF0
FFFFFFFFFFF0
FFFFFFFFFFF0
FFFFFFFFFFF0
FFFFFFFFFFF0
FFFFFFFFFFF0
03FF80007FF0
03FF80007FF0
03FF80007FF0
03FF80007FF0
03FF80007FF0
03FF80007FF0
03FF80007FF0
03FF80007FF0
03FF80007FF0
03FF80007FF0
03FF80007FF0
03FF80007FF0
03FF80007FF0
03FF80007FF0
03FF80007FF0
03FF80007FF0
03FF80007FF0
03FF80007FF0
03FF80007FF0
03FF80007FF0
03FF80007FF0
03FF80007FF0
03FF80007FF0
03FF80007FF0
03FF80007FF0
ENDCHAR
STARTCHAR 0069
ENCODING 105
SWIDTH 225 0
DWIDTH 20 0
BBX 24 71 -2 0
BITMAP
001000
001800
001800
003800
003C00
003C00
007E00
007E00
01FF80
FFFFFF
7FFFFE
3FFFFC
1FFFF8
07FFE0
03FFC0
03FFC0
03FFC0
03FFC0
07FFC0
07E7E0
07C3E0
0700E0
0E0070
080010
000000
000000
000000
000000
000000
000000
000000
000000
000000
03FFC0
03FFC0
03FFC0
03FFC0
03FFC0
03FFC0
03FFC0
03FFC0
03FFC0
03FFC0
03FFC0
03FFC0
03FFC0
03FFC0
03FFC0
03FFC0
03FFC0
03FFC0
03FFC0
03FFC0
03FFC0
03FFC0
03FFC0
03FFC0
03FFC0
03FFC0
03FFC0
03FFC0
03FFC0
03FFC0
03FFC0
03FFC0
03FFC0
03FFC0
03FFC0
03FFC0
03FFC0
03FFC0
ENDCHAR
STARTCHAR 006A
ENCODING 106
SWIDTH 472 0
DWIDTH 42 0
BBX 37 63 1 -1
BITMAP
00001FFFF8
00001FFFF8
00001FFFF8
00001FFFF8
00001FFFF8
00001FFFF8
00001FFFF8
00001FFFF8
00001FFFF8
00001FFFF8
0000003FF8
0000003FF8
0000003FF8
0000003FF8
0000003FF8
0000003FF8
0000003FF8
0000003FF8
0000003FF8
0000003FF8
0000003FF8
0000003FF8
0000003FF8
0000003FF8
0000003FF8
0000003FF8
0000003FF8
0000003FF8
0000003FF8
0000003FF8
0000003FF8
0000003FF8
0000003FF8
0000003FF8
0000003FF8
0000003FF8
0000003FF8
0000003FF8
0000003FF8
0000003FF8
0000003FF8
0000003FF8
0000003FF8
0000003FF8
0000003FF8
0000007FF8
0000007FF0
00C0007FF0
01E000FFF0
07E000FFF0
1FF001FFF0
3FF803FFE0
FFFE0FFFE0
7FFFFFFFC0
7FFFFFFFC0
3FFFFFFF80
1FFFFFFF80
0FFFFFFF00
0FFFFFFE00
03FFFFFC00
01FFFFF000
007FFFE000
000FFF0000
ENDCHAR
STARTCHAR 006B
ENCODING 107
SWIDTH 562 0
DWIDTH 50 0
BBX 44 62 2 0
BITMAP
03FF8007FF00
03FF8007FF00
03FF8007FF00
03FF8007FF00
03FF8007FF00
03FF8007FF00
03FF8007FF00
03FF8007FF00
03FF8007FF00
03FF8007FF00
03FF8007FF00
03FF8007FF00
03FF8007FF00
03FF8007FF00
03FF8007FF00
03FF8007FF00
03FF8007FF00
03FF8007FF00
03FF8007FF00
03FF800FFF00
03FF800FFF00
03FF801FFE00
03FF801FFE00
03FF803FFE00
03FF80FFFC00
FFFFFFFFFC00
FFFFFFFFF800
FFFFFFFFF800
FFFFFFFFF000
FFFFFFFFFC00
FFFFFFFFFE00
FFFFFFFFFE00
FFFFFFFFFF00
FFFFFFFFFF80
FFFFFFFFFF80
03FF801FFFC0
03FF8007FFC0
03FF8003FFE0
03FF8001FFE0
03FF8000FFE0
03FF8000FFE0
03FF8000FFF0
03FF8000FFF0
03FF80007FF0
03FF80007FF0
03FF80007FF0
03FF80007FF0
03FF80007FF0
03FF80007FF0
03FF80007FF0
03FF80007FF0
03FF80007FF0
03FF80007FF0
03FF80007FF0
03FF80007FF0
03FF80007FF0
03FF80007FF0
03FF80007FF0
03FF80007FF0
03FF80007FF0
03FF80007FF0
03FF80007FF0
ENDCHAR
STARTCHAR 006C
ENCODING 108
SWIDTH 450 0
DWIDTH 40 0
BBX 33 62 5 0
BITMAP
FFE0000000
FFE0000000
FFE0000000
FFE0000000
FFE0000000
FFE0000000
FFE0000000
FFE0000000
FFE0000000
FFE0000000
FFE0000000
FFE0000000
FFE0000000
FFE0000000
FFE0000000
FFE0000000
FFE0000000
FFE0000000
FFE0000000
FFE0000000
FFE0000000
FFE0000000
FFE0000000
FFE0000000
FFE0000000
FFE0000000
FFE0000000
FFE0000000
FFE0000000
FFE0000000
FFE0000000
FFE0000000
FFE0000000
FFE0000000
FFE0000000
FFE0000000
FFE0000000
FFE0000000
FFE0000000
FFE0000000
FFE0000000
FFE0000000
FFE0000000
FFE0000000
FFE0000000
FFE0000000
FFE0000000
FFE0000000
FFE0000000
FFE0000000
FFE0000000
FFE0000000
FFFFFFFF80
FFFFFFFF80
FFFFFFFF80
FFFFFFFF80
FFFFFFFF80
FFFFFFFF80
FFFFFFFF80
FFFFFFFF80
FFFFFFFF80
FFFFFFFF80
ENDCHAR
STARTCHAR 006D
ENCODING 109
SWIDTH 877 0
DWIDTH 78 0
BBX 73 64 1 0
BITMAP
01000000000000000000
03800000380000000000
07C000003E000007FF80
0FF000003F000007FF80
0FF800003F800007FF80
1FFC00003FC00007FF80
3FFE00003FF00007FF80
7FFF80003FF80007FF80
FFFFC0003FFC0007FF80
7FFFE0003FFF0007FF80
1FFFF8003FFF8007FF80
0FFFFC003FFFC007FF80
07FFFE003FFFE007FF80
03FFFF003FFFF807FF80
03FFFFC03FFFFC07FF80
03FFFFE03FFFFE07FF80
03FFFFF03FFFFF87FF80
03FFFFF83FFFFFC7FF80
03FFFFFE3FFFFFE7FF80
03FFFFFF3FFFFFF7FF80
03FFFFFFBFFFFFFFFF80
03FFBFFFFFFBFFFFFF80
03FF9FFFFFF8FFFFFF80
03FF87FFFFF87FFFFF80
03FF83FFFFF83FFFFF80
03FF81FFFFF81FFFFF80
03FF80FFFFF807FFFF80
03FF803FFFF803FFFF80
03FF801FFFF801FFFF80
03FF800FFFF800FFFF80
03FF8003FFF8003FFF80
03FF8001FFF8001FFF80
03FF8000FFF8000FFF80
03FF80007FF80007FF80
03FF80003FF80007FF80
03FF80003FF80007FF80
03FF80003FF80007FF80
03FF80003FF80007FF80
03FF80003FF80007FF80
03FF80003FF80007FF80
03FF80003FF80007FF80
03FF80003FF80007FF80
03FF80003FF80007FF80
03FF80003FF80007FF80
03FF80003FF80007FF80
03FF80003FF80007FF80
03FF80003FF80007FF80
03FF80003FF80007FF80
03FF80003FF80007FF80
03FF80003FF80007FF80
03FF80003FF80007FF80
03FF80003FF80007FF80
03FF80003FF80007FF80
03FF80003FF80007FF80
03FF80003FF80007FF80
03FF80003FF80007FF80
03FF80003FF80007FF80
03FF80003FF80007FF80
03FF80003FF80007FF80
03FF80003FF80007FF80
03FF80003FF80007FF80
03FF80003FF80007FF80
03FF80003FF80007FF80
03FF80003FF80007FF80
ENDCHAR
STARTCHAR 006E
ENCODING 110
SWIDTH 551 0
DWIDTH 49 0
BBX 44 64 1 0
BITMAP
010000000000
038000000000
07C000007FF0
0FF000007FF0
0FF800007FF0
1FFC00007FF0
3FFE00007FF0
7FFF80007FF0
FFFFC0007FF0
7FFFE0007FF0
1FFFF8007FF0
0FFFFC007FF0
07FFFE007FF0
07FFFF007FF0
07FFFFC07FF0
07FFFFE07FF0
07FFFFF07FF0
07FFFFFC7FF0
07FFFFFE7FF0
07FFFFFF7FF0
07FFFFFFFFF0
07FF7FFFFFF0
07FF3FFFFFF0
07FF0FFFFFF0
07FF07FFFFF0
07FF03FFFFF0
07FF00FFFFF0
07FF007FFFF0
07FF003FFFF0
07FF001FFFF0
07FF0007FFF0
07FF0003FFF0
07FF0001FFF0
07FF0000FFF0
07FF00007FF0
07FF00007FF0
07FF00007FF0
07FF00007FF0
07FF00007FF0
07FF00007FF0
07FF00007FF0
07FF00007FF0
07FF00007FF0
07FF00007FF0
07FF00007FF0
07FF00007FF0
07FF00007FF0
07FF00007FF0
07FF00007FF0
07FF00007FF0
07FF00007FF0
07FF00007FF0
07FF00007FF0
07FF00007FF0
07FF00007FF0
07FF00007FF0
07FF00007FF0
07FF00007FF0
07FF00007FF0
07FF00007FF0
07FF00007FF0
07FF00007FF0
07FF00007FF0
07FF00007FF0
ENDCHAR
STARTCHAR 006F
ENCODING 111
SWIDTH 821 0
DWIDTH 73 0
BBX 67 65 3 -1
BITMAP
00000001F000000000
0000007FFFC0000000
000007FFFFFC000000
00001FFFFFFF000000
00007FFFFFFFC00000
0001FFFFFFFFF00000
0003FFFFFFFFF80000
000FFFFFFFFFFE0000
001FFFFFFFFFFF0000
003FFFFFFFFFFF8000
007FFFFFFFFFFFC000
00FFFFF001FFFFE000
01FFFF80001FFFF000
03FFFC000007FFF800
03FFF8000003FFF800
07FFE0000000FFFC00
0FFFC00000007FFE00
0FFF800000003FFE00
1FFF000000001FFF00
1FFF000000000FFF00
3FFE000000000FFF80
3FFC0000000007FF80
3FFC0000000007FF80
7FF80000000003FFC0
7FF80000000003FFC0
7FF00000000001FFC0
7FF00000000001FFC0
FFF00000000001FFE0
FFF00000000001FFE0
FFE00000000000FFE0
FFE00000000000FFE0
FFE00000000000FFE0
FFE00000000000FFE0
FFE00000000000FFE0
FFE00000000000FFE0
FFE00000000000FFE0
FFE00000000000FFE0
FFF00000000001FFE0
7FF00000000001FFC0
7FF00000000001FFC0
7FF00000000001FFC0
7FF80000000003FFC0
7FF80000000003FFC0
3FFC0000000007FF80
3FFC0000000007FF80
1FFE000000000FFF00
1FFF000000001FFF00
1FFF000000001FFF00
0FFF800000003FFE00
07FFC00000007FFC00
07FFF0000001FFFC00
03FFF8000003FFF800
01FFFE00000FFFF000
01FFFF80003FFFF000
00FFFFF803FFFFE000
007FFFFFFFFFFFC000
003FFFFFFFFFFF8000
001FFFFFFFFFFF0000
0007FFFFFFFFFE0000
0003FFFFFFFFF80000
0000FFFFFFFFF00000
00007FFFFFFFC00000
00001FFFFFFF000000
000003FFFFF8000000
0000003FFF80000000
ENDCHAR
STARTCHAR 0070
ENCODING 112
SWIDTH 562 0
DWIDTH 50 0
BBX 48 62 2 0
BITMAP
07FFFFFF0000
07FFFFFFE000
07FFFFFFFC00
07FFFFFFFE00
07FFFFFFFF80
07FFFFFFFFC0
07FFFFFFFFE0
07FFFFFFFFF0
07FFFFFFFFF8
07FFFFFFFFF8
07FF0007FFFC
07FF0000FFFC
07FF00003FFE
07FF00001FFE
07FF00001FFE
07FF00000FFE
07FF00000FFE
07FF00000FFE
07FF000007FF
07FF000007FF
07FF00000FFE
07FF00000FFE
07FF00000FFE
07FF00000FFE
07FF00001FFE
07FF00003FFE
07FF00007FFC
07FF0001FFFC
07FF000FFFF8
FFFFFFFFFFF8
FFFFFFFFFFF0
FFFFFFFFFFE0
FFFFFFFFFFC0
FFFFFFFFFF80
FFFFFFFFFF00
FFFFFFFFFE00
FFFFFFFFF800
FFFFFFFFC000
FFFFFFFC0000
07FF00000000
07FF00000000
07FF00000000
07FF00000000
07FF00000000
07FF00000000
07FF00000000
07FF00000000
07FF00000000
07FF00000000
07FF00000000
07FF00000000
07FF00000000
07FF00000000
07FF00000000
07FF00000000
07FF00000000
07FF00000000
07FF00000000
07FF00000000
07FF00000000
07FF00000000
07FF00000000
ENDCHAR
STARTCHAR 0071
ENCODING 113
SWIDTH 821 0
DWIDTH 73 0
BBX 67 66 3 -2
BITMAP
00000001F000000000
0000007FFFC0000000
000007FFFFFC000000
00001FFFFFFF000000
00007FFFFFFFC00000
0001FFFFFFFFF00000
0003FFFFFFFFF80000
000FFFFFFFFFFE0000
001FFFFFFFFFFF0000
003FFFFFFFFFFF8000
007FFFFFFFFFFFC000
00FFFFF001FFFFE000
01FFFF80001FFFF000
03FFFC000007FFF800
03FFF8000003FFF800
07FFE0000000FFFC00
0FFFC00000007FFE00
0FFF800000003FFE00
1FFF000000001FFF00
1FFF000000000FFF00
3FFE000000000FFF80
3FFC0000000007FF80
3FFC0000000007FF80
7FF80000000003FFC0
7FF80000000003FFC0
7FF00000000001FFC0
7FF00000000001FFC0
FFF00000000001FFE0
FFF00000000001FFE0
FFE00000000000FFE0
FFE00000000000FFE0
FFE00000000000FFE0
FFE00000000000FFE0
FFE00000000000FFE0
FFE00000000000FFE0
FFE00000000000FFE0
FFE00000000000FFE0
FFF00000000001FFE0
7FF00000000001FFC0
7FF00000000001FFC0
7FF00000000001FFC0
7FF80000000003FFC0
7FF80000000103FFC0
3FFC0000000387FF80
3FFC00000007C7FF80
1FFE0000000FEFFF00
1FFF0000001FFFFF00
1FFF0000003FFFFF00
0FFF8000007FFFFE00
07FFC00000FFFFFC00
07FFF00000FFFFFC00
03FFF800007FFFF800
01FFFE00003FFFF000
01FFFF80003FFFF000
00FFFFF803FFFFF000
007FFFFFFFFFFFF800
003FFFFFFFFFFFFC00
001FFFFFFFFFFFFE00
0007FFFFFFFFFFFF00
0003FFFFFFFFFFFE00
0000FFFFFFFFFFFC00
00007FFFFFFFDFF800
00001FFFFFFF0FF000
000003FFFFF807E000
0000003FFF8003C000
000000000000018000
ENDCHAR
STARTCHAR 0072
ENCODING 114
SWIDTH 607 0
DWIDTH 54 0
BBX 49 62 2 0
BITMAP
03FFFFFFC00000
03FFFFFFF80000
03FFFFFFFF0000
03FFFFFFFF8000
03FFFFFFFFE000
03FFFFFFFFF000
03FFFFFFFFF800
03FFFFFFFFFC00
03FFFFFFFFFC00
03FFFFFFFFFE00
03FF8001FFFE00
03FF80003FFF00
03FF80001FFF00
03FF80000FFF00
03FF800007FF80
03FF800003FF80
03FF800003FF80
03FF800003FF80
03FF800003FF80
03FF800003FF80
03FF800003FF80
03FF800003FF80
03FF800007FF80
03FF800007FF00
03FF80000FFF00
03FF80001FFF00
03FF80003FFF00
03FF8001FFFE00
FFFFFFFFFFFE00
FFFFFFFFFFFC00
FFFFFFFFFFF800
FFFFFFFFFFF000
FFFFFFFFFFE000
FFFFFFFFFFC000
FFFFFFFFFF8000
FFFFFFFFFF8000
FFFFFFFFFFC000
FFFFFFFFFFE000
03FF800FFFE000
03FF8003FFF000
03FF8000FFF000
03FF80007FF800
03FF80007FF800
03FF80003FF800
03FF80003FFC00
03FF80001FFC00
03FF80001FFC00
03FF80001FFC00
03FF80001FFC00
03FF80001FFC00
03FF80001FFE00
03FF80001FFE00
03FF80001FFE00
03FF80001FFE00
03FF80001FFE00
03FF80001FFE00
03FF80001FFE00
03FF80001FFE00
03FF80001FFE00
03FF80001FFE00
03FF80001FFE00
03FF80001FFE00
ENDCHAR
STARTCHAR 0073
ENCODING 115
SWIDTH 506 0
DWIDTH 45 0
BBX 40 65 3 -1
BITMAP
0000FC0000
000FFFE000
003FFFF800
00FFFFFE00
01FFFFFF00
03FFFFFF80
07FFFFFFC0
07FFFFFFE0
0FFFFFFFF0
1FFFFFFFF0
1FFFFFFFF8
1FFF81FFF8
3FFE007FFC
3FFC003FFC
3FFC003FFC
3FF8001FFC
3FF8001FF0
3FF8000F80
3FFC000C00
3FFC000000
1FFE000000
1FFE000000
1FFF800000
0FFFC00000
0FFFE00000
07FFF80000
03FFFC0000
03FFFF0000
01FFFFC000
00FFFFE000
003FFFF800
001FFFFC00
000FFFFF00
0003FFFF80
0001FFFFC0
00007FFFE0
00001FFFF0
00000FFFF0
000003FFF8
000001FFFC
000000FFFC
0000007FFE
0000003FFE
0000001FFE
0000000FFE
0000000FFE
01E0000FFF
0FE0000FFF
7FE0000FFF
FFF0000FFE
FFF0000FFE
FFF8001FFE
7FFC003FFE
7FFE007FFE
3FFFC1FFFC
3FFFFFFFFC
1FFFFFFFF8
0FFFFFFFF8
0FFFFFFFF0
07FFFFFFE0
03FFFFFFC0
00FFFFFF80
007FFFFE00
001FFFFC00
0003FFE000
ENDCHAR
STARTCHAR 0074
ENCODING 116
SWIDTH 517 0
DWIDTH 46 0
BBX 42 62 2 0
BITMAP
FFFFFFFFFFC0
FFFFFFFFFFC0
FFFFFFFFFFC0
FFFFFFFFFFC0
FFFFFFFFFFC0
FFFFFFFFFFC0
FFFFFFFFFFC0
FFFFFFFFFFC0
FFFFFFFFFFC0
FFFFFFFFFFC0
0000FFE00000
0000FFE00000
0000FFE00000
0000FFE00000
0000FFE00000
0000FFE00000
0000FFE00000
0000FFE00000
0000FFE00000
0000FFE00000
0000FFE00000
0000FFE00000
0000FFE00000
0000FFE00000
0000FFE00000
0000FFE00000
0000FFE00000
0000FFE00000
0000FFE00000
0000FFE00000
0000FFE00000
0000FFE00000
0000FFE00000
0000FFE00000
0000FFE00000
0000FFE00000
0000FFE00000
0000FFE00000
0000FFE00000
0000FFE00000
0000FFE00000
0000FFE00000
0000FFE00000
0000FFE00000
0000FFE00000
0000FFE00000
0000FFE00000
0000FFE00000
0000FFE00000
0000FFE00000
0000FFE00000
0000FFE00000
0000FFE00000
0000FFE00000
0000FFE00000
0000FFE00000
0000FFE00000
0000FFE00000
0000FFE00000
0000FFE00000
0000FFE00000
0000FFE00000
ENDCHAR
STARTCHAR 0075
ENCODING 117
SWIDTH 528 0
DWIDTH 47 0
BBX 39 63 4 -1
BITMAP
FFE0000FFE
FFE0000FFE
FFE0000FFE
FFE0000FFE
FFE0000FFE
FFE0000FFE
FFE0000FFE
FFE0000FFE
FFE0000FFE
FFE0000FFE
FFE0000FFE
FFE0000FFE
FFE0000FFE
FFE0000FFE
FFE0000FFE
FFE0000FFE
FFE0000FFE
FFE0000FFE
FFE0000FFE
FFE0000FFE
FFE0000FFE
FFE0000FFE
FFE0000FFE
FFE0000FFE
FFE0000FFE
FFE0000FFE
FFE0000FFE
FFE0000FFE
FFE0000FFE
FFE0000FFE
FFE0000FFE
FFE0000FFE
FFE0000FFE
FFE0000FFE
FFE0000FFE
FFE0000FFE
FFE0000FFE
FFE0000FFE
FFE0000FFE
FFE0000FFE
FFE0000FFE
FFE0000FFE
FFE0000FFE
FFE0000FFE
FFE0000FFE
FFE0000FFE
FFF0001FFE
7FF0001FFC
7FF0001FFC
7FF8003FFC
7FFC007FFC
3FFE00FFF8
3FFF83FFF8
1FFFFFFFF0
1FFFFFFFF0
0FFFFFFFE0
07FFFFFFC0
07FFFFFFC0
03FFFFFF80
00FFFFFE00
007FFFFC00
001FFFF000
0003FF8000
ENDCHAR
STARTCHAR 0076
ENCODING 118
SWIDTH 483 0
DWIDTH 43 0
BBX 38 62 1 0
BITMAP
FFE0001FFC
FFE0001FFC
FFE0001FFC
FFE0001FFC
FFE0001FFC
FFE0001FFC
FFE0001FFC
FFE0001FFC
FFE0001FFC
FFE0001FFC
FFE0001FFC
FFE0001FFC
FFE0001FFC
FFE0001FFC
FFE0001FFC
FFE0001FFC
FFE0001FFC
FFE0001FFC
FFE0001FFC
FFE0001FFC
FFE0001FFC
FFE0001FFC
FFE0001FFC
FFE0001FFC
FFE0001FFC
FFE0001FFC
FFE0001FFC
FFE0001FFC
FFE0001FFC
FFE0001FFC
FFE0001FFC
FFE0001FFC
FFE0003FFC
FFF0003FFC
7FF0003FF8
7FF0003FF8
7FF0003FF8
7FF0003FF8
7FF0003FF8
7FF8007FF8
7FF8007FF8
3FF8007FF0
3FF8007FF0
3FFC00FFF0
3FFC00FFF0
1FFC00FFE0
1FFE01FFE0
1FFE01FFE0
0FFE01FFC0
0FFF03FFC0
07FF03FF80
07FF87FF80
03FFCFFF00
03FFCFFF00
01FFFFFE00
00FFFFFC00
00FFFFFC00
007FFFF800
003FFFF000
001FFFE000
000FFFC000
0007FFC000
ENDCHAR
STARTCHAR 0077
ENCODING 119
SWIDTH 787 0
DWIDTH 70 0
BBX 65 62 1 0
BITMAP
FFE0001FFC0003FF80
FFE0001FFC0003FF80
FFE0001FFC0003FF80
FFE0001FFC0003FF80
FFE0001FFC0003FF80
FFE0001FFC0003FF80
FFE0001FFC0003FF80
FFE0001FFC0003FF80
FFE0001FFC0003FF80
FFE0001FFC0003FF80
FFE0001FFC0003FF80
FFE0001FFC0003FF80
FFE0001FFC0003FF80
FFE0001FFC0003FF80
FFE0001FFC0003FF80
FFE0001FFC0003FF80
FFE0001FFC0003FF80
FFE0001FFC0003FF80
FFE0001FFC0003FF80
FFE0001FFC0003FF80
FFE0001FFC0003FF80
FFE0001FFC0003FF80
FFE0001FFC0003FF80
FFE0001FFC0003FF80
FFE0001FFC0003FF80
FFE0001FFC0003FF80
FFE0001FFC0003FF80
FFE0001FFC0003FF80
FFE0001FFC0007FF80
FFE0001FFC0007FF80
FFE0001FFC0007FF80
FFE0001FFC0007FF00
FFE0003FFC0007FF00
FFF0003FFC0007FF00
7FF0003FFC0007FF00
7FF0003FFE0007FF00
7FF0003FFE0007FF00
7FF0003FFE0007FF00
7FF0003FFE000FFF00
7FF8007FFE000FFE00
7FF8007FFE000FFE00
3FF8007FFF000FFE00
3FF8007FFF001FFE00
3FFC00FFFF001FFE00
3FFC00FFFF801FFC00
1FFC00FFFF803FFC00
1FFE01FFFF803FFC00
1FFE01FFFFC03FF800
0FFE01FFFFC07FF800
0FFF03FFFFE07FF800
07FF03FFFFE0FFF000
07FF87FFFFF0FFF000
03FFCFFF7FF1FFE000
03FFCFFF7FF9FFC000
01FFFFFE3FFFFFC000
00FFFFFC3FFFFF8000
00FFFFFC1FFFFF0000
007FFFF80FFFFF0000
003FFFF007FFFE0000
001FFFE007FFFC0000
000FFFC003FFF80000
0007FFC001FFF00000
ENDCHAR
STARTCHAR 0078
ENCODING 120
SWIDTH 528 0
DWIDTH 47 0
BBX 39 62 4 0
BITMAP
FFF0000FFE
FFF0000FFE
FFF0000FFE
FFF0000FFE
FFF0000FFE
FFF0000FFE
FFF0000FFE
FFF0000FFE
FFF0000FFE
FFF0000FFE
FFF0000FFE
FFF0000FFE
FFF0000FFE
7FF0000FFE
7FF0000FFE
7FF0000FFE
7FF0001FFE
7FF8001FFE
7FF8003FFC
3FFC003FFC
3FFE007FFC
1FFFC3FFF8
1FFFFFFFF8
0FFFFFFFF0
0FFFFFFFF0
07FFFFFFE0
03FFFFFFC0
03FFFFFFC0
07FFFFFFE0
0FFFFFFFF0
0FFFFFFFF0
1FFFFFFFF8
1FFFC3FFF8
3FFE007FFC
3FFC003FFC
7FF8003FFC
7FF8001FFE
7FF0001FFE
7FF0000FFE
7FF0000FFE
7FF0000FFE
FFF0000FFE
FFF0000FFE
FFF0000FFE
FFF0000FFE
FFF0000FFE
FFF0000FFE
FFF0000FFE
FFF0000FFE
FFF0000FFE
FFF0000FFE
FFF0000FFE
FFF0000FFE
FFF0000FFE
FFF0000FFE
FFF0000FFE
FFF0000FFE
FFF0000FFE
FFF0000FFE
FFF0000FFE
FFF0000FFE
FFF0000FFE
ENDCHAR
STARTCHAR 0079
ENCODING 121
SWIDTH 517 0
DWIDTH 46 0
BBX 39 62 4 0
BITMAP
FFE0001FFE
FFE0001FFE
FFE0001FFE
FFE0001FFE
FFE0001FFE
FFE0001FFE
FFE0001FFE
FFE0001FFE
FFE0001FFE
FFE0001FFE
FFE0001FFE
FFE0001FFE
FFE0001FFE
FFE0001FFE
FFE0001FFE
FFE0001FFE
FFE0001FFE
FFE0001FFE
FFE0001FFE
FFE0001FFE
FFE0001FFE
FFE0001FFE
FFE0001FFE
FFE0001FFE
FFE0001FFE
FFE0001FFE
FFE0001FFE
FFE0001FFE
FFE0001FFC
FFE0001FFC
FFE0001FFC
FFE0001FFC
FFF0003FFC
FFF0003FFC
7FF8007FF8
7FFC00FFF8
7FFE01FFF8
3FFFFFFFF0
3FFFFFFFF0
1FFFFFFFE0
0FFFFFFFC0
07FFFFFFC0
03FFFFFF80
01FFFFFF00
00FFFFFC00
003FFFF000
000FFFC000
0003FF8000
0003FF8000
0003FF8000
0003FF8000
0003FF8000
0003FF8000
0003FF8000
0003FF8000
0003FF8000
0003FF8000
0003FF8000
0003FF8000
0003FF8000
0003FF8000
0003FF8000
ENDCHAR
STARTCHAR 007A
ENCODING 122
SWIDTH 517 0
DWIDTH 46 0
BBX 43 62 2 0
BITMAP
7FFFFFFFFFE0
7FFFFFFFFFE0
7FFFFFFFFFE0
7FFFFFFFFFE0
7FFFFFFFFFE0
7FFFFFFFFFC0
7FFFFFFFFFC0
7FFFFFFFFF80
7FFFFFFFFF00
7FFFFFFFFF00
0000001FFE00
0000001FFE00
0000003FFC00
0000007FF800
0000007FF800
000000FFF000
000000FFF000
000001FFE000
000003FFC000
000003FFC000
000007FF8000
000007FF8000
00000FFF0000
00001FFF0000
00001FFE0000
00003FFC0000
00003FFC0000
00007FF80000
0000FFF80000
0000FFF00000
0001FFE00000
0001FFE00000
0003FFC00000
0007FFC00000
0007FF800000
000FFF000000
000FFF000000
001FFE000000
003FFE000000
003FFC000000
007FFC000000
007FF8000000
00FFF0000000
00FFF0000000
01FFE0000000
03FFE0000000
03FFC0000000
07FF80000000
07FF80000000
0FFF00000000
1FFF00000000
1FFE00000000
3FFFFFFFFF80
3FFFFFFFFF80
7FFFFFFFFF80
FFFFFFFFFF80
FFFFFFFFFF80
FFFFFFFFFF80
FFFFFFFFFF80
FFFFFFFFFF80
FFFFFFFFFF80
FFFFFFFFFF80
ENDCHAR
STARTCHAR 007B
ENCODING 123
SWIDTH 337 0
DWIDTH 30 0
BBX 21 86 5 -13
BITMAP
000FF8
003FF8
007FF8
00FFF8
00FFF8
01FFF8
01FFF8
01FF00
03FE00
03FC00
03FC00
03FC00
03FC00
03FC00
03FC00
03FC00
03FC00
03FC00
03FC00
03FC00
03FC00
03FC00
03FC00
03FC00
03FC00
03FC00
03FC00
03FC00
03FC00
03FC00
03FC00
03FC00
03FC00
03FC00
03FC00
07F800
0FF800
1FF800
7FF000
FFF000
FFE000
FFC000
FF8000
FFC000
FFC000
FFE000
FFF000
3FF000
0FF800
07F800
07F800
03FC00
03FC00
03FC00
03FC00
03FC00
03FC00
03FC00
03FC00
03FC00
03FC00
03FC00
03FC00
03FC00
03FC00
03FC00
03FC00
03FC00
03FC00
03FC00
03FC00
03FC00
03FC00
03FC00
03FC00
03FC00
03FC00
03FE00
01FF00
01FFF8
01FFF8
00FFF8
00FFF8
007FF8
003FF8
000FF8
ENDCHAR
STARTCHAR 007C
ENCODING 124
SWIDTH 168 0
DWIDTH 15 0
BBX 6 73 5 -10
BITMAP
FC
FC
FC
FC
FC
FC
FC
FC
FC
FC
FC
FC
FC
FC
FC
FC
FC
FC
FC
FC
FC
FC
FC
FC
FC
FC
FC
FC
FC
FC
FC
FC
FC
FC
FC
FC
FC
FC
FC
FC
FC
FC
FC
FC
FC
FC
FC
FC
FC
FC
FC
FC
FC
FC
FC
FC
FC
FC
FC
FC
FC
FC
FC
FC
FC
FC
FC
FC
FC
FC
FC
FC
FC
ENDCHAR
STARTCHAR 007D
ENCODING 125
SWIDTH 337 0
DWIDTH 30 0
BBX 21 86 5 -13
BITMAP
FF8000
FFE000
FFF000
FFF800
FFF800
FFFC00
FFFC00
07FC00
03FC00
01FE00
01FE00
01FE00
01FE00
01FE00
01FE00
01FE00
01FE00
01FE00
01FE00
01FE00
01FE00
01FE00
01FE00
01FE00
01FE00
01FE00
01FE00
01FE00
01FE00
01FE00
01FE00
01FE00
01FE00
01FE00
01FE00
01FF00
00FF00
00FF80
007FE0
007FF8
003FF8
001FF8
000FF8
001FF8
003FF8
003FF8
007FF8
007FE0
00FF80
00FF00
01FF00
01FE00
01FE00
01FE00
01FE00
01FE00
01FE00
01FE00
01FE00
01FE00
01FE00
01FE00
01FE00
01FE00
01FE00
01FE00
01FE00
01FE00
01FE00
01FE00
01FE00
01FE00
01FE00
01FE00
01FE00
01FE00
01FE00
03FC00
07FC00
FFFC00
FFFC00
FFF800
FFF000
FFF000
FFE000
FF8000
ENDCHAR
STARTCHAR 007E
ENCODING 126
SWIDTH 551 0
DWIDTH 49 0
BBX 39 12 5 23
BITMAP
03E0000000
7FFF800000
FFFFFC0002
FFFFFFF07E
FFFFFFFFFE
FFFFFFFFFE
FFFFFFFFFE
FFFFFFFFFE
FFFFFFFFFE
C001FFFFFE
00000FFFFC
0000007FE0
ENDCHAR
STARTCHAR 00A1
ENCODING 161
SWIDTH 270 0
DWIDTH 24 0
BBX 14 64 5 -10
BITMAP
0780
1FE0
3FF0
7FF8
FFFC
FFFC
FFFC
FFFC
FFFC
FFFC
7FFC
7FF8
3FF0
1FE0
0200
0000
0000
0000
0000
0000
0000
0000
0000
3FF0
3FF0
3FF0
3FF0
3FF0
3FF0
3FF0
3FF0
3FF0
3FF0
3FF0
3FF0
3FF0
3FF0
3FF0
3FF0
3FF0
3FF0
3FF0
3FF0
3FF0
3FF0
3FF0
3FF0
3FF0
3FF0
3FF0
3FF0
3FF0
3FF0
3FF0
3FF0
3FF0
3FF0
3FF0
3FF0
3FF0
3FF0
3FF0
3FF0
3FF0
ENDCHAR
STARTCHAR 00A2
ENCODING 162
SWIDTH 517 0
DWIDTH 46 0
BBX 37 55 5 4
BITMAP
0000FF0000
0000FF0000
0000FF0000
0000FF0000
0000FF0000
0000FF0000
0000FF0000
0001FFF000
000FFFFC00
003FFFFF00
007FFFFFC0
01FFFFFFE0
03FFFFFFF0
07FFFFFFF8
0FFFFFFFF0
0FFF807FE0
1FFE001FC0
3FFC000780
3FF0000300
7FF0000000
7FE0000000
7FC0000000
7FC0000000
FF80000000
FF80000000
FF80000000
FF80000000
FF80000000
FF80000000
FF80000000
FF80000000
FF80000000
FF80000000
7FC0000000
7FC0000000
7FE0000000
3FF0000000
3FF8000700
1FFC000F80
1FFF003FC0
0FFFC1FFE0
07FFFFFFF0
03FFFFFFF8
01FFFFFFF0
00FFFFFFE0
007FFFFF80
001FFFFF00
0007FFFC00
0000FFE000
0000FF0000
0000FF0000
0000FF0000
0000FF0000
0000FF0000
0000FF0000
ENDCHAR
STARTCHAR 00A3
ENCODING 163
SWIDTH 551 0
DWIDTH 49 0
BBX 40 63 5 0
BITMAP
000007FFF0
00003FFFFE
0000FFFFFF
0003FFFFFF
000FFFFFFF
001FFFFFFF
003FFFFFFF
007FFFFFFF
00FFFFFFFF
00FFFFFFFF
01FFFFE07F
01FFFE0007
03FFF80001
03FFF00000
03FFE00000
07FFC00000
07FF800000
07FF800000
07FF800000
07FF800000
07FF800000
07FF800000
07FF800000
07FF800000
03FF800000
03FF800000
03FFC00000
01FFC00000
FFFFFFFFE0
FFFFFFFFE0
FFFFFFFFE0
FFFFFFFFE0
FFFFFFFFE0
FFFFFFFFE0
FFFFFFFFE0
FFFFFFFFE0
003FF80000
003FF80000
003FFC0000
001FFC0000
001FFC0000
001FFC0000
001FFC0000
001FFC0000
001FFC0000
001FFC0000
001FFC0000
003FFC0000
003FFC0000
007FF80000
01FFF80000
07FFF00000
FFFFF00000
FFFFE00000
FFFFFFFFFF
FFFFFFFFFF
FFFFFFFFFF
FFFFFFFFFF
FFFFFFFFFF
FFFFFFFFFF
FFFFFFFFFF
FFFFFFFFFF
FFFFFFFFFF
ENDCHAR
STARTCHAR 00A4
ENCODING 164
SWIDTH 596 0
DWIDTH 53 0
BBX 43 43 5 7
BITMAP
040000000200
0E0000000700
1F0000000F80
3F807FC01FC0
7FC3FFF83FE0
FFEFFFFE7FE0
7FFFFFFFFFC0
3FFFFFFFFF80
1FFFFFFFFF00
0FFFFFFFFE00
07FFC03FFC00
03FF000FFC00
07FC0007FC00
07F80003FE00
0FF00001FE00
0FF00000FF00
0FE00000FF00
1FE000007F00
1FC000007F00
1FC000007F00
1FC000007F80
1FC000007F80
1FC000007F80
1FC000007F00
1FC000007F00
1FE000007F00
0FE00000FF00
0FF00000FF00
0FF00001FE00
07F80003FE00
07FC0007FC00
03FE000FFC00
03FFC03FFC00
07FFFFFFFE00
0FFFFFFFFF00
1FFFFFFFFF80
3FFFFFFFFFC0
7FEFFFFFFFE0
7FC3FFFC7FE0
3F807FE03FC0
1F0000001F80
0E0000000F00
040000000600
ENDCHAR
STARTCHAR 00A5
ENCODING 165
SWIDTH 663 0
DWIDTH 59 0
BBX 49 62 5 0
BITMAP
FFF800000FFF80
7FF800000FFF00
7FFC00001FFF00
3FFC00001FFE00
3FFE00001FFE00
1FFE00003FFC00
1FFF00003FFC00
0FFF00007FF800
0FFF80007FF800
07FF8000FFF000
07FFC000FFF000
03FFC001FFE000
03FFE001FFE000
01FFE003FFC000
01FFF003FFC000
00FFF007FF8000
00FFF807FF8000
007FF80FFF0000
007FFC0FFF0000
003FFC1FFE0000
003FFE1FFE0000
001FFE1FFC0000
001FFF3FFC0000
000FFF3FF80000
000FFFFFF80000
0007FFFFF00000
0007FFFFF00000
0003FFFFE00000
0003FFFFE00000
0001FFFFC00000
0001FFFFC00000
03FFFFFFFFC000
03FFFFFFFFC000
03FFFFFFFFC000
03FFFFFFFFC000
03FFFFFFFFC000
03FFFFFFFFC000
03FFFFFFFFC000
03FFFFFFFFC000
00001FFC000000
00001FFC000000
00001FFC000000
00001FFC000000
03FFFFFFFFC000
03FFFFFFFFC000
03FFFFFFFFC000
03FFFFFFFFC000
03FFFFFFFFC000
03FFFFFFFFC000
03FFFFFFFFC000
03FFFFFFFFC000
00001FFC000000
00001FFC000000
00001FFC000000
00001FFC000000
00001FFC000000
00001FFC000000
00001FFC000000
00001FFC000000
00001FFC000000
00001FFC000000
00001FFC000000
ENDCHAR
STARTCHAR 00A6
ENCODING 166
SWIDTH 168 0
DWIDTH 15 0
BBX 6 73 5 -10
BITMAP
FC
FC
FC
FC
FC
FC
FC
FC
FC
FC
FC
FC
FC
FC
FC
FC
FC
FC
FC
FC
FC
FC
FC
FC
FC
FC
FC
FC
00
00
00
00
00
00
00
00
00
00
00
00
00
00
00
00
00
FC
FC
FC
FC
FC
FC
FC
FC
FC
FC
FC
FC
FC
FC
FC
FC
FC
FC
FC
FC
FC
FC
FC
FC
FC
FC
FC
FC
ENDCHAR
STARTCHAR 00A7
ENCODING 167
SWIDTH 495 0
DWIDTH 44 0
BBX 32 73 6 -10
BITMAP
003FFC00
00FFFF00
03FFFFC0
07FFFFE0
0FFFFFF0
1FFFFFF8
1FFFFFFC
3FFFFFFC
3FFFFFFE
3FFF7FFE
7FF80FFF
7FF007FF
7FF003FF
7FF003FE
7FF003E0
3FF00100
3FF80000
3FFC0000
1FFE0000
1FFF0000
0FFFC000
07FFF000
03FFFC00
01FFFE00
007FFF80
00FFFFC0
03FFFFE0
0FFFFFF0
1FFFFFF8
3FFFFFFC
7FFFFFFE
7FF01FFE
FFE007FF
FFC003FF
FF8003FF
FF8001FF
FF8001FF
FF8001FF
FFC001FF
FFC003FF
FFE007FF
7FF80FFE
7FFFFFFE
3FFFFFFC
1FFFFFF8
0FFFFFF0
07FFFFC0
03FFFF00
00FFFE00
003FFF80
001FFFC0
0007FFE0
0003FFF0
0000FFF8
00007FF8
00001FFC
00001FFC
00800FFC
0FC00FFE
7FC00FFE
FFC00FFE
FFE00FFE
FFF01FFE
7FFEFFFC
7FFFFFFC
3FFFFFFC
3FFFFFF8
1FFFFFF8
0FFFFFF0
07FFFFE0
03FFFFC0
00FFFF00
003FFC00
ENDCHAR
STARTCHAR 00A8
ENCODING 168
SWIDTH 393 0
DWIDTH 35 0
BBX 36 15 0 66
BITMAP
0100000800
0FE0007F00
1FF801FFC0
3FFC01FFC0
7FFC03FFE0
7FFE03FFE0
FFFE07FFF0
FFFE07FFF0
FFFE07FFF0
7FFE03FFE0
7FFC03FFE0
3FFC03FFE0
3FF801FFC0
0FF000FF80
0380001C00
ENDCHAR
STARTCHAR 00A9
ENCODING 169
SWIDTH 843 0
DWIDTH 75 0
BBX 66 65 5 -2
BITMAP
00000007F800000000
000000FFFFC0000000
000007FFFFF8000000
00003FFFFFFF000000
0000FFFFFFFFC00000
0001FFFFFFFFE00000
0007FFC0007FF80000
000FFC00000FFC0000
001FF0000003FE0000
003FC0000000FF0000
007F800000007F8000
00FE000000003FC000
01FC000000000FE000
03F80000000007F000
07F00000000003F800
07E00000000003F800
0FE0000FFE0001FC00
0FC0007FFF8000FC00
1F8001FFFFE000FE00
1F8003FFFFF0007E00
3F0007FFFFF8007F00
3F000FFFFFFC003F00
7E001FFFFFF0003F00
7E001FF807E0001F80
7E003FE001C0001F80
7E007FC00080001F80
FC007F800000000F80
FC007F800000000FC0
FC00FF000000000FC0
FC00FF000000000FC0
FC00FE000000000FC0
FC00FE000000000FC0
FC00FE000000000FC0
FC00FE000000000FC0
FC00FE000000000FC0
FC00FF000000000FC0
FC00FF000000000FC0
FC00FF000000000FC0
FC007F800000000FC0
FC007F800000001F80
7E003FC000C0001F80
7E003FF003E0001F80
7E001FFC0FF0001F80
3F001FFFFFF8003F00
3F000FFFFFFC003F00
3F8007FFFFF8007F00
1F8003FFFFF0007E00
1FC000FFFFC000FE00
0FC0003FFF8000FC00
0FE00007FC0001FC00
07F00000000003F800
07F80000000007F000
03FC000000000FF000
01FE000000001FE000
00FF000000003FC000
007F800000007F8000
003FE0000001FF0000
001FF8000007FE0000
000FFE00001FFC0000
0007FFE001FFF80000
0001FFFFFFFFE00000
00007FFFFFFF800000
00001FFFFFFE000000
000007FFFFF8000000
000000FFFFC0000000
ENDCHAR
STARTCHAR 00AB
ENCODING 171
SWIDTH 596 0
DWIDTH 53 0
BBX 43 39 6 8
BITMAP
0003FF00FFE0
0007FE00FFC0
000FFC01FF80
000FFC03FF00
001FF807FF00
003FF007FE00
007FE00FFC00
007FE01FF800
00FFC03FF800
01FF803FF000
03FF007FE000
03FF00FFC000
07FE01FF8000
0FFC01FF8000
1FF803FF0000
1FF807FE0000
3FF00FFC0000
7FE00FFC0000
FFC01FF80000
FF803FF00000
FFC03FF80000
FFE01FF80000
7FE00FFC0000
3FF007FE0000
1FF807FF0000
1FFC03FF0000
0FFC01FF8000
07FE00FFC000
03FF00FFE000
03FF807FE000
01FFC03FF000
00FFC01FF800
007FE01FFC00
003FF00FFC00
003FF807FE00
001FF803FF00
000FFC01FF80
0007FE01FFC0
0007FF00FFC0
ENDCHAR
STARTCHAR 00AC
ENCODING 172
SWIDTH 562 0
DWIDTH 50 0
BBX 41 24 5 9
BITMAP
FFFFFFFFFF80
FFFFFFFFFF80
FFFFFFFFFF80
FFFFFFFFFF80
FFFFFFFFFF80
FFFFFFFFFF80
FFFFFFFFFF80
FFFFFFFFFF80
00000000FF80
00000000FF80
00000000FF80
00000000FF80
00000000FF80
00000000FF80
00000000FF80
00000000FF80
00000000FF80
00000000FF80
00000000FF80
00000000FF80
00000000FF80
00000000FF80
00000000FF80
00000000FF80
ENDCHAR
STARTCHAR 00AE
ENCODING 174
SWIDTH 506 0
DWIDTH 45 0
BBX 36 35 5 29
BITMAP
000FFE0000
003FFFC000
00FFFFF000
01FF9FF800
07F000FC00
0FC0007E00
0F80001F00
1F00000F80
3E0FF80780
3C0FFE03C0
780FFF03C0
780FFF81E0
780F0781E0
F00F0781E0
F00F0780E0
F00F0F80F0
F03FFF00F0
F03FFE00F0
F03FFE00F0
F00F3F00F0
F00F0F01E0
F00F0F01E0
780F0781E0
780F0783E0
7C0F0783C0
3C0F0787C0
3E00000F80
1F00000F80
0F80003F00
07E0007E00
03F801FC00
01FFFFF800
007FFFE000
001FFF8000
0003FC0000
ENDCHAR
STARTCHAR 00AF
ENCODING 175
SWIDTH 281 0
DWIDTH 25 0
BBX 25 9 0 69
BITMAP
FFFFFF80
FFFFFF80
FFFFFF80
FFFFFF80
FFFFFF80
FFFFFF80
FFFFFF80
FFFFFF80
FFFFFF80
ENDCHAR
STARTCHAR 00B0
ENCODING 176
SWIDTH 348 0
DWIDTH 31 0
BBX 21 21 5 42
BITMAP
03FE00
0FFF80
1FFFC0
3FFFE0
7F8FF0
7E03F0
FC01F8
F800F8
F800F8
F800F8
F800F8
F800F8
F800F8
FC01F8
7E03F0
7F07F0
3FFFE0
1FFFC0
0FFF80
03FE00
003000
ENDCHAR
STARTCHAR 00B1
ENCODING 177
SWIDTH 562 0
DWIDTH 50 0
BBX 41 39 5 8
BITMAP
0000FF800000
0000FF800000
0000FF800000
0000FF800000
0000FF800000
0000FF800000
0000FF800000
0000FF800000
0000FF800000
FFFFFFFFFF80
FFFFFFFFFF80
FFFFFFFFFF80
FFFFFFFFFF80
FFFFFFFFFF80
FFFFFFFFFF80
FFFFFFFFFF80
FFFFFFFFFF80
FFFFFFFFFF80
0000FF800000
0000FF800000
0000FF800000
0000FF800000
0000FF800000
0000FF800000
0000FF800000
0000FF800000
0000FF800000
000000000000
000000000000
000000000000
000000000000
FFFFFFFFFF80
FFFFFFFFFF80
FFFFFFFFFF80
FFFFFFFFFF80
FFFFFFFFFF80
FFFFFFFFFF80
FFFFFFFFFF80
FFFFFFFFFF80
ENDCHAR
STARTCHAR 00B4
ENCODING 180
SWIDTH 157 0
DWIDTH 14 0
BBX 14 12 0 67
BITMAP
03FC
07F8
07F8
0FF0
0FE0
1FC0
1FC0
3F80
3F00
7F00
7E00
FC00
ENDCHAR
STARTCHAR 00B6
ENCODING 182
SWIDTH 506 0
DWIDTH 45 0
BBX 36 73 5 -10
BITMAP
0001FF03F0
001FFF03F0
007FFF03F0
01FFFF03F0
03FFFF03F0
07FFFF03F0
0FFFFF03F0
1FFFFF03F0
1FFFFF03F0
3FFFFF03F0
7FFFFF03F0
7FFFFF03F0
7FFFFF03F0
FFFFFF03F0
FFFFFF03F0
FFFFFF03F0
FFFFFF03F0
FFFFFF03F0
FFFFFF03F0
FFFFFF03F0
FFFFFF03F0
FFFFFF03F0
FFFFFF03F0
7FFFFF03F0
7FFFFF03F0
3FFFFF03F0
3FFFFF03F0
1FFFFF03F0
1FFFFF03F0
0FFFFF03F0
07FFFF03F0
03FFFF03F0
00FFFF03F0
007FFF03F0
001FFF03F0
0001FF03F0
00003F03F0
00003F03F0
00003F03F0
00003F03F0
00003F03F0
00003F03F0
00003F03F0
00003F03F0
00003F03F0
00003F03F0
00003F03F0
00003F03F0
00003F03F0
00003F03F0
00003F03F0
00003F03F0
00003F03F0
00003F03F0
00003F03F0
00003F03F0
00003F03F0
00003F03F0
00003F03F0
00003F03F0
00003F03F0
00003F03F0
00003F03F0
00003F03F0
00003F03F0
00003F03F0
00003F03F0
00003F03F0
00003F03F0
00003F03F0
00003F03F0
00003F03F0
00003F03F0
ENDCHAR
STARTCHAR 00B7
ENCODING 183
SWIDTH 270 0
DWIDTH 24 0
BBX 14 14 5 17
BITMAP
0780
1FE0
3FF0
7FF8
FFFC
FFFC
FFFC
FFFC
FFFC
FFFC
7FFC
7FF8
3FF0
1FE0
ENDCHAR
STARTCHAR 00B8
ENCODING 184
SWIDTH 225 0
DWIDTH 20 0
BBX 20 20 0 -20
BITMAP
003F00
003E00
007E00
007E00
007F80
007FC0
003FE0
0007E0
0003F0
0003F0
0803F0
1C03F0
3E03F0
7F8FF0
FFFFE0
7FFFE0
3FFFC0
0FFF80
03FE00
003000
ENDCHAR
STARTCHAR 00BB
ENCODING 187
SWIDTH 596 0
DWIDTH 53 0
BBX 43 39 5 8
BITMAP
FFE01FF80000
7FE01FFC0000
3FF00FFE0000
3FF807FF0000
1FFC03FF0000
0FFC03FF8000
07FE01FFC000
07FF00FFC000
03FF807FE000
01FF803FF000
00FFC03FF800
00FFE01FF800
007FF00FFC00
003FF007FE00
001FF807FF00
001FFC03FF00
000FFC01FF80
0007FE00FFC0
0003FF00FFE0
0001FF807FE0
0001FF807FE0
0003FF00FFE0
0007FE00FFC0
000FFC01FF80
001FFC03FF00
001FF807FE00
003FF007FE00
007FE00FFC00
00FFC01FF800
00FFC03FF000
01FF803FF000
03FF007FE000
07FE00FFC000
07FE01FF8000
0FFC03FF0000
1FF803FF0000
3FF007FE0000
3FE00FFC0000
7FE01FF80000
ENDCHAR
STARTCHAR 00BF
ENCODING 191
SWIDTH 438 0
DWIDTH 39 0
BBX 30 64 5 -10
BITMAP
0007F000
000FFC00
001FFE00
003FFE00
003FFF00
003FFF00
007FFF00
003FFF00
003FFF00
003FFE00
001FFE00
001FFC00
000FF800
0001C000
00000000
00000000
00000000
00000000
00000000
00000000
00000000
000FF800
000FF800
000FF800
000FF800
000FF800
001FF800
001FF800
001FF800
001FF800
003FF000
003FF000
007FF000
007FE000
00FFE000
00FFC000
01FFC000
03FF8000
07FF0000
07FF0000
0FFE0000
1FFC0000
1FF80000
3FF80000
3FF00000
7FE00000
7FE00000
FFC00000
FFC00000
FFC00600
FFC007C0
FFC00FF0
FFE00FFC
FFE01FF8
FFF87FF8
7FFFFFF8
7FFFFFF0
3FFFFFF0
3FFFFFE0
1FFFFFC0
0FFFFF80
07FFFF00
01FFFC00
003FE000
ENDCHAR
STARTCHAR 00C0
ENCODING 192
SWIDTH 562 0
DWIDTH 50 0
BBX 45 79 4 0
BITMAP
003FE0000000
001FE0000000
000FF0000000
0007F0000000
0007F8000000
0003F8000000
0001FC000000
0001FC000000
0000FE000000
00007E000000
00003F000000
00003F000000
000000000000
000000000000
000000000000
000038000000
0007FFE00000
001FFFF80000
007FFFFE0000
00FFFFFF0000
01FFFFFF8000
03FFFFFFC000
07FFFFFFE000
0FFFFFFFF000
1FFFFFFFF000
1FFFFFFFF800
3FFF01FFF800
3FFE007FFC00
3FFC003FFC00
7FF8001FFE00
7FF8001FFE00
7FF0000FFE00
7FF0000FFE00
7FF0000FFE00
7FF0000FFE00
FFF0000FFE00
FFF0000FFE00
FFF0000FFE00
FFF0000FFE00
FFF0000FFE00
FFF0000FFE00
FFF0000FFE00
FFF0000FFE00
FFF0000FFE00
FFF0000FFE00
FFF0000FFE00
FFF0000FFE00
FFF0000FFE00
FFF0000FFE00
FFF0000FFE00
FFF0000FFE00
FFF0000FFE00
FFF0000FFE00
FFF0000FFE00
FFF0000FFE00
FFF0000FFE00
FFF0000FFE00
FFF0000FFE00
FFF0000FFE00
FFF0000FFE00
FFF0000FFE00
FFF0000FFE00
FFF0000FFE00
FFF0000FFE00
FFF0000FFE00
FFF0000FFE00
FFF0000FFE00
FFF0000FFE00
FFF0000FFE00
FFFFFFFFFFF8
FFFFFFFFFFF8
FFFFFFFFFFF8
FFFFFFFFFFF8
FFFFFFFFFFF8
FFFFFFFFFFF8
FFFFFFFFFFF8
FFFFFFFFFFF8
FFFFFFFFFFF8
FFFFFFFFFFF8
ENDCHAR
STARTCHAR 00C1
ENCODING 193
SWIDTH 562 0
DWIDTH 50 0
BBX 45 79 4 0
BITMAP
000007FC0000
000007F80000
00000FF00000
00000FF00000
00001FE00000
00001FC00000
00003F800000
00003F800000
00007F000000
00007E000000
0000FE000000
0000FC000000
000000000000
000000000000
000000000000
000038000000
0007FFE00000
001FFFF80000
007FFFFE0000
00FFFFFF0000
01FFFFFF8000
03FFFFFFC000
07FFFFFFE000
0FFFFFFFF000
1FFFFFFFF000
1FFFFFFFF800
3FFF01FFF800
3FFE007FFC00
3FFC003FFC00
7FF8001FFE00
7FF8001FFE00
7FF0000FFE00
7FF0000FFE00
7FF0000FFE00
7FF0000FFE00
FFF0000FFE00
FFF0000FFE00
FFF0000FFE00
FFF0000FFE00
FFF0000FFE00
FFF0000FFE00
FFF0000FFE00
FFF0000FFE00
FFF0000FFE00
FFF0000FFE00
FFF0000FFE00
FFF0000FFE00
FFF0000FFE00
FFF0000FFE00
FFF0000FFE00
FFF0000FFE00
FFF0000FFE00
FFF0000FFE00
FFF0000FFE00
FFF0000FFE00
FFF0000FFE00
FFF0000FFE00
FFF0000FFE00
FFF0000FFE00
FFF0000FFE00
FFF0000FFE00
FFF0000FFE00
FFF0000FFE00
FFF0000FFE00
FFF0000FFE00
FFF0000FFE00
FFF0000FFE00
FFF0000FFE00
FFF0000FFE00
FFFFFFFFFFF8
FFFFFFFFFFF8
FFFFFFFFFFF8
FFFFFFFFFFF8
FFFFFFFFFFF8
FFFFFFFFFFF8
FFFFFFFFFFF8
FFFFFFFFFFF8
FFFFFFFFFFF8
FFFFFFFFFFF8
ENDCHAR
STARTCHAR 00C2
ENCODING 194
SWIDTH 562 0
DWIDTH 50 0
BBX 45 79 4 0
BITMAP
0003FFC00000
0007FFE00000
000FFFF00000
001FFFF00000
001FFFF80000
003FE7FC0000
007FC7FE0000
007FC3FE0000
00FF81FF0000
01FF00FF8000
03FE007FC000
03FE007FC000
000000000000
000000000000
000000000000
000038000000
0007FFE00000
001FFFF80000
007FFFFE0000
00FFFFFF0000
01FFFFFF8000
03FFFFFFC000
07FFFFFFE000
0FFFFFFFF000
1FFFFFFFF000
1FFFFFFFF800
3FFF01FFF800
3FFE007FFC00
3FFC003FFC00
7FF8001FFE00
7FF8001FFE00
7FF0000FFE00
7FF0000FFE00
7FF0000FFE00
7FF0000FFE00
FFF0000FFE00
FFF0000FFE00
FFF0000FFE00
FFF0000FFE00
FFF0000FFE00
FFF0000FFE00
FFF0000FFE00
FFF0000FFE00
FFF0000FFE00
FFF0000FFE00
FFF0000FFE00
FFF0000FFE00
FFF0000FFE00
FFF0000FFE00
FFF0000FFE00
FFF0000FFE00
FFF0000FFE00
FFF0000FFE00
FFF0000FFE00
FFF0000FFE00
FFF0000FFE00
FFF0000FFE00
FFF0000FFE00
FFF0000FFE00
FFF0000FFE00
FFF0000FFE00
FFF0000FFE00
FFF0000FFE00
FFF0000FFE00
FFF0000FFE00
FFF0000FFE00
FFF0000FFE00
FFF0000FFE00
FFF0000FFE00
FFFFFFFFFFF8
FFFFFFFFFFF8
FFFFFFFFFFF8
FFFFFFFFFFF8
FFFFFFFFFFF8
FFFFFFFFFFF8
FFFFFFFFFFF8
FFFFFFFFFFF8
FFFFFFFFFFF8
FFFFFFFFFFF8
ENDCHAR
STARTCHAR 00C3
ENCODING 195
SWIDTH 562 0
DWIDTH 50 0
BBX 45 79 4 0
BITMAP
003FC0000000
00FFF8180000
00FFFFF80000
00FFFFF80000
00FFFFF80000
00FFFFF80000
00FFFFF80000
00803FF80000
000003800000
000000000000
000000000000
000000000000
000000000000
000000000000
000000000000
000038000000
0007FFE00000
001FFFF80000
007FFFFE0000
00FFFFFF0000
01FFFFFF8000
03FFFFFFC000
07FFFFFFE000
0FFFFFFFF000
1FFFFFFFF000
1FFFFFFFF800
3FFF01FFF800
3FFE007FFC00
3FFC003FFC00
7FF8001FFE00
7FF8001FFE00
7FF0000FFE00
7FF0000FFE00
7FF0000FFE00
7FF0000FFE00
FFF0000FFE00
FFF0000FFE00
FFF0000FFE00
FFF0000FFE00
FFF0000FFE00
FFF0000FFE00
FFF0000FFE00
FFF0000FFE00
FFF0000FFE00
FFF0000FFE00
FFF0000FFE00
FFF0000FFE00
FFF0000FFE00
FFF0000FFE00
FFF0000FFE00
FFF0000FFE00
FFF0000FFE00
FFF0000FFE00
FFF0000FFE00
FFF0000FFE00
FFF0000FFE00
FFF0000FFE00
FFF0000FFE00
FFF0000FFE00
FFF0000FFE00
FFF0000FFE00
FFF0000FFE00
FFF0000FFE00
FFF0000FFE00
FFF0000FFE00
FFF0000FFE00
FFF0000FFE00
FFF0000FFE00
FFF0000FFE00
FFFFFFFFFFF8
FFFFFFFFFFF8
FFFFFFFFFFF8
FFFFFFFFFFF8
FFFFFFFFFFF8
FFFFFFFFFFF8
FFFFFFFFFFF8
FFFFFFFFFFF8
FFFFFFFFFFF8
FFFFFFFFFFF8
ENDCHAR
STARTCHAR 00C4
ENCODING 196
SWIDTH 562 0
DWIDTH 50 0
BBX 45 81 4 0
BITMAP
006000010000
03FC001FE000
07FE003FF000
0FFF007FF800
0FFF80FFF800
1FFF80FFFC00
1FFF80FFFC00
1FFF80FFFC00
1FFF80FFFC00
1FFF80FFFC00
1FFF80FFF800
0FFF007FF800
07FE003FF000
03FC001FE000
00F000078000
000000000000
000000000000
000038000000
0007FFE00000
001FFFF80000
007FFFFE0000
00FFFFFF0000
01FFFFFF8000
03FFFFFFC000
07FFFFFFE000
0FFFFFFFF000
1FFFFFFFF000
1FFFFFFFF800
3FFF01FFF800
3FFE007FFC00
3FFC003FFC00
7FF8001FFE00
7FF8001FFE00
7FF0000FFE00
7FF0000FFE00
7FF0000FFE00
7FF0000FFE00
FFF0000FFE00
FFF0000FFE00
FFF0000FFE00
FFF0000FFE00
FFF0000FFE00
FFF0000FFE00
FFF0000FFE00
FFF0000FFE00
FFF0000FFE00
FFF0000FFE00
FFF0000FFE00
FFF0000FFE00
FFF0000FFE00
FFF0000FFE00
FFF0000FFE00
FFF0000FFE00
FFF0000FFE00
FFF0000FFE00
FFF0000FFE00
FFF0000FFE00
FFF0000FFE00
FFF0000FFE00
FFF0000FFE00
FFF0000FFE00
FFF0000FFE00
FFF0000FFE00
FFF0000FFE00
FFF0000FFE00
FFF0000FFE00
FFF0000FFE00
FFF0000FFE00
FFF0000FFE00
FFF0000FFE00
FFF0000FFE00
FFFFFFFFFFF8
FFFFFFFFFFF8
FFFFFFFFFFF8
FFFFFFFFFFF8
FFFFFFFFFFF8
FFFFFFFFFFF8
FFFFFFFFFFF8
FFFFFFFFFFF8
FFFFFFFFFFF8
FFFFFFFFFFF8
ENDCHAR
STARTCHAR 00C5
ENCODING 197
SWIDTH 562 0
DWIDTH 50 0
BBX 45 85 4 0
BITMAP
0000FF000000
0003FFC00000
0007FFE00000
000FFFF00000
000FFFF00000
001F81F80000
001F01F80000
001F00F80000
001F00F80000
001F00F80000
001F00F80000
001F81F80000
000FE7F00000
000FFFF00000
0007FFE00000
0003FFC00000
0001FF800000
00003C000000
000000000000
000000000000
000000000000
000038000000
0007FFE00000
001FFFF80000
007FFFFE0000
00FFFFFF0000
01FFFFFF8000
03FFFFFFC000
07FFFFFFE000
0FFFFFFFF000
1FFFFFFFF000
1FFFFFFFF800
3FFF01FFF800
3FFE007FFC00
3FFC003FFC00
7FF8001FFE00
7FF8001FFE00
7FF0000FFE00
7FF0000FFE00
7FF0000FFE00
7FF0000FFE00
FFF0000FFE00
FFF0000FFE00
FFF0000FFE00
FFF0000FFE00
FFF0000FFE00
FFF0000FFE00
FFF0000FFE00
FFF0000FFE00
FFF0000FFE00
FFF0000FFE00
FFF0000FFE00
FFF0000FFE00
FFF0000FFE00
FFF0000FFE00
FFF0000FFE00
FFF0000FFE00
FFF0000FFE00
FFF0000FFE00
FFF0000FFE00
FFF0000FFE00
FFF0000FFE00
FFF0000FFE00
FFF0000FFE00
FFF0000FFE00
FFF0000FFE00
FFF0000FFE00
FFF0000FFE00
FFF0000FFE00
FFF0000FFE00
FFF0000FFE00
FFF0000FFE00
FFF0000FFE00
FFF0000FFE00
FFF0000FFE00
FFFFFFFFFFF8
FFFFFFFFFFF8
FFFFFFFFFFF8
FFFFFFFFFFF8
FFFFFFFFFFF8
FFFFFFFFFFF8
FFFFFFFFFFF8
FFFFFFFFFFF8
FFFFFFFFFFF8
FFFFFFFFFFF8
ENDCHAR
STARTCHAR 00C7
ENCODING 199
SWIDTH 686 0
DWIDTH 61 0
BBX 56 84 3 -20
BITMAP
00000000E00000
000000FFFFC000
000007FFFFF800
00001FFFFFFE00
00007FFFFFFF80
0001FFFFFFFFE0
0007FFFFFFFFF0
000FFFFFFFFFFC
001FFFFFFFFFFE
003FFFFFFFFFFF
007FFFFFFFFFFF
00FFFFF001FFFF
01FFFF80007FFE
03FFFC00001FFC
03FFF8000007F8
07FFE0000003F0
0FFFC0000001E0
0FFF80000000C0
1FFF0000000000
1FFF0000000000
3FFE0000000000
3FFC0000000000
3FFC0000000000
7FF80000000000
7FF80000000000
7FF00000000000
7FF00000000000
FFF00000000000
FFF00000000000
FFE00000000000
FFE00000000000
FFE00000000000
FFE00000000000
FFE00000000000
FFE00000000000
FFE00000000000
FFE00000000000
FFF00000000000
7FF00000000000
7FF00000000000
7FF00000000000
7FF80000000000
7FF80000000000
3FFC0000000000
3FFC0000000000
1FFE0000000000
1FFF0000000000
1FFF0000000000
0FFF80000000C0
07FFE0000001E0
07FFF0000003F0
03FFF8000007F8
01FFFE00001FFC
01FFFF80007FFE
00FFFFF807FFFF
007FFFFFFFFFFF
003FFFFFFFFFFE
001FFFFFFFFFFC
0007FFFFFFFFF8
0003FFFFFFFFF0
0001FFFFFFFFC0
00007FFFFFFF80
00001FFFFFFE00
000003FFFFF000
0000007FFF8000
0000000FC00000
0000000F800000
0000000F800000
0000000FE00000
0000000FF00000
00000007F80000
00000000FC0000
000000007C0000
000000007E0000
000003007E0000
000007007E0000
00000F80FE0000
00001FF3FC0000
00001FFFFC0000
00000FFFFC0000
000007FFF80000
000001FFF00000
000000FFC00000
00000004000000
ENDCHAR
STARTCHAR 00C8
ENCODING 200
SWIDTH 506 0
DWIDTH 45 0
BBX 43 79 2 0
BITMAP
007FC0000000
003FC0000000
001FE0000000
000FE0000000
000FF0000000
0007F0000000
0003F8000000
0003F8000000
0001FC000000
0000FC000000
00007E000000
00007E000000
000000000000
000000000000
000000000000
000000000000
000000000000
03FFFFFF0000
03FFFFFF0000
03FFFFFF0000
03FFFFFF0000
03FFFFFF0000
03FFFFFF0000
03FFFFFF0000
03FFFFFF0000
03FFFFFF0000
03FFFFFF0000
03FF80000000
03FF80000000
03FF80000000
03FF80000000
03FF80000000
03FF80000000
03FF80000000
03FF80000000
03FF80000000
03FF80000000
03FF80000000
03FF80000000
03FF80000000
03FF80000000
03FF80000000
03FF80000000
FFFFFFFFF000
FFFFFFFFF000
FFFFFFFFF000
FFFFFFFFF000
FFFFFFFFF000
FFFFFFFFF000
FFFFFFFFF000
FFFFFFFFF000
FFFFFFFFF000
FFFFFFFFF000
03FF80000000
03FF80000000
03FF80000000
03FF80000000
03FF80000000
03FF80000000
03FF80000000
03FF80000000
03FF80000000
03FF80000000
03FF80000000
03FF80000000
03FF80000000
03FF80000000
03FF80000000
03FF80000000
03FFFFFFFFE0
03FFFFFFFFE0
03FFFFFFFFE0
03FFFFFFFFE0
03FFFFFFFFE0
03FFFFFFFFE0
03FFFFFFFFE0
03FFFFFFFFE0
03FFFFFFFFE0
03FFFFFFFFE0
ENDCHAR
STARTCHAR 00C9
ENCODING 201
SWIDTH 506 0
DWIDTH 45 0
BBX 43 79 2 0
BITMAP
00000FF80000
00000FF00000
00001FE00000
00001FE00000
00003FC00000
00003F800000
00007F000000
00007F000000
0000FE000000
0000FC000000
0001FC000000
0001F8000000
000000000000
000000000000
000000000000
000000000000
000000000000
03FFFFFF0000
03FFFFFF0000
03FFFFFF0000
03FFFFFF0000
03FFFFFF0000
03FFFFFF0000
03FFFFFF0000
03FFFFFF0000
03FFFFFF0000
03FFFFFF0000
03FF80000000
03FF80000000
03FF80000000
03FF80000000
03FF80000000
03FF80000000
03FF80000000
03FF80000000
03FF80000000
03FF80000000
03FF80000000
03FF80000000
03FF80000000
03FF80000000
03FF80000000
03FF80000000
FFFFFFFFF000
FFFFFFFFF000
FFFFFFFFF000
FFFFFFFFF000
FFFFFFFFF000
FFFFFFFFF000
FFFFFFFFF000
FFFFFFFFF000
FFFFFFFFF000
FFFFFFFFF000
03FF80000000
03FF80000000
03FF80000000
03FF80000000
03FF80000000
03FF80000000
03FF80000000
03FF80000000
03FF80000000
03FF80000000
03FF80000000
03FF80000000
03FF80000000
03FF80000000
03FF80000000
03FF80000000
03FFFFFFFFE0
03FFFFFFFFE0
03FFFFFFFFE0
03FFFFFFFFE0
03FFFFFFFFE0
03FFFFFFFFE0
03FFFFFFFFE0
03FFFFFFFFE0
03FFFFFFFFE0
03FFFFFFFFE0
ENDCHAR
STARTCHAR 00CA
ENCODING 202
SWIDTH 506 0
DWIDTH 45 0
BBX 43 79 2 0
BITMAP
0007FF800000
000FFFC00000
001FFFE00000
001FFFF00000
003FFFF00000
007FCFF80000
00FF87FC0000
00FF87FC0000
01FF03FE0000
03FE01FF0000
07FC00FF8000
07FC007F8000
000000000000
000000000000
000000000000
000000000000
000000000000
03FFFFFF0000
03FFFFFF0000
03FFFFFF0000
03FFFFFF0000
03FFFFFF0000
03FFFFFF0000
03FFFFFF0000
03FFFFFF0000
03FFFFFF0000
03FFFFFF0000
03FF80000000
03FF80000000
03FF80000000
03FF80000000
03FF80000000
03FF80000000
03FF80000000
03FF80000000
03FF80000000
03FF80000000
03FF80000000
03FF80000000
03FF80000000
03FF80000000
03FF80000000
03FF80000000
FFFFFFFFF000
FFFFFFFFF000
FFFFFFFFF000
FFFFFFFFF000
FFFFFFFFF000
FFFFFFFFF000
FFFFFFFFF000
FFFFFFFFF000
FFFFFFFFF000
FFFFFFFFF000
03FF80000000
03FF80000000
03FF80000000
03FF80000000
03FF80000000
03FF80000000
03FF80000000
03FF80000000
03FF80000000
03FF80000000
03FF80000000
03FF80000000
03FF80000000
03FF80000000
03FF80000000
03FF80000000
03FFFFFFFFE0
03FFFFFFFFE0
03FFFFFFFFE0
03FFFFFFFFE0
03FFFFFFFFE0
03FFFFFFFFE0
03FFFFFFFFE0
03FFFFFFFFE0
03FFFFFFFFE0
03FFFFFFFFE0
ENDCHAR
STARTCHAR 00CB
ENCODING 203
SWIDTH 506 0
DWIDTH 45 0
BBX 43 81 2 0
BITMAP
008000020000
07F8003FC000
0FFC007FE000
1FFE00FFF000
1FFF01FFF000
3FFF01FFF800
3FFF01FFF800
3FFF01FFF800
3FFF01FFF800
3FFF01FFF800
1FFF01FFF800
1FFE00FFF000
0FFC007FE000
07F8003FC000
00E0000F0000
000000000000
000000000000
000000000000
000000000000
03FFFFFF0000
03FFFFFF0000
03FFFFFF0000
03FFFFFF0000
03FFFFFF0000
03FFFFFF0000
03FFFFFF0000
03FFFFFF0000
03FFFFFF0000
03FFFFFF0000
03FF80000000
03FF80000000
03FF80000000
03FF80000000
03FF80000000
03FF80000000
03FF80000000
03FF80000000
03FF80000000
03FF80000000
03FF80000000
03FF80000000
03FF80000000
03FF80000000
03FF80000000
03FF80000000
FFFFFFFFF000
FFFFFFFFF000
FFFFFFFFF000
FFFFFFFFF000
FFFFFFFFF000
FFFFFFFFF000
FFFFFFFFF000
FFFFFFFFF000
FFFFFFFFF000
FFFFFFFFF000
03FF80000000
03FF80000000
03FF80000000
03FF80000000
03FF80000000
03FF80000000
03FF80000000
03FF80000000
03FF80000000
03FF80000000
03FF80000000
03FF80000000
03FF80000000
03FF80000000
03FF80000000
03FF80000000
03FFFFFFFFE0
03FFFFFFFFE0
03FFFFFFFFE0
03FFFFFFFFE0
03FFFFFFFFE0
03FFFFFFFFE0
03FFFFFFFFE0
03FFFFFFFFE0
03FFFFFFFFE0
03FFFFFFFFE0
ENDCHAR
STARTCHAR 00CC
ENCODING 204
SWIDTH 225 0
DWIDTH 20 0
BBX 15 55 1 0
BITMAP
FF00
7F80
7F80
3FC0
1FC0
1FE0
0FE0
07F0
03F0
03F8
01F8
00FC
0000
0000
0000
0000
0000
0FFE
0FFE
0FFE
0FFE
0FFE
0FFE
0FFE
0FFE
0FFE
0FFE
0FFE
0FFE
0FFE
0FFE
0FFE
0FFE
0FFE
0FFE
0FFE
0FFE
0FFE
0FFE
0FFE
0FFE
0FFE
0FFE
0FFE
0FFE
0FFE
0FFE
0FFE
0FFE
0FFE
0FFE
0FFE
0FFE
0FFE
0FFE
ENDCHAR
STARTCHAR 00CD
ENCODING 205
SWIDTH 225 0
DWIDTH 20 0
BBX 15 55 5 0
BITMAP
01FE
03FC
03FC
07F8
07F0
0FF0
0FE0
1FC0
1F80
3F80
3F00
7E00
0000
0000
0000
0000
0000
FFE0
FFE0
FFE0
FFE0
FFE0
FFE0
FFE0
FFE0
FFE0
FFE0
FFE0
FFE0
FFE0
FFE0
FFE0
FFE0
FFE0
FFE0
FFE0
FFE0
FFE0
FFE0
FFE0
FFE0
FFE0
FFE0
FFE0
FFE0
FFE0
FFE0
FFE0
FFE0
FFE0
FFE0
FFE0
FFE0
FFE0
FFE0
ENDCHAR
STARTCHAR 00CE
ENCODING 206
SWIDTH 225 0
DWIDTH 20 0
BBX 29 55 -4 0
BITMAP
00FFF800
01FFFC00
01FFFC00
03FFFE00
07FFFF00
07F9FF00
0FF8FF80
1FF07FC0
3FE03FE0
3FC03FE0
7FC01FF0
FF800FF8
00000000
00000000
00000000
00000000
00000000
007FF000
007FF000
007FF000
007FF000
007FF000
007FF000
007FF000
007FF000
007FF000
007FF000
007FF000
007FF000
007FF000
007FF000
007FF000
007FF000
007FF000
007FF000
007FF000
007FF000
007FF000
007FF000
007FF000
007FF000
007FF000
007FF000
007FF000
007FF000
007FF000
007FF000
007FF000
007FF000
007FF000
007FF000
007FF000
007FF000
007FF000
007FF000
ENDCHAR
STARTCHAR 00CF
ENCODING 207
SWIDTH 225 0
DWIDTH 20 0
BBX 36 57 -7 0
BITMAP
0100000800
0FE0007F00
3FF801FF80
7FF803FFC0
7FFC03FFE0
7FFC07FFE0
FFFE07FFE0
FFFE07FFF0
FFFE07FFE0
FFFC07FFE0
7FFC03FFE0
7FF803FFC0
3FF801FFC0
1FE000FF00
0380003C00
0000000000
0000000000
0000000000
0000000000
000FFE0000
000FFE0000
000FFE0000
000FFE0000
000FFE0000
000FFE0000
000FFE0000
000FFE0000
000FFE0000
000FFE0000
000FFE0000
000FFE0000
000FFE0000
000FFE0000
000FFE0000
000FFE0000
000FFE0000
000FFE0000
000FFE0000
000FFE0000
000FFE0000
000FFE0000
000FFE0000
000FFE0000
000FFE0000
000FFE0000
000FFE0000
000FFE0000
000FFE0000
000FFE0000
000FFE0000
000FFE0000
000FFE0000
000FFE0000
000FFE0000
000FFE0000
000FFE0000
000FFE0000
ENDCHAR
STARTCHAR 00D1
ENCODING 209
SWIDTH 551 0
DWIDTH 49 0
BBX 44 79 1 0
BITMAP
0007FC000000
000FFF838000
000FFFFF8000
000FFFFF8000
000FFFFF8000
000FFFFF8000
000FFFFF8000
000803FF8000
000000780000
000000000000
000000000000
000000000000
000000000000
000000000000
000000000000
010000000000
038000000000
07C000007FF0
0FF000007FF0
0FF800007FF0
1FFC00007FF0
3FFE00007FF0
7FFF80007FF0
FFFFC0007FF0
7FFFE0007FF0
1FFFF8007FF0
0FFFFC007FF0
07FFFE007FF0
07FFFF007FF0
07FFFFC07FF0
07FFFFE07FF0
07FFFFF07FF0
07FFFFFC7FF0
07FFFFFE7FF0
07FFFFFF7FF0
07FFFFFFFFF0
07FF7FFFFFF0
07FF3FFFFFF0
07FF0FFFFFF0
07FF07FFFFF0
07FF03FFFFF0
07FF00FFFFF0
07FF007FFFF0
07FF003FFFF0
07FF001FFFF0
07FF0007FFF0
07FF0003FFF0
07FF0001FFF0
07FF0000FFF0
07FF00007FF0
07FF00007FF0
07FF00007FF0
07FF00007FF0
07FF00007FF0
07FF00007FF0
07FF00007FF0
07FF00007FF0
07FF00007FF0
07FF00007FF0
07FF00007FF0
07FF00007FF0
07FF00007FF0
07FF00007FF0
07FF00007FF0
07FF00007FF0
07FF00007FF0
07FF00007FF0
07FF00007FF0
07FF00007FF0
07FF00007FF0
07FF00007FF0
07FF00007FF0
07FF00007FF0
07FF00007FF0
07FF00007FF0
07FF00007FF0
07FF00007FF0
07FF00007FF0
07FF00007FF0
ENDCHAR
STARTCHAR 00D2
ENCODING 210
SWIDTH 821 0
DWIDTH 73 0
BBX 67 80 3 -1
BITMAP
000000FF0000000000
0000007F8000000000
0000007F8000000000
0000003FC000000000
0000001FC000000000
0000000FE000000000
0000000FE000000000
00000007F000000000
00000003F000000000
00000003F800000000
00000001FC00000000
00000000FC00000000
000000000000000000
000000000000000000
000000000000000000
00000001F000000000
0000007FFFC0000000
000007FFFFFC000000
00001FFFFFFF000000
00007FFFFFFFC00000
0001FFFFFFFFF00000
0003FFFFFFFFF80000
000FFFFFFFFFFE0000
001FFFFFFFFFFF0000
003FFFFFFFFFFF8000
007FFFFFFFFFFFC000
00FFFFF001FFFFE000
01FFFF80001FFFF000
03FFFC000007FFF800
03FFF8000003FFF800
07FFE0000000FFFC00
0FFFC00000007FFE00
0FFF800000003FFE00
1FFF000000001FFF00
1FFF000000000FFF00
3FFE000000000FFF80
3FFC0000000007FF80
3FFC0000000007FF80
7FF80000000003FFC0
7FF80000000003FFC0
7FF00000000001FFC0
7FF00000000001FFC0
FFF00000000001FFE0
FFF00000000001FFE0
FFE00000000000FFE0
FFE00000000000FFE0
FFE00000000000FFE0
FFE00000000000FFE0
FFE00000000000FFE0
FFE00000000000FFE0
FFE00000000000FFE0
FFE00000000000FFE0
FFF00000000001FFE0
7FF00000000001FFC0
7FF00000000001FFC0
7FF00000000001FFC0
7FF80000000003FFC0
7FF80000000003FFC0
3FFC0000000007FF80
3FFC0000000007FF80
1FFE000000000FFF00
1FFF000000001FFF00
1FFF000000001FFF00
0FFF800000003FFE00
07FFC00000007FFC00
07FFF0000001FFFC00
03FFF8000003FFF800
01FFFE00000FFFF000
01FFFF80003FFFF000
00FFFFF803FFFFE000
007FFFFFFFFFFFC000
003FFFFFFFFFFF8000
001FFFFFFFFFFF0000
0007FFFFFFFFFE0000
0003FFFFFFFFF80000
0000FFFFFFFFF00000
00007FFFFFFFC00000
00001FFFFFFF000000
000003FFFFF8000000
0000003FFF80000000
ENDCHAR
STARTCHAR 00D3
ENCODING 211
SWIDTH 821 0
DWIDTH 73 0
BBX 67 80 3 -1
BITMAP
000000001FE0000000
000000003FE0000000
000000003FC0000000
000000007F80000000
000000007F00000000
00000000FF00000000
00000000FE00000000
00000001FC00000000
00000001FC00000000
00000003F800000000
00000003F000000000
00000007E000000000
000000000000000000
000000000000000000
000000000000000000
00000001F000000000
0000007FFFC0000000
000007FFFFFC000000
00001FFFFFFF000000
00007FFFFFFFC00000
0001FFFFFFFFF00000
0003FFFFFFFFF80000
000FFFFFFFFFFE0000
001FFFFFFFFFFF0000
003FFFFFFFFFFF8000
007FFFFFFFFFFFC000
00FFFFF001FFFFE000
01FFFF80001FFFF000
03FFFC000007FFF800
03FFF8000003FFF800
07FFE0000000FFFC00
0FFFC00000007FFE00
0FFF800000003FFE00
1FFF000000001FFF00
1FFF000000000FFF00
3FFE000000000FFF80
3FFC0000000007FF80
3FFC0000000007FF80
7FF80000000003FFC0
7FF80000000003FFC0
7FF00000000001FFC0
7FF00000000001FFC0
FFF00000000001FFE0
FFF00000000001FFE0
FFE00000000000FFE0
FFE00000000000FFE0
FFE00000000000FFE0
FFE00000000000FFE0
FFE00000000000FFE0
FFE00000000000FFE0
FFE00000000000FFE0
FFE00000000000FFE0
FFF00000000001FFE0
7FF00000000001FFC0
7FF00000000001FFC0
7FF00000000001FFC0
7FF80000000003FFC0
7FF80000000003FFC0
3FFC0000000007FF80
3FFC0000000007FF80
1FFE000000000FFF00
1FFF000000001FFF00
1FFF000000001FFF00
0FFF800000003FFE00
07FFC00000007FFC00
07FFF0000001FFFC00
03FFF8000003FFF800
01FFFE00000FFFF000
01FFFF80003FFFF000
00FFFFF803FFFFE000
007FFFFFFFFFFFC000
003FFFFFFFFFFF8000
001FFFFFFFFFFF0000
0007FFFFFFFFFE0000
0003FFFFFFFFF80000
0000FFFFFFFFF00000
00007FFFFFFFC00000
00001FFFFFFF000000
000003FFFFF8000000
0000003FFF80000000
ENDCHAR
STARTCHAR 00D4
ENCODING 212
SWIDTH 821 0
DWIDTH 73 0
BBX 67 80 3 -1
BITMAP
0000001FFF00000000
0000001FFF80000000
0000003FFF80000000
0000007FFFC0000000
000000FFFFE0000000
000000FFBFF0000000
000001FF1FF0000000
000003FE0FF8000000
000007FC07FC000000
000007FC07FC000000
00000FF803FE000000
00001FF001FF000000
000000000000000000
000000000000000000
000000000000000000
00000001F000000000
0000007FFFC0000000
000007FFFFFC000000
00001FFFFFFF000000
00007FFFFFFFC00000
0001FFFFFFFFF00000
0003FFFFFFFFF80000
000FFFFFFFFFFE0000
001FFFFFFFFFFF0000
003FFFFFFFFFFF8000
007FFFFFFFFFFFC000
00FFFFF001FFFFE000
01FFFF80001FFFF000
03FFFC000007FFF800
03FFF8000003FFF800
07FFE0000000FFFC00
0FFFC00000007FFE00
0FFF800000003FFE00
1FFF000000001FFF00
1FFF000000000FFF00
3FFE000000000FFF80
3FFC0000000007FF80
3FFC0000000007FF80
7FF80000000003FFC0
7FF80000000003FFC0
7FF00000000001FFC0
7FF00000000001FFC0
FFF00000000001FFE0
FFF00000000001FFE0
FFE00000000000FFE0
FFE00000000000FFE0
FFE00000000000FFE0
FFE00000000000FFE0
FFE00000000000FFE0
FFE00000000000FFE0
FFE00000000000FFE0
FFE00000000000FFE0
FFF00000000001FFE0
7FF00000000001FFC0
7FF00000000001FFC0
7FF00000000001FFC0
7FF80000000003FFC0
7FF80000000003FFC0
3FFC0000000007FF80
3FFC0000000007FF80
1FFE000000000FFF00
1FFF000000001FFF00
1FFF000000001FFF00
0FFF800000003FFE00
07FFC00000007FFC00
07FFF0000001FFFC00
03FFF8000003FFF800
01FFFE00000FFFF000
01FFFF80003FFFF000
00FFFFF803FFFFE000
007FFFFFFFFFFFC000
003FFFFFFFFFFF8000
001FFFFFFFFFFF0000
0007FFFFFFFFFE0000
0003FFFFFFFFF80000
0000FFFFFFFFF00000
00007FFFFFFFC00000
00001FFFFFFF000000
000003FFFFF8000000
0000003FFF80000000
ENDCHAR
STARTCHAR 00D5
ENCODING 213
SWIDTH 821 0
DWIDTH 73 0
BBX 67 80 3 -1
BITMAP
000001FF0000000000
000003FFE0E0000000
000003FFFFE0000000
000003FFFFE0000000
000003FFFFE0000000
000003FFFFE0000000
000003FFFFE0000000
00000000FFE0000000
000000000E00000000
000000000000000000
000000000000000000
000000000000000000
000000000000000000
000000000000000000
000000000000000000
00000001F000000000
0000007FFFC0000000
000007FFFFFC000000
00001FFFFFFF000000
00007FFFFFFFC00000
0001FFFFFFFFF00000
0003FFFFFFFFF80000
000FFFFFFFFFFE0000
001FFFFFFFFFFF0000
003FFFFFFFFFFF8000
007FFFFFFFFFFFC000
00FFFFF001FFFFE000
01FFFF80001FFFF000
03FFFC000007FFF800
03FFF8000003FFF800
07FFE0000000FFFC00
0FFFC00000007FFE00
0FFF800000003FFE00
1FFF000000001FFF00
1FFF000000000FFF00
3FFE000000000FFF80
3FFC0000000007FF80
3FFC0000000007FF80
7FF80000000003FFC0
7FF80000000003FFC0
7FF00000000001FFC0
7FF00000000001FFC0
FFF00000000001FFE0
FFF00000000001FFE0
FFE00000000000FFE0
FFE00000000000FFE0
FFE00000000000FFE0
FFE00000000000FFE0
FFE00000000000FFE0
FFE00000000000FFE0
FFE00000000000FFE0
FFE00000000000FFE0
FFF00000000001FFE0
7FF00000000001FFC0
7FF00000000001FFC0
7FF00000000001FFC0
7FF80000000003FFC0
7FF80000000003FFC0
3FFC0000000007FF80
3FFC0000000007FF80
1FFE000000000FFF00
1FFF000000001FFF00
1FFF000000001FFF00
0FFF800000003FFE00
07FFC00000007FFC00
07FFF0000001FFFC00
03FFF8000003FFF800
01FFFE00000FFFF000
01FFFF80003FFFF000
00FFFFF803FFFFE000
007FFFFFFFFFFFC000
003FFFFFFFFFFF8000
001FFFFFFFFFFF0000
0007FFFFFFFFFE0000
0003FFFFFFFFF80000
0000FFFFFFFFF00000
00007FFFFFFFC00000
00001FFFFFFF000000
000003FFFFF8000000
0000003FFF80000000
ENDCHAR
STARTCHAR 00D6
ENCODING 214
SWIDTH 821 0
DWIDTH 73 0
BBX 67 82 3 -1
BITMAP
000001000008000000
00000FE0007F000000
00001FF801FFC00000
00003FFC01FFE00000
00007FFC03FFE00000
00007FFE03FFE00000
00007FFE07FFF00000
0000FFFE07FFF00000
00007FFE07FFF00000
00007FFE03FFE00000
00007FFC03FFE00000
00003FFC01FFE00000
00003FF801FFC00000
00000FF0007F800000
000003C0001C000000
000000000000000000
000000000000000000
00000001F000000000
0000007FFFC0000000
000007FFFFFC000000
00001FFFFFFF000000
00007FFFFFFFC00000
0001FFFFFFFFF00000
0003FFFFFFFFF80000
000FFFFFFFFFFE0000
001FFFFFFFFFFF0000
003FFFFFFFFFFF8000
007FFFFFFFFFFFC000
00FFFFF001FFFFE000
01FFFF80001FFFF000
03FFFC000007FFF800
03FFF8000003FFF800
07FFE0000000FFFC00
0FFFC00000007FFE00
0FFF800000003FFE00
1FFF000000001FFF00
1FFF000000000FFF00
3FFE000000000FFF80
3FFC0000000007FF80
3FFC0000000007FF80
7FF80000000003FFC0
7FF80000000003FFC0
7FF00000000001FFC0
7FF00000000001FFC0
FFF00000000001FFE0
FFF00000000001FFE0
FFE00000000000FFE0
FFE00000000000FFE0
FFE00000000000FFE0
FFE00000000000FFE0
FFE00000000000FFE0
FFE00000000000FFE0
FFE00000000000FFE0
FFE00000000000FFE0
FFF00000000001FFE0
7FF00000000001FFC0
7FF00000000001FFC0
7FF00000000001FFC0
7FF80000000003FFC0
7FF80000000003FFC0
3FFC0000000007FF80
3FFC0000000007FF80
1FFE000000000FFF00
1FFF000000001FFF00
1FFF000000001FFF00
0FFF800000003FFE00
07FFC00000007FFC00
07FFF0000001FFFC00
03FFF8000003FFF800
01FFFE00000FFFF000
01FFFF80003FFFF000
00FFFFF803FFFFE000
007FFFFFFFFFFFC000
003FFFFFFFFFFF8000
001FFFFFFFFFFF0000
0007FFFFFFFFFE0000
0003FFFFFFFFF80000
0000FFFFFFFFF00000
00007FFFFFFFC00000
00001FFFFFFF000000
000003FFFFF8000000
0000003FFF80000000
ENDCHAR
STARTCHAR 00D7
ENCODING 215
SWIDTH 528 0
DWIDTH 47 0
BBX 38 37 5 12
BITMAP
0600000180
0F000003C0
1F800007E0
3FC0000FF0
7FE0001FF8
FFF0003FFC
7FF8007FF8
3FFC00FFF0
1FFE01FFE0
0FFF03FFC0
07FF87FF80
03FFCFFF00
01FFFFFE00
00FFFFFC00
007FFFF800
003FFFF000
001FFFE000
000FFFC000
0007FF8000
000FFFC000
001FFFE000
003FFFF000
007FFFF800
00FFFFFC00
01FFFFFE00
03FFCFFF00
07FF87FF80
0FFF03FFC0
1FFE01FFE0
3FFC00FFF0
7FF8007FF8
FFF0003FFC
7FE0001FF8
3FC0000FF0
1F800007E0
0F000003C0
0600000180
ENDCHAR
STARTCHAR 00D8
ENCODING 216
SWIDTH 798 0
DWIDTH 71 0
BBX 67 69 2 -3
BITMAP
000000000000002000
000000000000007000
00000000F00000F800
0000007FFFE000FC00
000007FFFFFC01FE00
00001FFFFFFF03FF00
00007FFFFFFFC7FE00
0001FFFFFFFFFFFC00
0003FFFFFFFFFFF800
000FFFFFFFFFFFF800
001FFFFFFFFFFFF000
003FFFFFFFFFFFE000
007FFFFFFFFFFFC000
00FFFFF000FFFFE000
01FFFF80001FFFF000
03FFFE000007FFF800
03FFF800000FFFFC00
07FFF000001FFFFC00
07FFC000001FFFFE00
0FFF8000003FFFFE00
1FFF0000007FFFFF00
1FFF000000FFCFFF00
1FFE000001FF8FFF80
3FFC000003FF07FF80
3FFC000007FE03FF80
3FF800000FFE03FFC0
7FF800000FFC03FFC0
7FF000001FF801FFC0
7FF000003FF001FFC0
7FF000007FE001FFE0
FFF00000FFC000FFE0
FFF00001FF8000FFE0
FFE00003FF0000FFE0
FFE00003FF0000FFE0
FFE00007FE0000FFE0
FFE0000FFC0000FFE0
FFE0001FF80000FFE0
FFE0003FF00000FFE0
FFF0007FE00000FFE0
7FF000FFC00001FFE0
7FF001FFC00001FFE0
7FF001FF800001FFC0
7FF803FF000001FFC0
7FF807FE000003FFC0
3FF80FFC000003FFC0
3FFC1FF8000007FF80
3FFC3FF0000007FF80
1FFE7FE000000FFF80
1FFF7FE000001FFF00
0FFFFFC000001FFF00
0FFFFF8000003FFE00
07FFFF0000007FFE00
07FFFE000001FFFC00
03FFFC000003FFF800
01FFFE00000FFFF800
00FFFF80003FFFF000
00FFFFF803FFFFE000
007FFFFFFFFFFFC000
00FFFFFFFFFFFF8000
01FFFFFFFFFFFF0000
03FFFFFFFFFFFE0000
07FFFFFFFFFFF80000
0FFCFFFFFFFFF00000
1FFC7FFFFFFFC00000
1FF80FFFFFFF000000
0FF003FFFFF8000000
07E0003FFF80000000
03C000000000000000
018000000000000000
ENDCHAR
STARTCHAR 00D9
ENCODING 217
SWIDTH 528 0
DWIDTH 47 0
BBX 39 80 4 -1
BITMAP
003FC00000
001FE00000
001FE00000
000FF00000
0007F00000
0003F80000
0003F80000
0001FC0000
0000FC0000
0000FE0000
00007E0000
00003F0000
0000000000
0000000000
0000000000
0000000000
0000000000
FFE0000FFE
FFE0000FFE
FFE0000FFE
FFE0000FFE
FFE0000FFE
FFE0000FFE
FFE0000FFE
FFE0000FFE
FFE0000FFE
FFE0000FFE
FFE0000FFE
FFE0000FFE
FFE0000FFE
FFE0000FFE
FFE0000FFE
FFE0000FFE
FFE0000FFE
FFE0000FFE
FFE0000FFE
FFE0000FFE
FFE0000FFE
FFE0000FFE
FFE0000FFE
FFE0000FFE
FFE0000FFE
FFE0000FFE
FFE0000FFE
FFE0000FFE
FFE0000FFE
FFE0000FFE
FFE0000FFE
FFE0000FFE
FFE0000FFE
FFE0000FFE
FFE0000FFE
FFE0000FFE
FFE0000FFE
FFE0000FFE
FFE0000FFE
FFE0000FFE
FFE0000FFE
FFE0000FFE
FFE0000FFE
FFE0000FFE
FFE0000FFE
FFE0000FFE
FFF0001FFE
7FF0001FFC
7FF0001FFC
7FF8003FFC
7FFC007FFC
3FFE00FFF8
3FFF83FFF8
1FFFFFFFF0
1FFFFFFFF0
0FFFFFFFE0
07FFFFFFC0
07FFFFFFC0
03FFFFFF80
00FFFFFE00
007FFFFC00
001FFFF000
0003FF8000
ENDCHAR
STARTCHAR 00DA
ENCODING 218
SWIDTH 528 0
DWIDTH 47 0
BBX 39 80 4 -1
BITMAP
000007F800
00000FF800
00000FF000
00001FE000
00001FC000
00003FC000
00003F8000
00007F0000
00007F0000
0000FE0000
0000FC0000
0001F80000
0000000000
0000000000
0000000000
0000000000
0000000000
FFE0000FFE
FFE0000FFE
FFE0000FFE
FFE0000FFE
FFE0000FFE
FFE0000FFE
FFE0000FFE
FFE0000FFE
FFE0000FFE
FFE0000FFE
FFE0000FFE
FFE0000FFE
FFE0000FFE
FFE0000FFE
FFE0000FFE
FFE0000FFE
FFE0000FFE
FFE0000FFE
FFE0000FFE
FFE0000FFE
FFE0000FFE
FFE0000FFE
FFE0000FFE
FFE0000FFE
FFE0000FFE
FFE0000FFE
FFE0000FFE
FFE0000FFE
FFE0000FFE
FFE0000FFE
FFE0000FFE
FFE0000FFE
FFE0000FFE
FFE0000FFE
FFE0000FFE
FFE0000FFE
FFE0000FFE
FFE0000FFE
FFE0000FFE
FFE0000FFE
FFE0000FFE
FFE0000FFE
FFE0000FFE
FFE0000FFE
FFE0000FFE
FFE0000FFE
FFF0001FFE
7FF0001FFC
7FF0001FFC
7FF8003FFC
7FFC007FFC
3FFE00FFF8
3FFF83FFF8
1FFFFFFFF0
1FFFFFFFF0
0FFFFFFFE0
07FFFFFFC0
07FFFFFFC0
03FFFFFF80
00FFFFFE00
007FFFFC00
001FFFF000
0003FF8000
ENDCHAR
STARTCHAR 00DB
ENCODING 219
SWIDTH 528 0
DWIDTH 47 0
BBX 39 80 4 -1
BITMAP
0007FFC000
0007FFE000
000FFFE000
001FFFF000
003FFFF800
003FEFFC00
007FC7FC00
00FF83FE00
01FF01FF00
01FF01FF00
03FE00FF80
07FC007FC0
0000000000
0000000000
0000000000
0000000000
0000000000
FFE0000FFE
FFE0000FFE
FFE0000FFE
FFE0000FFE
FFE0000FFE
FFE0000FFE
FFE0000FFE
FFE0000FFE
FFE0000FFE
FFE0000FFE
FFE0000FFE
FFE0000FFE
FFE0000FFE
FFE0000FFE
FFE0000FFE
FFE0000FFE
FFE0000FFE
FFE0000FFE
FFE0000FFE
FFE0000FFE
FFE0000FFE
FFE0000FFE
FFE0000FFE
FFE0000FFE
FFE0000FFE
FFE0000FFE
FFE0000FFE
FFE0000FFE
FFE0000FFE
FFE0000FFE
FFE0000FFE
FFE0000FFE
FFE0000FFE
FFE0000FFE
FFE0000FFE
FFE0000FFE
FFE0000FFE
FFE0000FFE
FFE0000FFE
FFE0000FFE
FFE0000FFE
FFE0000FFE
FFE0000FFE
FFE0000FFE
FFE0000FFE
FFE0000FFE
FFF0001FFE
7FF0001FFC
7FF0001FFC
7FF8003FFC
7FFC007FFC
3FFE00FFF8
3FFF83FFF8
1FFFFFFFF0
1FFFFFFFF0
0FFFFFFFE0
07FFFFFFC0
07FFFFFFC0
03FFFFFF80
00FFFFFE00
007FFFFC00
001FFFF000
0003FF8000
ENDCHAR
STARTCHAR 00DC
ENCODING 220
SWIDTH 528 0
DWIDTH 47 0
BBX 39 82 4 -1
BITMAP
0040000200
03F8001FC0
07FE007FF0
0FFF007FF0
1FFF00FFF8
1FFF00FFF8
3FFF81FFFC
3FFF81FFFC
3FFF81FFFC
1FFF80FFF8
1FFF00FFF8
0FFF00FFF0
0FFE007FF0
03FC001FC0
00E0000700
0000000000
0000000000
0000000000
0000000000
FFE0000FFE
FFE0000FFE
FFE0000FFE
FFE0000FFE
FFE0000FFE
FFE0000FFE
FFE0000FFE
FFE0000FFE
FFE0000FFE
FFE0000FFE
FFE0000FFE
FFE0000FFE
FFE0000FFE
FFE0000FFE
FFE0000FFE
FFE0000FFE
FFE0000FFE
FFE0000FFE
FFE0000FFE
FFE0000FFE
FFE0000FFE
FFE0000FFE
FFE0000FFE
FFE0000FFE
FFE0000FFE
FFE0000FFE
FFE0000FFE
FFE0000FFE
FFE0000FFE
FFE0000FFE
FFE0000FFE
FFE0000FFE
FFE0000FFE
FFE0000FFE
FFE0000FFE
FFE0000FFE
FFE0000FFE
FFE0000FFE
FFE0000FFE
FFE0000FFE
FFE0000FFE
FFE0000FFE
FFE0000FFE
FFE0000FFE
FFE0000FFE
FFE0000FFE
FFF0001FFE
7FF0001FFC
7FF0001FFC
7FF8003FFC
7FFC007FFC
3FFE00FFF8
3FFF83FFF8
1FFFFFFFF0
1FFFFFFFF0
0FFFFFFFE0
07FFFFFFC0
07FFFFFFC0
03FFFFFF80
00FFFFFE00
007FFFFC00
001FFFF000
0003FF8000
ENDCHAR
STARTCHAR 00DD
ENCODING 221
SWIDTH 517 0
DWIDTH 46 0
BBX 39 79 4 0
BITMAP
00000FF800
00000FF000
00001FE000
00001FE000
00003FC000
00003F8000
00007F8000
00007F0000
0000FE0000
0000FC0000
0001FC0000
0001F80000
0000000000
0000000000
0000000000
0000000000
0000000000
FFE0001FFE
FFE0001FFE
FFE0001FFE
FFE0001FFE
FFE0001FFE
FFE0001FFE
FFE0001FFE
FFE0001FFE
FFE0001FFE
FFE0001FFE
FFE0001FFE
FFE0001FFE
FFE0001FFE
FFE0001FFE
FFE0001FFE
FFE0001FFE
FFE0001FFE
FFE0001FFE
FFE0001FFE
FFE0001FFE
FFE0001FFE
FFE0001FFE
FFE0001FFE
FFE0001FFE
FFE0001FFE
FFE0001FFE
FFE0001FFE
FFE0001FFE
FFE0001FFC
FFE0001FFC
FFE0001FFC
FFE0001FFC
FFF0003FFC
FFF0003FFC
7FF8007FF8
7FFC00FFF8
7FFE01FFF8
3FFFFFFFF0
3FFFFFFFF0
1FFFFFFFE0
0FFFFFFFC0
07FFFFFFC0
03FFFFFF80
01FFFFFF00
00FFFFFC00
003FFFF000
000FFFC000
0003FF8000
0003FF8000
0003FF8000
0003FF8000
0003FF8000
0003FF8000
0003FF8000
0003FF8000
0003FF8000
0003FF8000
0003FF8000
0003FF8000
0003FF8000
0003FF8000
0003FF8000
ENDCHAR
STARTCHAR 00E0
ENCODING 224
SWIDTH 562 0
DWIDTH 50 0
BBX 45 79 4 0
BITMAP
003FE0000000
001FE0000000
000FF0000000
0007F0000000
0007F8000000
0003F8000000
0001FC000000
0001FC000000
0000FE000000
00007E000000
00003F000000
00003F000000
000000000000
000000000000
000000000000
000038000000
0007FFE00000
001FFFF80000
007FFFFE0000
00FFFFFF0000
01FFFFFF8000
03FFFFFFC000
07FFFFFFE000
0FFFFFFFF000
1FFFFFFFF000
1FFFFFFFF800
3FFF01FFF800
3FFE007FFC00
3FFC003FFC00
7FF8001FFE00
7FF8001FFE00
7FF0000FFE00
7FF0000FFE00
7FF0000FFE00
7FF0000FFE00
FFF0000FFE00
FFF0000FFE00
FFF0000FFE00
FFF0000FFE00
FFF0000FFE00
FFF0000FFE00
FFF0000FFE00
FFF0000FFE00
FFF0000FFE00
FFF0000FFE00
FFF0000FFE00
FFF0000FFE00
FFF0000FFE00
FFF0000FFE00
FFF0000FFE00
FFF0000FFE00
FFF0000FFE00
FFF0000FFE00
FFF0000FFE00
FFF0000FFE00
FFF0000FFE00
FFF0000FFE00
FFF0000FFE00
FFF0000FFE00
FFF0000FFE00
FFF0000FFE00
FFF0000FFE00
FFF0000FFE00
FFF0000FFE00
FFF0000FFE00
FFF0000FFE00
FFF0000FFE00
FFF0000FFE00
FFF0000FFE00
FFFFFFFFFFF8
FFFFFFFFFFF8
FFFFFFFFFFF8
FFFFFFFFFFF8
FFFFFFFFFFF8
FFFFFFFFFFF8
FFFFFFFFFFF8
FFFFFFFFFFF8
FFFFFFFFFFF8
FFFFFFFFFFF8
ENDCHAR
STARTCHAR 00E1
ENCODING 225
SWIDTH 562 0
DWIDTH 50 0
BBX 45 79 4 0
BITMAP
000007FC0000
000007F80000
00000FF00000
00000FF00000
00001FE00000
00001FC00000
00003F800000
00003F800000
00007F000000
00007E000000
0000FE000000
0000FC000000
000000000000
000000000000
000000000000
000038000000
0007FFE00000
001FFFF80000
007FFFFE0000
00FFFFFF0000
01FFFFFF8000
03FFFFFFC000
07FFFFFFE000
0FFFFFFFF000
1FFFFFFFF000
1FFFFFFFF800
3FFF01FFF800
3FFE007FFC00
3FFC003FFC00
7FF8001FFE00
7FF8001FFE00
7FF0000FFE00
7FF0000FFE00
7FF0000FFE00
7FF0000FFE00
FFF0000FFE00
FFF0000FFE00
FFF0000FFE00
FFF0000FFE00
FFF0000FFE00
FFF0000FFE00
FFF0000FFE00
FFF0000FFE00
FFF0000FFE00
FFF0000FFE00
FFF0000FFE00
FFF0000FFE00
FFF0000FFE00
FFF0000FFE00
FFF0000FFE00
FFF0000FFE00
FFF0000FFE00
FFF0000FFE00
FFF0000FFE00
FFF0000FFE00
FFF0000FFE00
FFF0000FFE00
FFF0000FFE00
FFF0000FFE00
FFF0000FFE00
FFF0000FFE00
FFF0000FFE00
FFF0000FFE00
FFF0000FFE00
FFF0000FFE00
FFF0000FFE00
FFF0000FFE00
FFF0000FFE00
FFF0000FFE00
FFFFFFFFFFF8
FFFFFFFFFFF8
FFFFFFFFFFF8
FFFFFFFFFFF8
FFFFFFFFFFF8
FFFFFFFFFFF8
FFFFFFFFFFF8
FFFFFFFFFFF8
FFFFFFFFFFF8
FFFFFFFFFFF8
ENDCHAR
STARTCHAR 00E2
ENCODING 226
SWIDTH 562 0
DWIDTH 50 0
BBX 45 79 4 0
BITMAP
0003FFC00000
0007FFE00000
000FFFF00000
001FFFF00000
001FFFF80000
003FE7FC0000
007FC7FE0000
007FC3FE0000
00FF81FF0000
01FF00FF8000
03FE007FC000
03FE007FC000
000000000000
000000000000
000000000000
000038000000
0007FFE00000
001FFFF80000
007FFFFE0000
00FFFFFF0000
01FFFFFF8000
03FFFFFFC000
07FFFFFFE000
0FFFFFFFF000
1FFFFFFFF000
1FFFFFFFF800
3FFF01FFF800
3FFE007FFC00
3FFC003FFC00
7FF8001FFE00
7FF8001FFE00
7FF0000FFE00
7FF0000FFE00
7FF0000FFE00
7FF0000FFE00
FFF0000FFE00
FFF0000FFE00
FFF0000FFE00
FFF0000FFE00
FFF0000FFE00
FFF0000FFE00
FFF0000FFE00
FFF0000FFE00
FFF0000FFE00
FFF0000FFE00
FFF0000FFE00
FFF0000FFE00
FFF0000FFE00
FFF0000FFE00
FFF0000FFE00
FFF0000FFE00
FFF0000FFE00
FFF0000FFE00
FFF0000FFE00
FFF0000FFE00
FFF0000FFE00
FFF0000FFE00
FFF0000FFE00
FFF0000FFE00
FFF0000FFE00
FFF0000FFE00
FFF0000FFE00
FFF0000FFE00
FFF0000FFE00
FFF0000FFE00
FFF0000FFE00
FFF0000FFE00
FFF0000FFE00
FFF0000FFE00
FFFFFFFFFFF8
FFFFFFFFFFF8
FFFFFFFFFFF8
FFFFFFFFFFF8
FFFFFFFFFFF8
FFFFFFFFFFF8
FFFFFFFFFFF8
FFFFFFFFFFF8
FFFFFFFFFFF8
FFFFFFFFFFF8
ENDCHAR
STARTCHAR 00E3
ENCODING 227
SWIDTH 562 0
DWIDTH 50 0
BBX 45 79 4 0
BITMAP
003FC0000000
00FFF8180000
00FFFFF80000
00FFFFF80000
00FFFFF80000
00FFFFF80000
00FFFFF80000
00803FF80000
000003800000
000000000000
000000000000
000000000000
000000000000
000000000000
000000000000
000038000000
0007FFE00000
001FFFF80000
007FFFFE0000
00FFFFFF0000
01FFFFFF8000
03FFFFFFC000
07FFFFFFE000
0FFFFFFFF000
1FFFFFFFF000
1FFFFFFFF800
3FFF01FFF800
3FFE007FFC00
3FFC003FFC00
7FF8001FFE00
7FF8001FFE00
7FF0000FFE00
7FF0000FFE00
7FF0000FFE00
7FF0000FFE00
FFF0000FFE00
FFF0000FFE00
FFF0000FFE00
FFF0000FFE00
FFF0000FFE00
FFF0000FFE00
FFF0000FFE00
FFF0000FFE00
FFF0000FFE00
FFF0000FFE00
FFF0000FFE00
FFF0000FFE00
FFF0000FFE00
FFF0000FFE00
FFF0000FFE00
FFF0000FFE00
FFF0000FFE00
FFF0000FFE00
FFF0000FFE00
FFF0000FFE00
FFF0000FFE00
FFF0000FFE00
FFF0000FFE00
FFF0000FFE00
FFF0000FFE00
FFF0000FFE00
FFF0000FFE00
FFF0000FFE00
FFF0000FFE00
FFF0000FFE00
FFF0000FFE00
FFF0000FFE00
FFF0000FFE00
FFF0000FFE00
FFFFFFFFFFF8
FFFFFFFFFFF8
FFFFFFFFFFF8
FFFFFFFFFFF8
FFFFFFFFFFF8
FFFFFFFFFFF8
FFFFFFFFFFF8
FFFFFFFFFFF8
FFFFFFFFFFF8
FFFFFFFFFFF8
ENDCHAR
STARTCHAR 00E4
ENCODING 228
SWIDTH 562 0
DWIDTH 50 0
BBX 45 81 4 0
BITMAP
006000010000
03FC001FE000
07FE003FF000
0FFF007FF800
0FFF80FFF800
1FFF80FFFC00
1FFF80FFFC00
1FFF80FFFC00
1FFF80FFFC00
1FFF80FFFC00
1FFF80FFF800
0FFF007FF800
07FE003FF000
03FC001FE000
00F000078000
000000000000
000000000000
000038000000
0007FFE00000
001FFFF80000
007FFFFE0000
00FFFFFF0000
01FFFFFF8000
03FFFFFFC000
07FFFFFFE000
0FFFFFFFF000
1FFFFFFFF000
1FFFFFFFF800
3FFF01FFF800
3FFE007FFC00
3FFC003FFC00
7FF8001FFE00
7FF8001FFE00
7FF0000FFE00
7FF0000FFE00
7FF0000FFE00
7FF0000FFE00
FFF0000FFE00
FFF0000FFE00
FFF0000FFE00
FFF0000FFE00
FFF0000FFE00
FFF0000FFE00
FFF0000FFE00
FFF0000FFE00
FFF0000FFE00
FFF0000FFE00
FFF0000FFE00
FFF0000FFE00
FFF0000FFE00
FFF0000FFE00
FFF0000FFE00
FFF0000FFE00
FFF0000FFE00
FFF0000FFE00
FFF0000FFE00
FFF0000FFE00
FFF0000FFE00
FFF0000FFE00
FFF0000FFE00
FFF0000FFE00
FFF0000FFE00
FFF0000FFE00
FFF0000FFE00
FFF0000FFE00
FFF0000FFE00
FFF0000FFE00
FFF0000FFE00
FFF0000FFE00
FFF0000FFE00
FFF0000FFE00
FFFFFFFFFFF8
FFFFFFFFFFF8
FFFFFFFFFFF8
FFFFFFFFFFF8
FFFFFFFFFFF8
FFFFFFFFFFF8
FFFFFFFFFFF8
FFFFFFFFFFF8
FFFFFFFFFFF8
FFFFFFFFFFF8
ENDCHAR
STARTCHAR 00E5
ENCODING 229
SWIDTH 562 0
DWIDTH 50 0
BBX 45 85 4 0
BITMAP
0000FF000000
0003FFC00000
0007FFE00000
000FFFF00000
000FFFF00000
001F81F80000
001F01F80000
001F00F80000
001F00F80000
001F00F80000
001F00F80000
001F81F80000
000FE7F00000
000FFFF00000
0007FFE00000
0003FFC00000
0001FF800000
00003C000000
000000000000
000000000000
000000000000
000038000000
0007FFE00000
001FFFF80000
007FFFFE0000
00FFFFFF0000
01FFFFFF8000
03FFFFFFC000
07FFFFFFE000
0FFFFFFFF000
1FFFFFFFF000
1FFFFFFFF800
3FFF01FFF800
3FFE007FFC00
3FFC003FFC00
7FF8001FFE00
7FF8001FFE00
7FF0000FFE00
7FF0000FFE00
7FF0000FFE00
7FF0000FFE00
FFF0000FFE00
FFF0000FFE00
FFF0000FFE00
FFF0000FFE00
FFF0000FFE00
FFF0000FFE00
FFF0000FFE00
FFF0000FFE00
FFF0000FFE00
FFF0000FFE00
FFF0000FFE00
FFF0000FFE00
FFF0000FFE00
FFF0000FFE00
FFF0000FFE00
FFF0000FFE00
FFF0000FFE00
FFF0000FFE00
FFF0000FFE00
FFF0000FFE00
FFF0000FFE00
FFF0000FFE00
FFF0000FFE00
FFF0000FFE00
FFF0000FFE00
FFF0000FFE00
FFF0000FFE00
FFF0000FFE00
FFF0000FFE00
FFF0000FFE00
FFF0000FFE00
FFF0000FFE00
FFF0000FFE00
FFF0000FFE00
FFFFFFFFFFF8
FFFFFFFFFFF8
FFFFFFFFFFF8
FFFFFFFFFFF8
FFFFFFFFFFF8
FFFFFFFFFFF8
FFFFFFFFFFF8
FFFFFFFFFFF8
FFFFFFFFFFF8
FFFFFFFFFFF8
ENDCHAR
STARTCHAR 00E7
ENCODING 231
SWIDTH 686 0
DWIDTH 61 0
BBX 56 84 3 -20
BITMAP
00000000E00000
000000FFFFC000
000007FFFFF800
00001FFFFFFE00
00007FFFFFFF80
0001FFFFFFFFE0
0007FFFFFFFFF0
000FFFFFFFFFFC
001FFFFFFFFFFE
003FFFFFFFFFFF
007FFFFFFFFFFF
00FFFFF001FFFF
01FFFF80007FFE
03FFFC00001FFC
03FFF8000007F8
07FFE0000003F0
0FFFC0000001E0
0FFF80000000C0
1FFF0000000000
1FFF0000000000
3FFE0000000000
3FFC0000000000
3FFC0000000000
7FF80000000000
7FF80000000000
7FF00000000000
7FF00000000000
FFF00000000000
FFF00000000000
FFE00000000000
FFE00000000000
FFE00000000000
FFE00000000000
FFE00000000000
FFE00000000000
FFE00000000000
FFE00000000000
FFF00000000000
7FF00000000000
7FF00000000000
7FF00000000000
7FF80000000000
7FF80000000000
3FFC0000000000
3FFC0000000000
1FFE0000000000
1FFF0000000000
1FFF0000000000
0FFF80000000C0
07FFE0000001E0
07FFF0000003F0
03FFF8000007F8
01FFFE00001FFC
01FFFF80007FFE
00FFFFF807FFFF
007FFFFFFFFFFF
003FFFFFFFFFFE
001FFFFFFFFFFC
0007FFFFFFFFF8
0003FFFFFFFFF0
0001FFFFFFFFC0
00007FFFFFFF80
00001FFFFFFE00
000003FFFFF000
0000007FFF8000
0000000FC00000
0000000F800000
0000000F800000
0000000FE00000
0000000FF00000
00000007F80000
00000000FC0000
000000007C0000
000000007E0000
000003007E0000
000007007E0000
00000F80FE0000
00001FF3FC0000
00001FFFFC0000
00000FFFFC0000
000007FFF80000
000001FFF00000
000000FFC00000
00000004000000
ENDCHAR
STARTCHAR 00E8
ENCODING 232
SWIDTH 506 0
DWIDTH 45 0
BBX 43 79 2 0
BITMAP
007FC0000000
003FC0000000
001FE0000000
000FE0000000
000FF0000000
0007F0000000
0003F8000000
0003F8000000
0001FC000000
0000FC000000
00007E000000
00007E000000
000000000000
000000000000
000000000000
000000000000
000000000000
03FFFFFF0000
03FFFFFF0000
03FFFFFF0000
03FFFFFF0000
03FFFFFF0000
03FFFFFF0000
03FFFFFF0000
03FFFFFF0000
03FFFFFF0000
03FFFFFF0000
03FF80000000
03FF80000000
03FF80000000
03FF80000000
03FF80000000
03FF80000000
03FF80000000
03FF80000000
03FF80000000
03FF80000000
03FF80000000
03FF80000000
03FF80000000
03FF80000000
03FF80000000
03FF80000000
FFFFFFFFF000
FFFFFFFFF000
FFFFFFFFF000
FFFFFFFFF000
FFFFFFFFF000
FFFFFFFFF000
FFFFFFFFF000
FFFFFFFFF000
FFFFFFFFF000
FFFFFFFFF000
03FF80000000
03FF80000000
03FF80000000
03FF80000000
03FF80000000
03FF80000000
03FF80000000
03FF80000000
03FF80000000
03FF80000000
03FF80000000
03FF80000000
03FF80000000
03FF80000000
03FF80000000
03FF80000000
03FFFFFFFFE0
03FFFFFFFFE0
03FFFFFFFFE0
03FFFFFFFFE0
03FFFFFFFFE0
03FFFFFFFFE0
03FFFFFFFFE0
03FFFFFFFFE0
03FFFFFFFFE0
03FFFFFFFFE0
ENDCHAR
STARTCHAR 00E9
ENCODING 233
SWIDTH 506 0
DWIDTH 45 0
BBX 43 79 2 0
BITMAP
00000FF80000
00000FF00000
00001FE00000
00001FE00000
00003FC00000
00003F800000
00007F000000
00007F000000
0000FE000000
0000FC000000
0001FC000000
0001F8000000
000000000000
000000000000
000000000000
000000000000
000000000000
03FFFFFF0000
03FFFFFF0000
03FFFFFF0000
03FFFFFF0000
03FFFFFF0000
03FFFFFF0000
03FFFFFF0000
03FFFFFF0000
03FFFFFF0000
03FFFFFF0000
03FF80000000
03FF80000000
03FF80000000
03FF80000000
03FF80000000
03FF80000000
03FF80000000
03FF80000000
03FF80000000
03FF80000000
03FF80000000
03FF80000000
03FF80000000
03FF80000000
03FF80000000
03FF80000000
FFFFFFFFF000
FFFFFFFFF000
FFFFFFFFF000
FFFFFFFFF000
FFFFFFFFF000
FFFFFFFFF000
FFFFFFFFF000
FFFFFFFFF000
FFFFFFFFF000
FFFFFFFFF000
03FF80000000
03FF80000000
03FF80000000
03FF80000000
03FF80000000
03FF80000000
03FF80000000
03FF80000000
03FF80000000
03FF80000000
03FF80000000
03FF80000000
03FF80000000
03FF80000000
03FF80000000
03FF80000000
03FFFFFFFFE0
03FFFFFFFFE0
03FFFFFFFFE0
03FFFFFFFFE0
03FFFFFFFFE0
03FFFFFFFFE0
03FFFFFFFFE0
03FFFFFFFFE0
03FFFFFFFFE0
03FFFFFFFFE0
ENDCHAR
STARTCHAR 00EA
ENCODING 234
SWIDTH 506 0
DWIDTH 45 0
BBX 43 79 2 0
BITMAP
0007FF800000
000FFFC00000
001FFFE00000
001FFFF00000
003FFFF00000
007FCFF80000
00FF87FC0000
00FF87FC0000
01FF03FE0000
03FE01FF0000
07FC00FF8000
07FC007F8000
000000000000
000000000000
000000000000
000000000000
000000000000
03FFFFFF0000
03FFFFFF0000
03FFFFFF0000
03FFFFFF0000
03FFFFFF0000
03FFFFFF0000
03FFFFFF0000
03FFFFFF0000
03FFFFFF0000
03FFFFFF0000
03FF80000000
03FF80000000
03FF80000000
03FF80000000
03FF80000000
03FF80000000
03FF80000000
03FF80000000
03FF80000000
03FF80000000
03FF80000000
03FF80000000
03FF80000000
03FF80000000
03FF80000000
03FF80000000
FFFFFFFFF000
FFFFFFFFF000
FFFFFFFFF000
FFFFFFFFF000
FFFFFFFFF000
FFFFFFFFF000
FFFFFFFFF000
FFFFFFFFF000
FFFFFFFFF000
FFFFFFFFF000
03FF80000000
03FF80000000
03FF80000000
03FF80000000
03FF80000000
03FF80000000
03FF80000000
03FF80000000
03FF80000000
03FF80000000
03FF80000000
03FF80000000
03FF80000000
03FF80000000
03FF80000000
03FF80000000
03FFFFFFFFE0
03FFFFFFFFE0
03FFFFFFFFE0
03FFFFFFFFE0
03FFFFFFFFE0
03FFFFFFFFE0
03FFFFFFFFE0
03FFFFFFFFE0
03FFFFFFFFE0
03FFFFFFFFE0
ENDCHAR
STARTCHAR 00EB
ENCODING 235
SWIDTH 506 0
DWIDTH 45 0
BBX 43 81 2 0
BITMAP
008000020000
07F8003FC000
0FFC007FE000
1FFE00FFF000
1FFF01FFF000
3FFF01FFF800
3FFF01FFF800
3FFF01FFF800
3FFF01FFF800
3FFF01FFF800
1FFF01FFF800
1FFE00FFF000
0FFC007FE000
07F8003FC000
00E0000F0000
000000000000
000000000000
000000000000
000000000000
03FFFFFF0000
03FFFFFF0000
03FFFFFF0000
03FFFFFF0000
03FFFFFF0000
03FFFFFF0000
03FFFFFF0000
03FFFFFF0000
03FFFFFF0000
03FFFFFF0000
03FF80000000
03FF80000000
03FF80000000
03FF80000000
03FF80000000
03FF80000000
03FF80000000
03FF80000000
03FF80000000
03FF80000000
03FF80000000
03FF80000000
03FF80000000
03FF80000000
03FF80000000
03FF80000000
FFFFFFFFF000
FFFFFFFFF000
FFFFFFFFF000
FFFFFFFFF000
FFFFFFFFF000
FFFFFFFFF000
FFFFFFFFF000
FFFFFFFFF000
FFFFFFFFF000
FFFFFFFFF000
03FF80000000
03FF80000000
03FF80000000
03FF80000000
03FF80000000
03FF80000000
03FF80000000
03FF80000000
03FF80000000
03FF80000000
03FF80000000
03FF80000000
03FF80000000
03FF80000000
03FF80000000
03FF80000000
03FFFFFFFFE0
03FFFFFFFFE0
03FFFFFFFFE0
03FFFFFFFFE0
03FFFFFFFFE0
03FFFFFFFFE0
03FFFFFFFFE0
03FFFFFFFFE0
03FFFFFFFFE0
03FFFFFFFFE0
ENDCHAR
STARTCHAR 00EC
ENCODING 236
SWIDTH 225 0
DWIDTH 20 0
BBX 15 55 1 0
BITMAP
FF00
7F80
7F80
3FC0
1FC0
1FE0
0FE0
07F0
03F0
03F8
01F8
00FC
0000
0000
0000
0000
0000
0FFE
0FFE
0FFE
0FFE
0FFE
0FFE
0FFE
0FFE
0FFE
0FFE
0FFE
0FFE
0FFE
0FFE
0FFE
0FFE
0FFE
0FFE
0FFE
0FFE
0FFE
0FFE
0FFE
0FFE
0FFE
0FFE
0FFE
0FFE
0FFE
0FFE
0FFE
0FFE
0FFE
0FFE
0FFE
0FFE
0FFE
0FFE
ENDCHAR
STARTCHAR 00ED
ENCODING 237
SWIDTH 225 0
DWIDTH 20 0
BBX 15 55 5 0
BITMAP
01FE
03FC
03FC
07F8
07F0
0FF0
0FE0
1FC0
1F80
3F80
3F00
7E00
0000
0000
0000
0000
0000
FFE0
FFE0
FFE0
FFE0
FFE0
FFE0
FFE0
FFE0
FFE0
FFE0
FFE0
FFE0
FFE0
FFE0
FFE0
FFE0
FFE0
FFE0
FFE0
FFE0
FFE0
FFE0
FFE0
FFE0
FFE0
FFE0
FFE0
FFE0
FFE0
FFE0
FFE0
FFE0
FFE0
FFE0
FFE0
FFE0
FFE0
FFE0
ENDCHAR
STARTCHAR 00EE
ENCODING 238
SWIDTH 225 0
DWIDTH 20 0
BBX 29 55 -4 0
BITMAP
00FFF800
01FFFC00
01FFFC00
03FFFE00
07FFFF00
07F9FF00
0FF8FF80
1FF07FC0
3FE03FE0
3FC03FE0
7FC01FF0
FF800FF8
00000000
00000000
00000000
00000000
00000000
007FF000
007FF000
007FF000
007FF000
007FF000
007FF000
007FF000
007FF000
007FF000
007FF000
007FF000
007FF000
007FF000
007FF000
007FF000
007FF000
007FF000
007FF000
007FF000
007FF000
007FF000
007FF000
007FF000
007FF000
007FF000
007FF000
007FF000
007FF000
007FF000
007FF000
007FF000
007FF000
007FF000
007FF000
007FF000
007FF000
007FF000
007FF000
ENDCHAR
STARTCHAR 00EF
ENCODING 239
SWIDTH 225 0
DWIDTH 20 0
BBX 36 57 -7 0
BITMAP
0100000800
0FE0007F00
3FF801FF80
7FF803FFC0
7FFC03FFE0
7FFC07FFE0
FFFE07FFE0
FFFE07FFF0
FFFE07FFE0
FFFC07FFE0
7FFC03FFE0
7FF803FFC0
3FF801FFC0
1FE000FF00
0380003C00
0000000000
0000000000
0000000000
0000000000
000FFE0000
000FFE0000
000FFE0000
000FFE0000
000FFE0000
000FFE0000
000FFE0000
000FFE0000
000FFE0000
000FFE0000
000FFE0000
000FFE0000
000FFE0000
000FFE0000
000FFE0000
000FFE0000
000FFE0000
000FFE0000
000FFE0000
000FFE0000
000FFE0000
000FFE0000
000FFE0000
000FFE0000
000FFE0000
000FFE0000
000FFE0000
000FFE0000
000FFE0000
000FFE0000
000FFE0000
000FFE0000
000FFE0000
000FFE0000
000FFE0000
000FFE0000
000FFE0000
000FFE0000
ENDCHAR
STARTCHAR 00F1
ENCODING 241
SWIDTH 551 0
DWIDTH 49 0
BBX 44 79 1 0
BITMAP
0007FC000000
000FFF838000
000FFFFF8000
000FFFFF8000
000FFFFF8000
000FFFFF8000
000FFFFF8000
000803FF8000
000000780000
000000000000
000000000000
000000000000
000000000000
000000000000
000000000000
010000000000
038000000000
07C000007FF0
0FF000007FF0
0FF800007FF0
1FFC00007FF0
3FFE00007FF0
7FFF80007FF0
FFFFC0007FF0
7FFFE0007FF0
1FFFF8007FF0
0FFFFC007FF0
07FFFE007FF0
07FFFF007FF0
07FFFFC07FF0
07FFFFE07FF0
07FFFFF07FF0
07FFFFFC7FF0
07FFFFFE7FF0
07FFFFFF7FF0
07FFFFFFFFF0
07FF7FFFFFF0
07FF3FFFFFF0
07FF0FFFFFF0
07FF07FFFFF0
07FF03FFFFF0
07FF00FFFFF0
07FF007FFFF0
07FF003FFFF0
07FF001FFFF0
07FF0007FFF0
07FF0003FFF0
07FF0001FFF0
07FF0000FFF0
07FF00007FF0
07FF00007FF0
07FF00007FF0
07FF00007FF0
07FF00007FF0
07FF00007FF0
07FF00007FF0
07FF00007FF0
07FF00007FF0
07FF00007FF0
07FF00007FF0
07FF00007FF0
07FF00007FF0
07FF00007FF0
07FF00007FF0
07FF00007FF0
07FF00007FF0
07FF00007FF0
07FF00007FF0
07FF00007FF0
07FF00007FF0
07FF00007FF0
07FF00007FF0
07FF00007FF0
07FF00007FF0
07FF00007FF0
07FF00007FF0
07FF00007FF0
07FF00007FF0
07FF00007FF0
ENDCHAR
STARTCHAR 00F2
ENCODING 242
SWIDTH 821 0
DWIDTH 73 0
BBX 67 80 3 -1
BITMAP
000000FF0000000000
0000007F8000000000
0000007F8000000000
0000003FC000000000
0000001FC000000000
0000000FE000000000
0000000FE000000000
00000007F000000000
00000003F000000000
00000003F800000000
00000001FC00000000
00000000FC00000000
000000000000000000
000000000000000000
000000000000000000
00000001F000000000
0000007FFFC0000000
000007FFFFFC000000
00001FFFFFFF000000
00007FFFFFFFC00000
0001FFFFFFFFF00000
0003FFFFFFFFF80000
000FFFFFFFFFFE0000
001FFFFFFFFFFF0000
003FFFFFFFFFFF8000
007FFFFFFFFFFFC000
00FFFFF001FFFFE000
01FFFF80001FFFF000
03FFFC000007FFF800
03FFF8000003FFF800
07FFE0000000FFFC00
0FFFC00000007FFE00
0FFF800000003FFE00
1FFF000000001FFF00
1FFF000000000FFF00
3FFE000000000FFF80
3FFC0000000007FF80
3FFC0000000007FF80
7FF80000000003FFC0
7FF80000000003FFC0
7FF00000000001FFC0
7FF00000000001FFC0
FFF00000000001FFE0
FFF00000000001FFE0
FFE00000000000FFE0
FFE00000000000FFE0
FFE00000000000FFE0
FFE00000000000FFE0
FFE00000000000FFE0
FFE00000000000FFE0
FFE00000000000FFE0
FFE00000000000FFE0
FFF00000000001FFE0
7FF00000000001FFC0
7FF00000000001FFC0
7FF00000000001FFC0
7FF80000000003FFC0
7FF80000000003FFC0
3FFC0000000007FF80
3FFC0000000007FF80
1FFE000000000FFF00
1FFF000000001FFF00
1FFF000000001FFF00
0FFF800000003FFE00
07FFC00000007FFC00
07FFF0000001FFFC00
03FFF8000003FFF800
01FFFE00000FFFF000
01FFFF80003FFFF000
00FFFFF803FFFFE000
007FFFFFFFFFFFC000
003FFFFFFFFFFF8000
001FFFFFFFFFFF0000
0007FFFFFFFFFE0000
0003FFFFFFFFF80000
0000FFFFFFFFF00000
00007FFFFFFFC00000
00001FFFFFFF000000
000003FFFFF8000000
0000003FFF80000000
ENDCHAR
STARTCHAR 00F3
ENCODING 243
SWIDTH 821 0
DWIDTH 73 0
BBX 67 80 3 -1
BITMAP
000000001FE0000000
000000003FE0000000
000000003FC0000000
000000007F80000000
000000007F00000000
00000000FF00000000
00000000FE00000000
00000001FC00000000
00000001FC00000000
00000003F800000000
00000003F000000000
00000007E000000000
000000000000000000
000000000000000000
000000000000000000
00000001F000000000
0000007FFFC0000000
000007FFFFFC000000
00001FFFFFFF000000
00007FFFFFFFC00000
0001FFFFFFFFF00000
0003FFFFFFFFF80000
000FFFFFFFFFFE0000
001FFFFFFFFFFF0000
003FFFFFFFFFFF8000
007FFFFFFFFFFFC000
00FFFFF001FFFFE000
01FFFF80001FFFF000
03FFFC000007FFF800
03FFF8000003FFF800
07FFE0000000FFFC00
0FFFC00000007FFE00
0FFF800000003FFE00
1FFF000000001FFF00
1FFF000000000FFF00
3FFE000000000FFF80
3FFC0000000007FF80
3FFC0000000007FF80
7FF80000000003FFC0
7FF80000000003FFC0
7FF00000000001FFC0
7FF00000000001FFC0
FFF00000000001FFE0
FFF00000000001FFE0
FFE00000000000FFE0
FFE00000000000FFE0
FFE00000000000FFE0
FFE00000000000FFE0
FFE00000000000FFE0
FFE00000000000FFE0
FFE00000000000FFE0
FFE00000000000FFE0
FFF00000000001FFE0
7FF00000000001FFC0
7FF00000000001FFC0
7FF00000000001FFC0
7FF80000000003FFC0
7FF80000000003FFC0
3FFC0000000007FF80
3FFC0000000007FF80
1FFE000000000FFF00
1FFF000000001FFF00
1FFF000000001FFF00
0FFF800000003FFE00
07FFC00000007FFC00
07FFF0000001FFFC00
03FFF8000003FFF800
01FFFE00000FFFF000
01FFFF80003FFFF000
00FFFFF803FFFFE000
007FFFFFFFFFFFC000
003FFFFFFFFFFF8000
001FFFFFFFFFFF0000
0007FFFFFFFFFE0000
0003FFFFFFFFF80000
0000FFFFFFFFF00000
00007FFFFFFFC00000
00001FFFFFFF000000
000003FFFFF8000000
0000003FFF80000000
ENDCHAR
STARTCHAR 00F4
ENCODING 244
SWIDTH 821 0
DWIDTH 73 0
BBX 67 80 3 -1
BITMAP
0000001FFF00000000
0000001FFF80000000
0000003FFF80000000
0000007FFFC0000000
000000FFFFE0000000
000000FFBFF0000000
000001FF1FF0000000
000003FE0FF8000000
000007FC07FC000000
000007FC07FC000000
00000FF803FE000000
00001FF001FF000000
000000000000000000
000000000000000000
000000000000000000
00000001F000000000
0000007FFFC0000000
000007FFFFFC000000
00001FFFFFFF000000
00007FFFFFFFC00000
0001FFFFFFFFF00000
0003FFFFFFFFF80000
000FFFFFFFFFFE0000
001FFFFFFFFFFF0000
003FFFFFFFFFFF8000
007FFFFFFFFFFFC000
00FFFFF001FFFFE000
01FFFF80001FFFF000
03FFFC000007FFF800
03FFF8000003FFF800
07FFE0000000FFFC00
0FFFC00000007FFE00
0FFF800000003FFE00
1FFF000000001FFF00
1FFF000000000FFF00
3FFE000000000FFF80
3FFC0000000007FF80
3FFC0000000007FF80
7FF80000000003FFC0
7FF80000000003FFC0
7FF00000000001FFC0
7FF00000000001FFC0
FFF00000000001FFE0
FFF00000000001FFE0
FFE00000000000FFE0
FFE00000000000FFE0
FFE00000000000FFE0
FFE00000000000FFE0
FFE00000000000FFE0
FFE00000000000FFE0
FFE00000000000FFE0
FFE00000000000FFE0
FFF00000000001FFE0
7FF00000000001FFC0
7FF00000000001FFC0
7FF00000000001FFC0
7FF80000000003FFC0
7FF80000000003FFC0
3FFC0000000007FF80
3FFC0000000007FF80
1FFE000000000FFF00
1FFF000000001FFF00
1FFF000000001FFF00
0FFF800000003FFE00
07FFC00000007FFC00
07FFF0000001FFFC00
03FFF8000003FFF800
01FFFE00000FFFF000
01FFFF80003FFFF000
00FFFFF803FFFFE000
007FFFFFFFFFFFC000
003FFFFFFFFFFF8000
001FFFFFFFFFFF0000
0007FFFFFFFFFE0000
0003FFFFFFFFF80000
0000FFFFFFFFF00000
00007FFFFFFFC00000
00001FFFFFFF000000
000003FFFFF8000000
0000003FFF80000000
ENDCHAR
STARTCHAR 00F5
ENCODING 245
SWIDTH 821 0
DWIDTH 73 0
BBX 67 80 3 -1
BITMAP
000001FF0000000000
000003FFE0E0000000
000003FFFFE0000000
000003FFFFE0000000
000003FFFFE0000000
000003FFFFE0000000
000003FFFFE0000000
00000000FFE0000000
000000000E00000000
000000000000000000
000000000000000000
000000000000000000
000000000000000000
000000000000000000
000000000000000000
00000001F000000000
0000007FFFC0000000
000007FFFFFC000000
00001FFFFFFF000000
00007FFFFFFFC00000
0001FFFFFFFFF00000
0003FFFFFFFFF80000
000FFFFFFFFFFE0000
001FFFFFFFFFFF0000
003FFFFFFFFFFF8000
007FFFFFFFFFFFC000
00FFFFF001FFFFE000
01FFFF80001FFFF000
03FFFC000007FFF800
03FFF8000003FFF800
07FFE0000000FFFC00
0FFFC00000007FFE00
0FFF800000003FFE00
1FFF000000001FFF00
1FFF000000000FFF00
3FFE000000000FFF80
3FFC0000000007FF80
3FFC0000000007FF80
7FF80000000003FFC0
7FF80000000003FFC0
7FF00000000001FFC0
7FF00000000001FFC0
FFF00000000001FFE0
FFF00000000001FFE0
FFE00000000000FFE0
FFE00000000000FFE0
FFE00000000000FFE0
FFE00000000000FFE0
FFE00000000000FFE0
FFE00000000000FFE0
FFE00000000000FFE0
FFE00000000000FFE0
FFF00000000001FFE0
7FF00000000001FFC0
7FF00000000001FFC0
7FF00000000001FFC0
7FF80000000003FFC0
7FF80000000003FFC0
3FFC0000000007FF80
3FFC0000000007FF80
1FFE000000000FFF00
1FFF000000001FFF00
1FFF000000001FFF00
0FFF800000003FFE00
07FFC00000007FFC00
07FFF0000001FFFC00
03FFF8000003FFF800
01FFFE00000FFFF000
01FFFF80003FFFF000
00FFFFF803FFFFE000
007FFFFFFFFFFFC000
003FFFFFFFFFFF8000
001FFFFFFFFFFF0000
0007FFFFFFFFFE0000
0003FFFFFFFFF80000
0000FFFFFFFFF00000
00007FFFFFFFC00000
00001FFFFFFF000000
000003FFFFF8000000
0000003FFF80000000
ENDCHAR
STARTCHAR 00F6
ENCODING 246
SWIDTH 821 0
DWIDTH 73 0
BBX 67 82 3 -1
BITMAP
000001000008000000
00000FE0007F000000
00001FF801FFC00000
00003FFC01FFE00000
00007FFC03FFE00000
00007FFE03FFE00000
00007FFE07FFF00000
0000FFFE07FFF00000
00007FFE07FFF00000
00007FFE03FFE00000
00007FFC03FFE00000
00003FFC01FFE00000
00003FF801FFC00000
00000FF0007F800000
000003C0001C000000
000000000000000000
000000000000000000
00000001F000000000
0000007FFFC0000000
000007FFFFFC000000
00001FFFFFFF000000
00007FFFFFFFC00000
0001FFFFFFFFF00000
0003FFFFFFFFF80000
000FFFFFFFFFFE0000
001FFFFFFFFFFF0000
003FFFFFFFFFFF8000
007FFFFFFFFFFFC000
00FFFFF001FFFFE000
01FFFF80001FFFF000
03FFFC000007FFF800
03FFF8000003FFF800
07FFE0000000FFFC00
0FFFC00000007FFE00
0FFF800000003FFE00
1FFF000000001FFF00
1FFF000000000FFF00
3FFE000000000FFF80
3FFC0000000007FF80
3FFC0000000007FF80
7FF80000000003FFC0
7FF80000000003FFC0
7FF00000000001FFC0
7FF00000000001FFC0
FFF00000000001FFE0
FFF00000000001FFE0
FFE00000000000FFE0
FFE00000000000FFE0
FFE00000000000FFE0
FFE00000000000FFE0
FFE00000000000FFE0
FFE00000000000FFE0
FFE00000000000FFE0
FFE00000000000FFE0
FFF00000000001FFE0
7FF00000000001FFC0
7FF00000000001FFC0
7FF00000000001FFC0
7FF80000000003FFC0
7FF80000000003FFC0
3FFC0000000007FF80
3FFC0000000007FF80
1FFE000000000FFF00
1FFF000000001FFF00
1FFF000000001FFF00
0FFF800000003FFE00
07FFC00000007FFC00
07FFF0000001FFFC00
03FFF8000003FFF800
01FFFE00000FFFF000
01FFFF80003FFFF000
00FFFFF803FFFFE000
007FFFFFFFFFFFC000
003FFFFFFFFFFF8000
001FFFFFFFFFFF0000
0007FFFFFFFFFE0000
0003FFFFFFFFF80000
0000FFFFFFFFF00000
00007FFFFFFFC00000
00001FFFFFFF000000
000003FFFFF8000000
0000003FFF80000000
ENDCHAR
STARTCHAR 00F7
ENCODING 247
SWIDTH 562 0
DWIDTH 50 0
BBX 41 43 5 7
BITMAP
000008000000
00007F000000
0000FF800000
0001FFC00000
0001FFC00000
0003FFE00000
0003FFE00000
0003FFE00000
0001FFC00000
0001FFC00000
0000FF800000
00007F000000
000000000000
000000000000
000000000000
000000000000
000000000000
FFFFFFFFFF80
FFFFFFFFFF80
FFFFFFFFFF80
FFFFFFFFFF80
FFFFFFFFFF80
FFFFFFFFFF80
FFFFFFFFFF80
FFFFFFFFFF80
FFFFFFFFFF80
000000000000
000000000000
000000000000
000000000000
000008000000
00007F000000
0000FF800000
0001FFC00000
0001FFC00000
0003FFE00000
0003FFE00000
0003FFE00000
0001FFC00000
0001FFC00000
0000FF800000
00007F000000
000008000000
ENDCHAR
STARTCHAR 00F8
ENCODING 248
SWIDTH 798 0
DWIDTH 71 0
BBX 67 69 2 -3
BITMAP
000000000000002000
000000000000007000
00000000F00000F800
0000007FFFE000FC00
000007FFFFFC01FE00
00001FFFFFFF03FF00
00007FFFFFFFC7FE00
0001FFFFFFFFFFFC00
0003FFFFFFFFFFF800
000FFFFFFFFFFFF800
001FFFFFFFFFFFF000
003FFFFFFFFFFFE000
007FFFFFFFFFFFC000
00FFFFF000FFFFE000
01FFFF80001FFFF000
03FFFE000007FFF800
03FFF800000FFFFC00
07FFF000001FFFFC00
07FFC000001FFFFE00
0FFF8000003FFFFE00
1FFF0000007FFFFF00
1FFF000000FFCFFF00
1FFE000001FF8FFF80
3FFC000003FF07FF80
3FFC000007FE03FF80
3FF800000FFE03FFC0
7FF800000FFC03FFC0
7FF000001FF801FFC0
7FF000003FF001FFC0
7FF000007FE001FFE0
FFF00000FFC000FFE0
FFF00001FF8000FFE0
FFE00003FF0000FFE0
FFE00003FF0000FFE0
FFE00007FE0000FFE0
FFE0000FFC0000FFE0
FFE0001FF80000FFE0
FFE0003FF00000FFE0
FFF0007FE00000FFE0
7FF000FFC00001FFE0
7FF001FFC00001FFE0
7FF001FF800001FFC0
7FF803FF000001FFC0
7FF807FE000003FFC0
3FF80FFC000003FFC0
3FFC1FF8000007FF80
3FFC3FF0000007FF80
1FFE7FE000000FFF80
1FFF7FE000001FFF00
0FFFFFC000001FFF00
0FFFFF8000003FFE00
07FFFF0000007FFE00
07FFFE000001FFFC00
03FFFC000003FFF800
01FFFE00000FFFF800
00FFFF80003FFFF000
00FFFFF803FFFFE000
007FFFFFFFFFFFC000
00FFFFFFFFFFFF8000
01FFFFFFFFFFFF0000
03FFFFFFFFFFFE0000
07FFFFFFFFFFF80000
0FFCFFFFFFFFF00000
1FFC7FFFFFFFC00000
1FF80FFFFFFF000000
0FF003FFFFF8000000
07E0003FFF80000000
03C000000000000000
018000000000000000
ENDCHAR
STARTCHAR 00F9
ENCODING 249
SWIDTH 528 0
DWIDTH 47 0
BBX 39 80 4 -1
BITMAP
003FC00000
001FE00000
001FE00000
000FF00000
0007F00000
0003F80000
0003F80000
0001FC0000
0000FC0000
0000FE0000
00007E0000
00003F0000
0000000000
0000000000
0000000000
0000000000
0000000000
FFE0000FFE
FFE0000FFE
FFE0000FFE
FFE0000FFE
FFE0000FFE
FFE0000FFE
FFE0000FFE
FFE0000FFE
FFE0000FFE
FFE0000FFE
FFE0000FFE
FFE0000FFE
FFE0000FFE
FFE0000FFE
FFE0000FFE
FFE0000FFE
FFE0000FFE
FFE0000FFE
FFE0000FFE
FFE0000FFE
FFE0000FFE
FFE0000FFE
FFE0000FFE
FFE0000FFE
FFE0000FFE
FFE0000FFE
FFE0000FFE
FFE0000FFE
FFE0000FFE
FFE0000FFE
FFE0000FFE
FFE0000FFE
FFE0000FFE
FFE0000FFE
FFE0000FFE
FFE0000FFE
FFE0000FFE
FFE0000FFE
FFE0000FFE
FFE0000FFE
FFE0000FFE
FFE0000FFE
FFE0000FFE
FFE0000FFE
FFE0000FFE
FFE0000FFE
FFF0001FFE
7FF0001FFC
7FF0001FFC
7FF8003FFC
7FFC007FFC
3FFE00FFF8
3FFF83FFF8
1FFFFFFFF0
1FFFFFFFF0
0FFFFFFFE0
07FFFFFFC0
07FFFFFFC0
03FFFFFF80
00FFFFFE00
007FFFFC00
001FFFF000
0003FF8000
ENDCHAR
STARTCHAR 00FA
ENCODING 250
SWIDTH 528 0
DWIDTH 47 0
BBX 39 80 4 -1
BITMAP
000007F800
00000FF800
00000FF000
00001FE000
00001FC000
00003FC000
00003F8000
00007F0000
00007F0000
0000FE0000
0000FC0000
0001F80000
0000000000
0000000000
0000000000
0000000000
0000000000
FFE0000FFE
FFE0000FFE
FFE0000FFE
FFE0000FFE
FFE0000FFE
FFE0000FFE
FFE0000FFE
FFE0000FFE
FFE0000FFE
FFE0000FFE
FFE0000FFE
FFE0000FFE
FFE0000FFE
FFE0000FFE
FFE0000FFE
FFE0000FFE
FFE0000FFE
FFE0000FFE
FFE0000FFE
FFE0000FFE
FFE0000FFE
FFE0000FFE
FFE0000FFE
FFE0000FFE
FFE0000FFE
FFE0000FFE
FFE0000FFE
FFE0000FFE
FFE0000FFE
FFE0000FFE
FFE0000FFE
FFE0000FFE
FFE0000FFE
FFE0000FFE
FFE0000FFE
FFE0000FFE
FFE0000FFE
FFE0000FFE
FFE0000FFE
FFE0000FFE
FFE0000FFE
FFE0000FFE
FFE0000FFE
FFE0000FFE
FFE0000FFE
FFE0000FFE
FFF0001FFE
7FF0001FFC
7FF0001FFC
7FF8003FFC
7FFC007FFC
3FFE00FFF8
3FFF83FFF8
1FFFFFFFF0
1FFFFFFFF0
0FFFFFFFE0
07FFFFFFC0
07FFFFFFC0
03FFFFFF80
00FFFFFE00
007FFFFC00
001FFFF000
0003FF8000
ENDCHAR
STARTCHAR 00FB
ENCODING 251
SWIDTH 528 0
DWIDTH 47 0
BBX 39 80 4 -1
BITMAP
0007FFC000
0007FFE000
000FFFE000
001FFFF000
003FFFF800
003FEFFC00
007FC7FC00
00FF83FE00
01FF01FF00
01FF01FF00
03FE00FF80
07FC007FC0
0000000000
0000000000
0000000000
0000000000
0000000000
FFE0000FFE
FFE0000FFE
FFE0000FFE
FFE0000FFE
FFE0000FFE
FFE0000FFE
FFE0000FFE
FFE0000FFE
FFE0000FFE
FFE0000FFE
FFE0000FFE
FFE0000FFE
FFE0000FFE
FFE0000FFE
FFE0000FFE
FFE0000FFE
FFE0000FFE
FFE0000FFE
FFE0000FFE
FFE0000FFE
FFE0000FFE
FFE0000FFE
FFE0000FFE
FFE0000FFE
FFE0000FFE
FFE0000FFE
FFE0000FFE
FFE0000FFE
FFE0000FFE
FFE0000FFE
FFE0000FFE
FFE0000FFE
FFE0000FFE
FFE0000FFE
FFE0000FFE
FFE0000FFE
FFE0000FFE
FFE0000FFE
FFE0000FFE
FFE0000FFE
FFE0000FFE
FFE0000FFE
FFE0000FFE
FFE0000FFE
FFE0000FFE
FFE0000FFE
FFF0001FFE
7FF0001FFC
7FF0001FFC
7FF8003FFC
7FFC007FFC
3FFE00FFF8
3FFF83FFF8
1FFFFFFFF0
1FFFFFFFF0
0FFFFFFFE0
07FFFFFFC0
07FFFFFFC0
03FFFFFF80
00FFFFFE00
007FFFFC00
001FFFF000
0003FF8000
ENDCHAR
STARTCHAR 00FC
ENCODING 252
SWIDTH 528 0
DWIDTH 47 0
BBX 39 82 4 -1
BITMAP
0040000200
03F8001FC0
07FE007FF0
0FFF007FF0
1FFF00FFF8
1FFF00FFF8
3FFF81FFFC
3FFF81FFFC
3FFF81FFFC
1FFF80FFF8
1FFF00FFF8
0FFF00FFF0
0FFE007FF0
03FC001FC0
00E0000700
0000000000
0000000000
0000000000
0000000000
FFE0000FFE
FFE0000FFE
FFE0000FFE
FFE0000FFE
FFE0000FFE
FFE0000FFE
FFE0000FFE
FFE0000FFE
FFE0000FFE
FFE0000FFE
FFE0000FFE
FFE0000FFE
FFE0000FFE
FFE0000FFE
FFE0000FFE
FFE0000FFE
FFE0000FFE
FFE0000FFE
FFE0000FFE
FFE0000FFE
FFE0000FFE
FFE0000FFE
FFE0000FFE
FFE0000FFE
FFE0000FFE
FFE0000FFE
FFE0000FFE
FFE0000FFE
FFE0000FFE
FFE0000FFE
FFE0000FFE
FFE0000FFE
FFE0000FFE
FFE0000FFE
FFE0000FFE
FFE0000FFE
FFE0000FFE
FFE0000FFE
FFE0000FFE
FFE0000FFE
FFE0000FFE
FFE0000FFE
FFE0000FFE
FFE0000FFE
FFE0000FFE
FFE0000FFE
FFF0001FFE
7FF0001FFC
7FF0001FFC
7FF8003FFC
7FFC007FFC
3FFE00FFF8
3FFF83FFF8
1FFFFFFFF0
1FFFFFFFF0
0FFFFFFFE0
07FFFFFFC0
07FFFFFFC0
03FFFFFF80
00FFFFFE00
007FFFFC00
001FFFF000
0003FF8000
ENDCHAR
STARTCHAR 00FD
ENCODING 253
SWIDTH 517 0
DWIDTH 46 0
BBX 39 79 4 0
BITMAP
00000FF800
00000FF000
00001FE000
00001FE000
00003FC000
00003F8000
00007F8000
00007F0000
0000FE0000
0000FC0000
0001FC0000
0001F80000
0000000000
0000000000
0000000000
0000000000
0000000000
FFE0001FFE
FFE0001FFE
FFE0001FFE
FFE0001FFE
FFE0001FFE
FFE0001FFE
FFE0001FFE
FFE0001FFE
FFE0001FFE
FFE0001FFE
FFE0001FFE
FFE0001FFE
FFE0001FFE
FFE0001FFE
FFE0001FFE
FFE0001FFE
FFE0001FFE
FFE0001FFE
FFE0001FFE
FFE0001FFE
FFE0001FFE
FFE0001FFE
FFE0001FFE
FFE0001FFE
FFE0001FFE
FFE0001FFE
FFE0001FFE
FFE0001FFE
FFE0001FFC
FFE0001FFC
FFE0001FFC
FFE0001FFC
FFF0003FFC
FFF0003FFC
7FF8007FF8
7FFC00FFF8
7FFE01FFF8
3FFFFFFFF0
3FFFFFFFF0
1FFFFFFFE0
0FFFFFFFC0
07FFFFFFC0
03FFFFFF80
01FFFFFF00
00FFFFFC00
003FFFF000
000FFFC000
0003FF8000
0003FF8000
0003FF8000
0003FF8000
0003FF8000
0003FF8000
0003FF8000
0003FF8000
0003FF8000
0003FF8000
0003FF8000
0003FF8000
0003FF8000
0003FF8000
0003FF8000
ENDCHAR
STARTCHAR 00FF
ENCODING 255
SWIDTH 517 0
DWIDTH 46 0
BBX 39 81 4 0
BITMAP
0080000600
07F8003FC0
0FFC007FE0
1FFE00FFF0
1FFF00FFF8
3FFF01FFF8
3FFF01FFF8
3FFF01FFF8
3FFF01FFF8
3FFF01FFF8
1FFF01FFF8
1FFE00FFF0
0FFC007FE0
07F8003FC0
00E0000F00
0000000000
0000000000
0000000000
0000000000
FFE0001FFE
FFE0001FFE
FFE0001FFE
FFE0001FFE
FFE0001FFE
FFE0001FFE
FFE0001FFE
FFE0001FFE
FFE0001FFE
FFE0001FFE
FFE0001FFE
FFE0001FFE
FFE0001FFE
FFE0001FFE
FFE0001FFE
FFE0001FFE
FFE0001FFE
FFE0001FFE
FFE0001FFE
FFE0001FFE
FFE0001FFE
FFE0001FFE
FFE0001FFE
FFE0001FFE
FFE0001FFE
FFE0001FFE
FFE0001FFE
FFE0001FFE
FFE0001FFC
FFE0001FFC
FFE0001FFC
FFE0001FFC
FFF0003FFC
FFF0003FFC
7FF8007FF8
7FFC00FFF8
7FFE01FFF8
3FFFFFFFF0
3FFFFFFFF0
1FFFFFFFE0
0FFFFFFFC0
07FFFFFFC0
03FFFFFF80
01FFFFFF00
00FFFFFC00
003FFFF000
000FFFC000
0003FF8000
0003FF8000
0003FF8000
0003FF8000
0003FF8000
0003FF8000
0003FF8000
0003FF8000
0003FF8000
0003FF8000
0003FF8000
0003FF8000
0003FF8000
0003FF8000
0003FF8000
ENDCHAR
STARTCHAR 0100
ENCODING 256
SWIDTH 562 0
DWIDTH 50 0
BBX 45 78 4 0
BITMAP
01FFFFFF8000
01FFFFFF8000
01FFFFFF8000
01FFFFFF8000
01FFFFFF8000
01FFFFFF8000
01FFFFFF8000
01FFFFFF8000
01FFFFFF8000
000000000000
000000000000
000000000000
000000000000
000000000000
000038000000
0007FFE00000
001FFFF80000
007FFFFE0000
00FFFFFF0000
01FFFFFF8000
03FFFFFFC000
07FFFFFFE000
0FFFFFFFF000
1FFFFFFFF000
1FFFFFFFF800
3FFF01FFF800
3FFE007FFC00
3FFC003FFC00
7FF8001FFE00
7FF8001FFE00
7FF0000FFE00
7FF0000FFE00
7FF0000FFE00
7FF0000FFE00
FFF0000FFE00
FFF0000FFE00
FFF0000FFE00
FFF0000FFE00
FFF0000FFE00
FFF0000FFE00
FFF0000FFE00
FFF0000FFE00
FFF0000FFE00
FFF0000FFE00
FFF0000FFE00
FFF0000FFE00
FFF0000FFE00
FFF0000FFE00
FFF0000FFE00
FFF0000FFE00
FFF0000FFE00
FFF0000FFE00
FFF0000FFE00
FFF0000FFE00
FFF0000FFE00
FFF0000FFE00
FFF0000FFE00
FFF0000FFE00
FFF0000FFE00
FFF0000FFE00
FFF0000FFE00
FFF0000FFE00
FFF0000FFE00
FFF0000FFE00
FFF0000FFE00
FFF0000FFE00
FFF0000FFE00
FFF0000FFE00
FFFFFFFFFFF8
FFFFFFFFFFF8
FFFFFFFFFFF8
FFFFFFFFFFF8
FFFFFFFFFFF8
FFFFFFFFFFF8
FFFFFFFFFFF8
FFFFFFFFFFF8
FFFFFFFFFFF8
FFFFFFFFFFF8
ENDCHAR
STARTCHAR 0101
ENCODING 257
SWIDTH 562 0
DWIDTH 50 0
BBX 45 78 4 0
BITMAP
01FFFFFF8000
01FFFFFF8000
01FFFFFF8000
01FFFFFF8000
01FFFFFF8000
01FFFFFF8000
01FFFFFF8000
01FFFFFF8000
01FFFFFF8000
000000000000
000000000000
000000000000
000000000000
000000000000
000038000000
0007FFE00000
001FFFF80000
007FFFFE0000
00FFFFFF0000
01FFFFFF8000
03FFFFFFC000
07FFFFFFE000
0FFFFFFFF000
1FFFFFFFF000
1FFFFFFFF800
3FFF01FFF800
3FFE007FFC00
3FFC003FFC00
7FF8001FFE00
7FF8001FFE00
7FF0000FFE00
7FF0000FFE00
7FF0000FFE00
7FF0000FFE00
FFF0000FFE00
FFF0000FFE00
FFF0000FFE00
FFF0000FFE00
FFF0000FFE00
FFF0000FFE00
FFF0000FFE00
FFF0000FFE00
FFF0000FFE00
FFF0000FFE00
FFF0000FFE00
FFF0000FFE00
FFF0000FFE00
FFF0000FFE00
FFF0000FFE00
FFF0000FFE00
FFF0000FFE00
FFF0000FFE00
FFF0000FFE00
FFF0000FFE00
FFF0000FFE00
FFF0000FFE00
FFF0000FFE00
FFF0000FFE00
FFF0000FFE00
FFF0000FFE00
FFF0000FFE00
FFF0000FFE00
FFF0000FFE00
FFF0000FFE00
FFF0000FFE00
FFF0000FFE00
FFF0000FFE00
FFF0000FFE00
FFFFFFFFFFF8
FFFFFFFFFFF8
FFFFFFFFFFF8
FFFFFFFFFFF8
FFFFFFFFFFF8
FFFFFFFFFFF8
FFFFFFFFFFF8
FFFFFFFFFFF8
FFFFFFFFFFF8
FFFFFFFFFFF8
ENDCHAR
STARTCHAR 0102
ENCODING 258
SWIDTH 562 0
DWIDTH 50 0
BBX 45 79 4 0
BITMAP
01FC003F8000
01FE007F0000
00FE007F0000
00FF00FF0000
00FF81FF0000
007FFFFE0000
003FFFFC0000
003FFFF80000
001FFFF00000
0007FFE00000
0001FF800000
000000000000
000000000000
000000000000
000000000000
000038000000
0007FFE00000
001FFFF80000
007FFFFE0000
00FFFFFF0000
01FFFFFF8000
03FFFFFFC000
07FFFFFFE000
0FFFFFFFF000
1FFFFFFFF000
1FFFFFFFF800
3FFF01FFF800
3FFE007FFC00
3FFC003FFC00
7FF8001FFE00
7FF8001FFE00
7FF0000FFE00
7FF0000FFE00
7FF0000FFE00
7FF0000FFE00
FFF0000FFE00
FFF0000FFE00
FFF0000FFE00
FFF0000FFE00
FFF0000FFE00
FFF0000FFE00
FFF0000FFE00
FFF0000FFE00
FFF0000FFE00
FFF0000FFE00
FFF0000FFE00
FFF0000FFE00
FFF0000FFE00
FFF0000FFE00
FFF0000FFE00
FFF0000FFE00
FFF0000FFE00
FFF0000FFE00
FFF0000FFE00
FFF0000FFE00
FFF0000FFE00
FFF0000FFE00
FFF0000FFE00
FFF0000FFE00
FFF0000FFE00
FFF0000FFE00
FFF0000FFE00
FFF0000FFE00
FFF0000FFE00
FFF0000FFE00
FFF0000FFE00
FFF0000FFE00
FFF0000FFE00
FFF0000FFE00
FFFFFFFFFFF8
FFFFFFFFFFF8
FFFFFFFFFFF8
FFFFFFFFFFF8
FFFFFFFFFFF8
FFFFFFFFFFF8
FFFFFFFFFFF8
FFFFFFFFFFF8
FFFFFFFFFFF8
FFFFFFFFFFF8
ENDCHAR
STARTCHAR 0103
ENCODING 259
SWIDTH 562 0
DWIDTH 50 0
BBX 45 79 4 0
BITMAP
01FC003F8000
01FE007F0000
00FE007F0000
00FF00FF0000
00FF81FF0000
007FFFFE0000
003FFFFC0000
003FFFF80000
001FFFF00000
0007FFE00000
0001FF800000
000000000000
000000000000
000000000000
000000000000
000038000000
0007FFE00000
001FFFF80000
007FFFFE0000
00FFFFFF0000
01FFFFFF8000
03FFFFFFC000
07FFFFFFE000
0FFFFFFFF000
1FFFFFFFF000
1FFFFFFFF800
3FFF01FFF800
3FFE007FFC00
3FFC003FFC00
7FF8001FFE00
7FF8001FFE00
7FF0000FFE00
7FF0000FFE00
7FF0000FFE00
7FF0000FFE00
FFF0000FFE00
FFF0000FFE00
FFF0000FFE00
FFF0000FFE00
FFF0000FFE00
FFF0000FFE00
FFF0000FFE00
FFF0000FFE00
FFF0000FFE00
FFF0000FFE00
FFF0000FFE00
FFF0000FFE00
FFF0000FFE00
FFF0000FFE00
FFF0000FFE00
FFF0000FFE00
FFF0000FFE00
FFF0000FFE00
FFF0000FFE00
FFF0000FFE00
FFF0000FFE00
FFF0000FFE00
FFF0000FFE00
FFF0000FFE00
FFF0000FFE00
FFF0000FFE00
FFF0000FFE00
FFF0000FFE00
FFF0000FFE00
FFF0000FFE00
FFF0000FFE00
FFF0000FFE00
FFF0000FFE00
FFF0000FFE00
FFFFFFFFFFF8
FFFFFFFFFFF8
FFFFFFFFFFF8
FFFFFFFFFFF8
FFFFFFFFFFF8
FFFFFFFFFFF8
FFFFFFFFFFF8
FFFFFFFFFFF8
FFFFFFFFFFF8
FFFFFFFFFFF8
ENDCHAR
STARTCHAR 0104
ENCODING 260
SWIDTH 562 0
DWIDTH 50 0
BBX 49 81 4 -17
BITMAP
00003800000000
0007FFE0000000
001FFFF8000000
007FFFFE000000
00FFFFFF000000
01FFFFFF800000
03FFFFFFC00000
07FFFFFFE00000
0FFFFFFFF00000
1FFFFFFFF00000
1FFFFFFFF80000
3FFF01FFF80000
3FFE007FFC0000
3FFC003FFC0000
7FF8001FFE0000
7FF8001FFE0000
7FF0000FFE0000
7FF0000FFE0000
7FF0000FFE0000
7FF0000FFE0000
FFF0000FFE0000
FFF0000FFE0000
FFF0000FFE0000
FFF0000FFE0000
FFF0000FFE0000
FFF0000FFE0000
FFF0000FFE0000
FFF0000FFE0000
FFF0000FFE0000
FFF0000FFE0000
FFF0000FFE0000
FFF0000FFE0000
FFF0000FFE0000
FFF0000FFE0000
FFF0000FFE0000
FFF0000FFE0000
FFF0000FFE0000
FFF0000FFE0000
FFF0000FFE0000
FFF0000FFE0000
FFF0000FFE0000
FFF0000FFE0000
FFF0000FFE0000
FFF0000FFE0000
FFF0000FFE0000
FFF0000FFE0000
FFF0000FFE0000
FFF0000FFE0000
FFF0000FFE0000
FFF0000FFE0000
FFF0000FFE0000
FFF0000FFE0000
FFF0000FFE0000
FFF0000FFE0000
FFFFFFFFFFF800
FFFFFFFFFFF800
FFFFFFFFFFF800
FFFFFFFFFFF800
FFFFFFFFFFF800
FFFFFFFFFFF800
FFFFFFFFFFF800
FFFFFFFFFFF800
FFFFFFFFFFF800
FFFFFFFFFFF800
000000001FE000
000000007F8000
00000000FE0000
00000000FC0000
00000001F80000
00000003F80000
00000003F00000
00000003F00000
00000003F00000
00000003F00C00
00000003F81E00
00000003FC3F00
00000001FFFF80
00000001FFFF80
00000000FFFF00
000000007FFC00
000000001FF000
ENDCHAR
STARTCHAR 0105
ENCODING 261
SWIDTH 562 0
DWIDTH 50 0
BBX 49 81 4 -17
BITMAP
00003800000000
0007FFE0000000
001FFFF8000000
007FFFFE000000
00FFFFFF000000
01FFFFFF800000
03FFFFFFC00000
07FFFFFFE00000
0FFFFFFFF00000
1FFFFFFFF00000
1FFFFFFFF80000
3FFF01FFF80000
3FFE007FFC0000
3FFC003FFC0000
7FF8001FFE0000
7FF8001FFE0000
7FF0000FFE0000
7FF0000FFE0000
7FF0000FFE0000
7FF0000FFE0000
FFF0000FFE0000
FFF0000FFE0000
FFF0000FFE0000
FFF0000FFE0000
FFF0000FFE0000
FFF0000FFE0000
FFF0000FFE0000
FFF0000FFE0000
FFF0000FFE0000
FFF0000FFE0000
FFF0000FFE0000
FFF0000FFE0000
FFF0000FFE0000
FFF0000FFE0000
FFF0000FFE0000
FFF0000FFE0000
FFF0000FFE0000
FFF0000FFE0000
FFF0000FFE0000
FFF0000FFE0000
FFF0000FFE0000
FFF0000FFE0000
FFF0000FFE0000
FFF0000FFE0000
FFF0000FFE0000
FFF0000FFE0000
FFF0000FFE0000
FFF0000FFE0000
FFF0000FFE0000
FFF0000FFE0000
FFF0000FFE0000
FFF0000FFE0000
FFF0000FFE0000
FFF0000FFE0000
FFFFFFFFFFF800
FFFFFFFFFFF800
FFFFFFFFFFF800
FFFFFFFFFFF800
FFFFFFFFFFF800
FFFFFFFFFFF800
FFFFFFFFFFF800
FFFFFFFFFFF800
FFFFFFFFFFF800
FFFFFFFFFFF800
000000001FE000
000000007F8000
00000000FE0000
00000000FC0000
00000001F80000
00000003F80000
00000003F00000
00000003F00000
00000003F00000
00000003F00C00
00000003F81E00
00000003FC3F00
00000001FFFF80
00000001FFFF80
00000000FFFF00
000000007FFC00
000000001FF000
ENDCHAR
STARTCHAR 0106
ENCODING 262
SWIDTH 686 0
DWIDTH 61 0
BBX 56 80 3 -1
BITMAP
000000003FE000
000000003FC000
000000007F8000
000000007F0000
00000000FF0000
00000000FE0000
00000001FC0000
00000001FC0000
00000003F80000
00000003F00000
00000007E00000
00000007E00000
00000000000000
00000000000000
00000000000000
00000000E00000
000000FFFFC000
000007FFFFF800
00001FFFFFFE00
00007FFFFFFF80
0001FFFFFFFFE0
0007FFFFFFFFF0
000FFFFFFFFFFC
001FFFFFFFFFFE
003FFFFFFFFFFF
007FFFFFFFFFFF
00FFFFF001FFFF
01FFFF80007FFE
03FFFC00001FFC
03FFF8000007F8
07FFE0000003F0
0FFFC0000001E0
0FFF80000000C0
1FFF0000000000
1FFF0000000000
3FFE0000000000
3FFC0000000000
3FFC0000000000
7FF80000000000
7FF80000000000
7FF00000000000
7FF00000000000
FFF00000000000
FFF00000000000
FFE00000000000
FFE00000000000
FFE00000000000
FFE00000000000
FFE00000000000
FFE00000000000
FFE00000000000
FFE00000000000
FFF00000000000
7FF00000000000
7FF00000000000
7FF00000000000
7FF80000000000
7FF80000000000
3FFC0000000000
3FFC0000000000
1FFE0000000000
1FFF0000000000
1FFF0000000000
0FFF80000000C0
07FFE0000001E0
07FFF0000003F0
03FFF8000007F8
01FFFE00001FFC
01FFFF80007FFE
00FFFFF807FFFF
007FFFFFFFFFFF
003FFFFFFFFFFE
001FFFFFFFFFFC
000FFFFFFFFFF8
0003FFFFFFFFF0
0001FFFFFFFFC0
00007FFFFFFF80
00001FFFFFFE00
000003FFFFF000
0000007FFF8000
ENDCHAR
STARTCHAR 0107
ENCODING 263
SWIDTH 686 0
DWIDTH 61 0
BBX 56 80 3 -1
BITMAP
000000003FE000
000000003FC000
000000007F8000
000000007F0000
00000000FF0000
00000000FE0000
00000001FC0000
00000001FC0000
00000003F80000
00000003F00000
00000007E00000
00000007E00000
00000000000000
00000000000000
00000000000000
00000000E00000
000000FFFFC000
000007FFFFF800
00001FFFFFFE00
00007FFFFFFF80
0001FFFFFFFFE0
0007FFFFFFFFF0
000FFFFFFFFFFC
001FFFFFFFFFFE
003FFFFFFFFFFF
007FFFFFFFFFFF
00FFFFF001FFFF
01FFFF80007FFE
03FFFC00001FFC
03FFF8000007F8
07FFE0000003F0
0FFFC0000001E0
0FFF80000000C0
1FFF0000000000
1FFF0000000000
3FFE0000000000
3FFC0000000000
3FFC0000000000
7FF80000000000
7FF80000000000
7FF00000000000
7FF00000000000
FFF00000000000
FFF00000000000
FFE00000000000
FFE00000000000
FFE00000000000
FFE00000000000
FFE00000000000
FFE00000000000
FFE00000000000
FFE00000000000
FFF00000000000
7FF00000000000
7FF00000000000
7FF00000000000
7FF80000000000
7FF80000000000
3FFC0000000000
3FFC0000000000
1FFE0000000000
1FFF0000000000
1FFF0000000000
0FFF80000000C0
07FFE0000001E0
07FFF0000003F0
03FFF8000007F8
01FFFE00001FFC
01FFFF80007FFE
00FFFFF807FFFF
007FFFFFFFFFFF
003FFFFFFFFFFE
001FFFFFFFFFFC
000FFFFFFFFFF8
0003FFFFFFFFF0
0001FFFFFFFFC0
00007FFFFFFF80
00001FFFFFFE00
000003FFFFF000
0000007FFF8000
ENDCHAR
STARTCHAR 010A
ENCODING 266
SWIDTH 686 0
DWIDTH 61 0
BBX 56 83 3 -1
BITMAP
00000003F80000
0000000FFC0000
0000000FFE0000
0000001FFF0000
0000003FFF0000
0000003FFF0000
0000003FFF8000
0000003FFF8000
0000003FFF0000
0000001FFF0000
0000001FFE0000
0000000FFE0000
00000007FC0000
00000001F00000
00000000000000
00000000000000
00000000000000
00000000000000
00000000E00000
000000FFFFC000
000007FFFFF800
00001FFFFFFE00
00007FFFFFFF80
0001FFFFFFFFE0
0007FFFFFFFFF0
000FFFFFFFFFFC
001FFFFFFFFFFE
003FFFFFFFFFFF
007FFFFFFFFFFF
00FFFFF001FFFF
01FFFF80007FFE
03FFFC00001FFC
03FFF8000007F8
07FFE0000003F0
0FFFC0000001E0
0FFF80000000C0
1FFF0000000000
1FFF0000000000
3FFE0000000000
3FFC0000000000
3FFC0000000000
7FF80000000000
7FF80000000000
7FF00000000000
7FF00000000000
FFF00000000000
FFF00000000000
FFE00000000000
FFE00000000000
FFE00000000000
FFE00000000000
FFE00000000000
FFE00000000000
FFE00000000000
FFE00000000000
FFF00000000000
7FF00000000000
7FF00000000000
7FF00000000000
7FF80000000000
7FF80000000000
3FFC0000000000
3FFC0000000000
1FFE0000000000
1FFF0000000000
1FFF0000000000
0FFF80000000C0
07FFE0000001E0
07FFF0000003F0
03FFF8000007F8
01FFFE00001FFC
01FFFF80007FFE
00FFFFF807FFFF
007FFFFFFFFFFF
003FFFFFFFFFFE
001FFFFFFFFFFC
000FFFFFFFFFF8
0003FFFFFFFFF0
0001FFFFFFFFC0
00007FFFFFFF80
00001FFFFFFE00
000003FFFFF000
0000007FFF8000
ENDCHAR
STARTCHAR 010B
ENCODING 267
SWIDTH 686 0
DWIDTH 61 0
BBX 56 83 3 -1
BITMAP
00000003F80000
0000000FFC0000
0000000FFE0000
0000001FFF0000
0000003FFF0000
0000003FFF0000
0000003FFF8000
0000003FFF8000
0000003FFF0000
0000001FFF0000
0000001FFE0000
0000000FFE0000
00000007FC0000
00000001F00000
00000000000000
00000000000000
00000000000000
00000000000000
00000000E00000
000000FFFFC000
000007FFFFF800
00001FFFFFFE00
00007FFFFFFF80
0001FFFFFFFFE0
0007FFFFFFFFF0
000FFFFFFFFFFC
001FFFFFFFFFFE
003FFFFFFFFFFF
007FFFFFFFFFFF
00FFFFF001FFFF
01FFFF80007FFE
03FFFC00001FFC
03FFF8000007F8
07FFE0000003F0
0FFFC0000001E0
0FFF80000000C0
1FFF0000000000
1FFF0000000000
3FFE0000000000
3FFC0000000000
3FFC0000000000
7FF80000000000
7FF80000000000
7FF00000000000
7FF00000000000
FFF00000000000
FFF00000000000
FFE00000000000
FFE00000000000
FFE00000000000
FFE00000000000
FFE00000000000
FFE00000000000
FFE00000000000
FFE00000000000
FFF00000000000
7FF00000000000
7FF00000000000
7FF00000000000
7FF80000000000
7FF80000000000
3FFC0000000000
3FFC0000000000
1FFE0000000000
1FFF0000000000
1FFF0000000000
0FFF80000000C0
07FFE0000001E0
07FFF0000003F0
03FFF8000007F8
01FFFE00001FFC
01FFFF80007FFE
00FFFFF807FFFF
007FFFFFFFFFFF
003FFFFFFFFFFE
001FFFFFFFFFFC
000FFFFFFFFFF8
0003FFFFFFFFF0
0001FFFFFFFFC0
00007FFFFFFF80
00001FFFFFFE00
000003FFFFF000
0000007FFF8000
ENDCHAR
STARTCHAR 010C
ENCODING 268
SWIDTH 686 0
DWIDTH 61 0
BBX 56 81 3 -1
BITMAP
00001FF003FE00
00000FF807FC00
000007FC0FF800
000007FE1FF000
000003FE1FF000
000001FF3FE000
000000FFFFC000
000000FFFF8000
0000007FFF8000
0000003FFF0000
0000001FFE0000
00000000000000
00000000000000
00000000000000
00000000000000
00000000000000
00000000E00000
000000FFFFC000
000007FFFFF800
00001FFFFFFE00
00007FFFFFFF80
0001FFFFFFFFE0
0007FFFFFFFFF0
000FFFFFFFFFFC
001FFFFFFFFFFE
003FFFFFFFFFFF
007FFFFFFFFFFF
00FFFFF001FFFF
01FFFF80007FFE
03FFFC00001FFC
03FFF8000007F8
07FFE0000003F0
0FFFC0000001E0
0FFF80000000C0
1FFF0000000000
1FFF0000000000
3FFE0000000000
3FFC0000000000
3FFC0000000000
7FF80000000000
7FF80000000000
7FF00000000000
7FF00000000000
FFF00000000000
FFF00000000000
FFE00000000000
FFE00000000000
FFE00000000000
FFE00000000000
FFE00000000000
FFE00000000000
FFE00000000000
FFE00000000000
FFF00000000000
7FF00000000000
7FF00000000000
7FF00000000000
7FF80000000000
7FF80000000000
3FFC0000000000
3FFC0000000000
1FFE0000000000
1FFF0000000000
1FFF0000000000
0FFF80000000C0
07FFE0000001E0
07FFF0000003F0
03FFF8000007F8
01FFFE00001FFC
01FFFF80007FFE
00FFFFF807FFFF
007FFFFFFFFFFF
003FFFFFFFFFFE
001FFFFFFFFFFC
000FFFFFFFFFF8
0003FFFFFFFFF0
0001FFFFFFFFC0
00007FFFFFFF80
00001FFFFFFE00
000003FFFFF000
0000007FFF8000
ENDCHAR
STARTCHAR 010D
ENCODING 269
SWIDTH 686 0
DWIDTH 61 0
BBX 56 81 3 -1
BITMAP
00001FF003FE00
00000FF807FC00
000007FC0FF800
000007FE1FF000
000003FE1FF000
000001FF3FE000
000000FFFFC000
000000FFFF8000
0000007FFF8000
0000003FFF0000
0000001FFE0000
00000000000000
00000000000000
00000000000000
00000000000000
00000000000000
00000000E00000
000000FFFFC000
000007FFFFF800
00001FFFFFFE00
00007FFFFFFF80
0001FFFFFFFFE0
0007FFFFFFFFF0
000FFFFFFFFFFC
001FFFFFFFFFFE
003FFFFFFFFFFF
007FFFFFFFFFFF
00FFFFF001FFFF
01FFFF80007FFE
03FFFC00001FFC
03FFF8000007F8
07FFE0000003F0
0FFFC0000001E0
0FFF80000000C0
1FFF0000000000
1FFF0000000000
3FFE0000000000
3FFC0000000000
3FFC0000000000
7FF80000000000
7FF80000000000
7FF00000000000
7FF00000000000
FFF00000000000
FFF00000000000
FFE00000000000
FFE00000000000
FFE00000000000
FFE00000000000
FFE00000000000
FFE00000000000
FFE00000000000
FFE00000000000
FFF00000000000
7FF00000000000
7FF00000000000
7FF00000000000
7FF80000000000
7FF80000000000
3FFC0000000000
3FFC0000000000
1FFE0000000000
1FFF0000000000
1FFF0000000000
0FFF80000000C0
07FFE0000001E0
07FFF0000003F0
03FFF8000007F8
01FFFE00001FFC
01FFFF80007FFE
00FFFFF807FFFF
007FFFFFFFFFFF
003FFFFFFFFFFE
001FFFFFFFFFFC
000FFFFFFFFFF8
0003FFFFFFFFF0
0001FFFFFFFFC0
00007FFFFFFF80
00001FFFFFFE00
000003FFFFF000
0000007FFF8000
ENDCHAR
STARTCHAR 010E
ENCODING 270
SWIDTH 663 0
DWIDTH 59 0
BBX 52 80 5 0
BITMAP
03FE007FC00000
01FF00FF800000
00FF81FF000000
007FC1FF000000
007FE3FE000000
003FE7FC000000
001FFFF8000000
000FFFF8000000
000FFFF0000000
0007FFE0000000
0003FFE0000000
00000000000000
00000000000000
00000000000000
00000000000000
00000000000000
00000000000000
00000000000000
FFFFFFE0000000
FFFFFFFE000000
FFFFFFFFC00000
FFFFFFFFF00000
FFFFFFFFFC0000
FFFFFFFFFE0000
FFFFFFFFFF8000
FFFFFFFFFFC000
FFFFFFFFFFE000
FFFFFFFFFFF000
FFE001FFFFF800
FFE0001FFFFC00
FFE00003FFFC00
FFE00000FFFE00
FFE000007FFF00
FFE000003FFF00
FFE000000FFF80
FFE000000FFF80
FFE0000007FFC0
FFE0000003FFC0
FFE0000003FFC0
FFE0000001FFC0
FFE0000001FFE0
FFE0000000FFE0
FFE0000000FFE0
FFE0000000FFE0
FFE0000000FFE0
FFE0000000FFF0
FFE0000000FFF0
FFE00000007FF0
FFE00000007FF0
FFE00000007FF0
FFE00000007FF0
FFE0000000FFF0
FFE0000000FFF0
FFE0000000FFE0
FFE0000000FFE0
FFE0000000FFE0
FFE0000001FFE0
FFE0000001FFE0
FFE0000001FFC0
FFE0000003FFC0
FFE0000003FFC0
FFE0000007FF80
FFE000000FFF80
FFE000001FFF80
FFE000003FFF00
FFE000007FFF00
FFE00001FFFE00
FFE00007FFFC00
FFE0003FFFFC00
FFE01FFFFFF800
FFFFFFFFFFF000
FFFFFFFFFFE000
FFFFFFFFFFC000
FFFFFFFFFF0000
FFFFFFFFFE0000
FFFFFFFFF80000
FFFFFFFFE00000
FFFFFFFF800000
FFFFFFFC000000
FFFFFF80000000
ENDCHAR
STARTCHAR 010F
ENCODING 271
SWIDTH 663 0
DWIDTH 59 0
BBX 52 80 5 0
BITMAP
03FE007FC00000
01FF00FF800000
00FF81FF000000
007FC1FF000000
007FE3FE000000
003FE7FC000000
001FFFF8000000
000FFFF8000000
000FFFF0000000
0007FFE0000000
0003FFE0000000
00000000000000
00000000000000
00000000000000
00000000000000
00000000000000
00000000000000
00000000000000
FFFFFFE0000000
FFFFFFFE000000
FFFFFFFFC00000
FFFFFFFFF00000
FFFFFFFFFC0000
FFFFFFFFFE0000
FFFFFFFFFF8000
FFFFFFFFFFC000
FFFFFFFFFFE000
FFFFFFFFFFF000
FFE001FFFFF800
FFE0001FFFFC00
FFE00003FFFC00
FFE00000FFFE00
FFE000007FFF00
FFE000003FFF00
FFE000000FFF80
FFE000000FFF80
FFE0000007FFC0
FFE0000003FFC0
FFE0000003FFC0
FFE0000001FFC0
FFE0000001FFE0
FFE0000000FFE0
FFE0000000FFE0
FFE0000000FFE0
FFE0000000FFE0
FFE0000000FFF0
FFE0000000FFF0
FFE00000007FF0
FFE00000007FF0
FFE00000007FF0
FFE00000007FF0
FFE0000000FFF0
FFE0000000FFF0
FFE0000000FFE0
FFE0000000FFE0
FFE0000000FFE0
FFE0000001FFE0
FFE0000001FFE0
FFE0000001FFC0
FFE0000003FFC0
FFE0000003FFC0
FFE0000007FF80
FFE000000FFF80
FFE000001FFF80
FFE000003FFF00
FFE000007FFF00
FFE00001FFFE00
FFE00007FFFC00
FFE0003FFFFC00
FFE01FFFFFF800
FFFFFFFFFFF000
FFFFFFFFFFE000
FFFFFFFFFFC000
FFFFFFFFFF0000
FFFFFFFFFE0000
FFFFFFFFF80000
FFFFFFFFE00000
FFFFFFFF800000
FFFFFFFC000000
FFFFFF80000000
ENDCHAR
STARTCHAR 0110
ENCODING 272
SWIDTH 697 0
DWIDTH 62 0
BBX 57 62 2 0
BITMAP
03FFFFFF00000000
03FFFFFFF0000000
03FFFFFFFE000000
03FFFFFFFFC00000
03FFFFFFFFE00000
03FFFFFFFFF80000
03FFFFFFFFFC0000
03FFFFFFFFFF0000
03FFFFFFFFFF8000
03FFFFFFFFFFC000
03FF8007FFFFC000
03FF80007FFFE000
03FF80000FFFF000
03FF800007FFF800
03FF800001FFF800
03FF800000FFFC00
03FF8000007FFC00
03FF8000003FFE00
03FF8000001FFE00
03FF8000001FFF00
03FF8000000FFF00
03FF8000000FFF00
03FF80000007FF00
03FF80000007FF80
03FF80000007FF80
FFFFFFFE0003FF80
FFFFFFFE0003FF80
FFFFFFFE0003FF80
FFFFFFFE0003FF80
FFFFFFFE0003FF80
FFFFFFFE0003FF80
FFFFFFFE0003FF80
FFFFFFFE0003FF80
FFFFFFFE0003FF80
FFFFFFFE0003FF80
FFFFFFFE0003FF80
03FF80000003FF80
03FF80000007FF80
03FF80000007FF80
03FF80000007FF00
03FF8000000FFF00
03FF8000000FFF00
03FF8000001FFE00
03FF8000001FFE00
03FF8000003FFE00
03FF8000007FFC00
03FF800000FFFC00
03FF800003FFF800
03FF800007FFF800
03FF80001FFFF000
03FF8000FFFFE000
03FF80FFFFFFC000
03FFFFFFFFFF8000
03FFFFFFFFFF0000
03FFFFFFFFFE0000
03FFFFFFFFFC0000
03FFFFFFFFF80000
03FFFFFFFFE00000
03FFFFFFFF800000
03FFFFFFFE000000
03FFFFFFF0000000
03FFFFFE00000000
ENDCHAR
STARTCHAR 0111
ENCODING 273
SWIDTH 697 0
DWIDTH 62 0
BBX 57 62 2 0
BITMAP
03FFFFFF00000000
03FFFFFFF0000000
03FFFFFFFE000000
03FFFFFFFFC00000
03FFFFFFFFE00000
03FFFFFFFFF80000
03FFFFFFFFFC0000
03FFFFFFFFFF0000
03FFFFFFFFFF8000
03FFFFFFFFFFC000
03FF8007FFFFC000
03FF80007FFFE000
03FF80000FFFF000
03FF800007FFF800
03FF800001FFF800
03FF800000FFFC00
03FF8000007FFC00
03FF8000003FFE00
03FF8000001FFE00
03FF8000001FFF00
03FF8000000FFF00
03FF8000000FFF00
03FF80000007FF00
03FF80000007FF80
03FF80000007FF80
FFFFFFFE0003FF80
FFFFFFFE0003FF80
FFFFFFFE0003FF80
FFFFFFFE0003FF80
FFFFFFFE0003FF80
FFFFFFFE0003FF80
FFFFFFFE0003FF80
FFFFFFFE0003FF80
FFFFFFFE0003FF80
FFFFFFFE0003FF80
FFFFFFFE0003FF80
03FF80000003FF80
03FF80000007FF80
03FF80000007FF80
03FF80000007FF00
03FF8000000FFF00
03FF8000000FFF00
03FF8000001FFE00
03FF8000001FFE00
03FF8000003FFE00
03FF8000007FFC00
03FF800000FFFC00
03FF800003FFF800
03FF800007FFF800
03FF80001FFFF000
03FF8000FFFFE000
03FF80FFFFFFC000
03FFFFFFFFFF8000
03FFFFFFFFFF0000
03FFFFFFFFFE0000
03FFFFFFFFFC0000
03FFFFFFFFF80000
03FFFFFFFFE00000
03FFFFFFFF800000
03FFFFFFFE000000
03FFFFFFF0000000
03FFFFFE00000000
ENDCHAR
STARTCHAR 0112
ENCODING 274
SWIDTH 506 0
DWIDTH 45 0
BBX 43 78 2 0
BITMAP
03FFFFFF0000
03FFFFFF0000
03FFFFFF0000
03FFFFFF0000
03FFFFFF0000
03FFFFFF0000
03FFFFFF0000
03FFFFFF0000
03FFFFFF0000
000000000000
000000000000
000000000000
000000000000
000000000000
000000000000
000000000000
03FFFFFF0000
03FFFFFF0000
03FFFFFF0000
03FFFFFF0000
03FFFFFF0000
03FFFFFF0000
03FFFFFF0000
03FFFFFF0000
03FFFFFF0000
03FFFFFF0000
03FF80000000
03FF80000000
03FF80000000
03FF80000000
03FF80000000
03FF80000000
03FF80000000
03FF80000000
03FF80000000
03FF80000000
03FF80000000
03FF80000000
03FF80000000
03FF80000000
03FF80000000
03FF80000000
FFFFFFFFF000
FFFFFFFFF000
FFFFFFFFF000
FFFFFFFFF000
FFFFFFFFF000
FFFFFFFFF000
FFFFFFFFF000
FFFFFFFFF000
FFFFFFFFF000
FFFFFFFFF000
03FF80000000
03FF80000000
03FF80000000
03FF80000000
03FF80000000
03FF80000000
03FF80000000
03FF80000000
03FF80000000
03FF80000000
03FF80000000
03FF80000000
03FF80000000
03FF80000000
03FF80000000
03FF80000000
03FFFFFFFFE0
03FFFFFFFFE0
03FFFFFFFFE0
03FFFFFFFFE0
03FFFFFFFFE0
03FFFFFFFFE0
03FFFFFFFFE0
03FFFFFFFFE0
03FFFFFFFFE0
03FFFFFFFFE0
ENDCHAR
STARTCHAR 0113
ENCODING 275
SWIDTH 506 0
DWIDTH 45 0
BBX 43 78 2 0
BITMAP
03FFFFFF0000
03FFFFFF0000
03FFFFFF0000
03FFFFFF0000
03FFFFFF0000
03FFFFFF0000
03FFFFFF0000
03FFFFFF0000
03FFFFFF0000
000000000000
000000000000
000000000000
000000000000
000000000000
000000000000
000000000000
03FFFFFF0000
03FFFFFF0000
03FFFFFF0000
03FFFFFF0000
03FFFFFF0000
03FFFFFF0000
03FFFFFF0000
03FFFFFF0000
03FFFFFF0000
03FFFFFF0000
03FF80000000
03FF80000000
03FF80000000
03FF80000000
03FF80000000
03FF80000000
03FF80000000
03FF80000000
03FF80000000
03FF80000000
03FF80000000
03FF80000000
03FF80000000
03FF80000000
03FF80000000
03FF80000000
FFFFFFFFF000
FFFFFFFFF000
FFFFFFFFF000
FFFFFFFFF000
FFFFFFFFF000
FFFFFFFFF000
FFFFFFFFF000
FFFFFFFFF000
FFFFFFFFF000
FFFFFFFFF000
03FF80000000
03FF80000000
03FF80000000
03FF80000000
03FF80000000
03FF80000000
03FF80000000
03FF80000000
03FF80000000
03FF80000000
03FF80000000
03FF80000000
03FF80000000
03FF80000000
03FF80000000
03FF80000000
03FFFFFFFFE0
03FFFFFFFFE0
03FFFFFFFFE0
03FFFFFFFFE0
03FFFFFFFFE0
03FFFFFFFFE0
03FFFFFFFFE0
03FFFFFFFFE0
03FFFFFFFFE0
03FFFFFFFFE0
ENDCHAR
STARTCHAR 0116
ENCODING 278
SWIDTH 506 0
DWIDTH 45 0
BBX 43 82 2 0
BITMAP
0000FE000000
0001FF000000
0003FF800000
0007FFC00000
0007FFC00000
000FFFE00000
000FFFE00000
000FFFE00000
000FFFC00000
0007FFC00000
0007FFC00000
0003FF800000
0001FF000000
00007C000000
000000000000
000000000000
000000000000
000000000000
000000000000
000000000000
03FFFFFF0000
03FFFFFF0000
03FFFFFF0000
03FFFFFF0000
03FFFFFF0000
03FFFFFF0000
03FFFFFF0000
03FFFFFF0000
03FFFFFF0000
03FFFFFF0000
03FF80000000
03FF80000000
03FF80000000
03FF80000000
03FF80000000
03FF80000000
03FF80000000
03FF80000000
03FF80000000
03FF80000000
03FF80000000
03FF80000000
03FF80000000
03FF80000000
03FF80000000
03FF80000000
FFFFFFFFF000
FFFFFFFFF000
FFFFFFFFF000
FFFFFFFFF000
FFFFFFFFF000
FFFFFFFFF000
FFFFFFFFF000
FFFFFFFFF000
FFFFFFFFF000
FFFFFFFFF000
03FF80000000
03FF80000000
03FF80000000
03FF80000000
03FF80000000
03FF80000000
03FF80000000
03FF80000000
03FF80000000
03FF80000000
03FF80000000
03FF80000000
03FF80000000
03FF80000000
03FF80000000
03FF80000000
03FFFFFFFFE0
03FFFFFFFFE0
03FFFFFFFFE0
03FFFFFFFFE0
03FFFFFFFFE0
03FFFFFFFFE0
03FFFFFFFFE0
03FFFFFFFFE0
03FFFFFFFFE0
03FFFFFFFFE0
ENDCHAR
STARTCHAR 0117
ENCODING 279
SWIDTH 506 0
DWIDTH 45 0
BBX 43 82 2 0
BITMAP
0000FE000000
0001FF000000
0003FF800000
0007FFC00000
0007FFC00000
000FFFE00000
000FFFE00000
000FFFE00000
000FFFC00000
0007FFC00000
0007FFC00000
0003FF800000
0001FF000000
00007C000000
000000000000
000000000000
000000000000
000000000000
000000000000
000000000000
03FFFFFF0000
03FFFFFF0000
03FFFFFF0000
03FFFFFF0000
03FFFFFF0000
03FFFFFF0000
03FFFFFF0000
03FFFFFF0000
03FFFFFF0000
03FFFFFF0000
03FF80000000
03FF80000000
03FF80000000
03FF80000000
03FF80000000
03FF80000000
03FF80000000
03FF80000000
03FF80000000
03FF80000000
03FF80000000
03FF80000000
03FF80000000
03FF80000000
03FF80000000
03FF80000000
FFFFFFFFF000
FFFFFFFFF000
FFFFFFFFF000
FFFFFFFFF000
FFFFFFFFF000
FFFFFFFFF000
FFFFFFFFF000
FFFFFFFFF000
FFFFFFFFF000
FFFFFFFFF000
03FF80000000
03FF80000000
03FF80000000
03FF80000000
03FF80000000
03FF80000000
03FF80000000
03FF80000000
03FF80000000
03FF80000000
03FF80000000
03FF80000000
03FF80000000
03FF80000000
03FF80000000
03FF80000000
03FFFFFFFFE0
03FFFFFFFFE0
03FFFFFFFFE0
03FFFFFFFFE0
03FFFFFFFFE0
03FFFFFFFFE0
03FFFFFFFFE0
03FFFFFFFFE0
03FFFFFFFFE0
03FFFFFFFFE0
ENDCHAR
STARTCHAR 0118
ENCODING 280
SWIDTH 506 0
DWIDTH 45 0
BBX 47 80 2 -18
BITMAP
03FFFFFF0000
03FFFFFF0000
03FFFFFF0000
03FFFFFF0000
03FFFFFF0000
03FFFFFF0000
03FFFFFF0000
03FFFFFF0000
03FFFFFF0000
03FFFFFF0000
03FF80000000
03FF80000000
03FF80000000
03FF80000000
03FF80000000
03FF80000000
03FF80000000
03FF80000000
03FF80000000
03FF80000000
03FF80000000
03FF80000000
03FF80000000
03FF80000000
03FF80000000
03FF80000000
FFFFFFFFF000
FFFFFFFFF000
FFFFFFFFF000
FFFFFFFFF000
FFFFFFFFF000
FFFFFFFFF000
FFFFFFFFF000
FFFFFFFFF000
FFFFFFFFF000
FFFFFFFFF000
03FF80000000
03FF80000000
03FF80000000
03FF80000000
03FF80000000
03FF80000000
03FF80000000
03FF80000000
03FF80000000
03FF80000000
03FF80000000
03FF80000000
03FF80000000
03FF80000000
03FF80000000
03FF80000000
03FFFFFFFFE0
03FFFFFFFFE0
03FFFFFFFFE0
03FFFFFFFFE0
03FFFFFFFFE0
03FFFFFFFFE0
03FFFFFFFFE0
03FFFFFFFFE0
03FFFFFFFFE0
03FFFFFFFFE0
00000000FF80
00000001FC00
00000003F800
00000007F000
00000007E000
0000000FC000
0000000FC000
0000000F8000
0000000F8000
0000000FC020
0000000FC078
0000000FE1FC
0000000FFFFE
00000007FFFC
00000003FFF8
00000001FFF0
00000000FFC0
000000000800
ENDCHAR
STARTCHAR 0119
ENCODING 281
SWIDTH 506 0
DWIDTH 45 0
BBX 47 80 2 -18
BITMAP
03FFFFFF0000
03FFFFFF0000
03FFFFFF0000
03FFFFFF0000
03FFFFFF0000
03FFFFFF0000
03FFFFFF0000
03FFFFFF0000
03FFFFFF0000
03FFFFFF0000
03FF80000000
03FF80000000
03FF80000000
03FF80000000
03FF80000000
03FF80000000
03FF80000000
03FF80000000
03FF80000000
03FF80000000
03FF80000000
03FF80000000
03FF80000000
03FF80000000
03FF80000000
03FF80000000
FFFFFFFFF000
FFFFFFFFF000
FFFFFFFFF000
FFFFFFFFF000
FFFFFFFFF000
FFFFFFFFF000
FFFFFFFFF000
FFFFFFFFF000
FFFFFFFFF000
FFFFFFFFF000
03FF80000000
03FF80000000
03FF80000000
03FF80000000
03FF80000000
03FF80000000
03FF80000000
03FF80000000
03FF80000000
03FF80000000
03FF80000000
03FF80000000
03FF80000000
03FF80000000
03FF80000000
03FF80000000
03FFFFFFFFE0
03FFFFFFFFE0
03FFFFFFFFE0
03FFFFFFFFE0
03FFFFFFFFE0
03FFFFFFFFE0
03FFFFFFFFE0
03FFFFFFFFE0
03FFFFFFFFE0
03FFFFFFFFE0
00000000FF80
00000001FC00
00000003F800
00000007F000
00000007E000
0000000FC000
0000000FC000
0000000F8000
0000000F8000
0000000FC020
0000000FC078
0000000FE1FC
0000000FFFFE
00000007FFFC
00000003FFF8
00000001FFF0
00000000FFC0
000000000800
ENDCHAR
STARTCHAR 011A
ENCODING 282
SWIDTH 506 0
DWIDTH 45 0
BBX 43 80 2 0
BITMAP
07FC00FF8000
03FE01FF0000
01FF03FE0000
00FF83FE0000
00FF87FC0000
007FCFF80000
003FFFF00000
001FFFF00000
001FFFE00000
000FFFC00000
0007FF800000
000000000000
000000000000
000000000000
000000000000
000000000000
000000000000
000000000000
03FFFFFF0000
03FFFFFF0000
03FFFFFF0000
03FFFFFF0000
03FFFFFF0000
03FFFFFF0000
03FFFFFF0000
03FFFFFF0000
03FFFFFF0000
03FFFFFF0000
03FF80000000
03FF80000000
03FF80000000
03FF80000000
03FF80000000
03FF80000000
03FF80000000
03FF80000000
03FF80000000
03FF80000000
03FF80000000
03FF80000000
03FF80000000
03FF80000000
03FF80000000
03FF80000000
FFFFFFFFF000
FFFFFFFFF000
FFFFFFFFF000
FFFFFFFFF000
FFFFFFFFF000
FFFFFFFFF000
FFFFFFFFF000
FFFFFFFFF000
FFFFFFFFF000
FFFFFFFFF000
03FF80000000
03FF80000000
03FF80000000
03FF80000000
03FF80000000
03FF80000000
03FF80000000
03FF80000000
03FF80000000
03FF80000000
03FF80000000
03FF80000000
03FF80000000
03FF80000000
03FF80000000
03FF80000000
03FFFFFFFFE0
03FFFFFFFFE0
03FFFFFFFFE0
03FFFFFFFFE0
03FFFFFFFFE0
03FFFFFFFFE0
03FFFFFFFFE0
03FFFFFFFFE0
03FFFFFFFFE0
03FFFFFFFFE0
ENDCHAR
STARTCHAR 011B
ENCODING 283
SWIDTH 506 0
DWIDTH 45 0
BBX 43 80 2 0
BITMAP
07FC00FF8000
03FE01FF0000
01FF03FE0000
00FF83FE0000
00FF87FC0000
007FCFF80000
003FFFF00000
001FFFF00000
001FFFE00000
000FFFC00000
0007FF800000
000000000000
000000000000
000000000000
000000000000
000000000000
000000000000
000000000000
03FFFFFF0000
03FFFFFF0000
03FFFFFF0000
03FFFFFF0000
03FFFFFF0000
03FFFFFF0000
03FFFFFF0000
03FFFFFF0000
03FFFFFF0000
03FFFFFF0000
03FF80000000
03FF80000000
03FF80000000
03FF80000000
03FF80000000
03FF80000000
03FF80000000
03FF80000000
03FF80000000
03FF80000000
03FF80000000
03FF80000000
03FF80000000
03FF80000000
03FF80000000
03FF80000000
FFFFFFFFF000
FFFFFFFFF000
FFFFFFFFF000
FFFFFFFFF000
FFFFFFFFF000
FFFFFFFFF000
FFFFFFFFF000
FFFFFFFFF000
FFFFFFFFF000
FFFFFFFFF000
03FF80000000
03FF80000000
03FF80000000
03FF80000000
03FF80000000
03FF80000000
03FF80000000
03FF80000000
03FF80000000
03FF80000000
03FF80000000
03FF80000000
03FF80000000
03FF80000000
03FF80000000
03FF80000000
03FFFFFFFFE0
03FFFFFFFFE0
03FFFFFFFFE0
03FFFFFFFFE0
03FFFFFFFFE0
03FFFFFFFFE0
03FFFFFFFFE0
03FFFFFFFFE0
03FFFFFFFFE0
03FFFFFFFFE0
ENDCHAR
STARTCHAR 011E
ENCODING 286
SWIDTH 832 0
DWIDTH 74 0
BBX 70 80 3 -1
BITMAP
00000FE001F8000000
00000FE003F8000000
00000FF003F8000000
000007F007F8000000
000007F80FF0000000
000003FFFFF0000000
000003FFFFE0000000
000001FFFFC0000000
000000FFFF80000000
0000003FFF00000000
0000000FFC00000000
000000008000000000
000000000000000000
000000000000000000
000000000000000000
00000001F000000000
0000007FFFC0000000
000007FFFFF8000000
00001FFFFFFF000000
00007FFFFFFF800000
0001FFFFFFFFE00000
0003FFFFFFFFF80000
000FFFFFFFFFFC0000
001FFFFFFFFFFE0000
003FFFFFFFFFFF0000
007FFFFFFFFFFF8000
00FFFFE001FFFF8000
01FFFF80003FFE0000
03FFFC00000FFC0000
03FFF8000007F80000
07FFE0000001F00000
0FFFC0000000E00000
0FFF80000000400000
1FFF00000000000000
1FFE00000000000000
3FFE00000000000000
3FFC00000000000000
3FFC00000000000000
7FF800000000000000
7FF800000000000000
7FF000000000000000
7FF000000000000000
FFF000000000000000
FFF00001FFFFFFFFFC
FFE00001FFFFFFFFFC
FFE00001FFFFFFFFFC
FFE00001FFFFFFFFFC
FFE00001FFFFFFFFFC
FFE00001FFFFFFFFFC
FFE00001FFFFFFFFFC
FFE00001FFFFFFFFFC
FFE00001FFFFFFFFFC
FFF00001FFFFFFFFFC
7FF00000000007FF80
7FF00000000007FF80
7FF00000000007FF80
7FF8000000000FFF00
7FF8000000000FFF00
3FFC000000000FFF00
3FFC000000001FFE00
1FFE000000003FFE00
1FFF000000003FFE00
1FFF800000007FFC00
0FFF80000000FFFC00
07FFC0000001FFF800
07FFF0000003FFF800
03FFF8000007FFF000
01FFFE00001FFFE000
01FFFF80007FFFE000
00FFFFF803FFFFC000
007FFFFFFFFFFF8000
003FFFFFFFFFFF0000
001FFFFFFFFFFE0000
0007FFFFFFFFFC0000
0003FFFFFFFFF00000
0000FFFFFFFFE00000
00007FFFFFFF800000
00001FFFFFFE000000
000003FFFFF8000000
0000003FFF80000000
ENDCHAR
STARTCHAR 011F
ENCODING 287
SWIDTH 832 0
DWIDTH 74 0
BBX 70 80 3 -1
BITMAP
00000FE001F8000000
00000FE003F8000000
00000FF003F8000000
000007F007F8000000
000007F80FF0000000
000003FFFFF0000000
000003FFFFE0000000
000001FFFFC0000000
000000FFFF80000000
0000003FFF00000000
0000000FFC00000000
000000008000000000
000000000000000000
000000000000000000
000000000000000000
00000001F000000000
0000007FFFC0000000
000007FFFFF8000000
00001FFFFFFF000000
00007FFFFFFF800000
0001FFFFFFFFE00000
0003FFFFFFFFF80000
000FFFFFFFFFFC0000
001FFFFFFFFFFE0000
003FFFFFFFFFFF0000
007FFFFFFFFFFF8000
00FFFFE001FFFF8000
01FFFF80003FFE0000
03FFFC00000FFC0000
03FFF8000007F80000
07FFE0000001F00000
0FFFC0000000E00000
0FFF80000000400000
1FFF00000000000000
1FFE00000000000000
3FFE00000000000000
3FFC00000000000000
3FFC00000000000000
7FF800000000000000
7FF800000000000000
7FF000000000000000
7FF000000000000000
FFF000000000000000
FFF00001FFFFFFFFFC
FFE00001FFFFFFFFFC
FFE00001FFFFFFFFFC
FFE00001FFFFFFFFFC
FFE00001FFFFFFFFFC
FFE00001FFFFFFFFFC
FFE00001FFFFFFFFFC
FFE00001FFFFFFFFFC
FFE00001FFFFFFFFFC
FFF00001FFFFFFFFFC
7FF00000000007FF80
7FF00000000007FF80
7FF00000000007FF80
7FF8000000000FFF00
7FF8000000000FFF00
3FFC000000000FFF00
3FFC000000001FFE00
1FFE000000003FFE00
1FFF000000003FFE00
1FFF800000007FFC00
0FFF80000000FFFC00
07FFC0000001FFF800
07FFF0000003FFF800
03FFF8000007FFF000
01FFFE00001FFFE000
01FFFF80007FFFE000
00FFFFF803FFFFC000
007FFFFFFFFFFF8000
003FFFFFFFFFFF0000
001FFFFFFFFFFE0000
0007FFFFFFFFFC0000
0003FFFFFFFFF00000
0000FFFFFFFFE00000
00007FFFFFFF800000
00001FFFFFFE000000
000003FFFFF8000000
0000003FFF80000000
ENDCHAR
STARTCHAR 0120
ENCODING 288
SWIDTH 832 0
DWIDTH 74 0
BBX 70 83 3 -1
BITMAP
00000003F800000000
0000000FFC00000000
0000001FFE00000000
0000001FFF00000000
0000003FFF00000000
0000003FFF00000000
0000003FFF00000000
0000003FFF00000000
0000003FFF00000000
0000001FFF00000000
0000001FFE00000000
0000000FFE00000000
00000007FC00000000
00000001F000000000
000000000000000000
000000000000000000
000000000000000000
000000000000000000
00000001F000000000
0000007FFFC0000000
000007FFFFF8000000
00001FFFFFFF000000
00007FFFFFFF800000
0001FFFFFFFFE00000
0003FFFFFFFFF80000
000FFFFFFFFFFC0000
001FFFFFFFFFFE0000
003FFFFFFFFFFF0000
007FFFFFFFFFFF8000
00FFFFE001FFFF8000
01FFFF80003FFE0000
03FFFC00000FFC0000
03FFF8000007F80000
07FFE0000001F00000
0FFFC0000000E00000
0FFF80000000400000
1FFF00000000000000
1FFE00000000000000
3FFE00000000000000
3FFC00000000000000
3FFC00000000000000
7FF800000000000000
7FF800000000000000
7FF000000000000000
7FF000000000000000
FFF000000000000000
FFF00001FFFFFFFFFC
FFE00001FFFFFFFFFC
FFE00001FFFFFFFFFC
FFE00001FFFFFFFFFC
FFE00001FFFFFFFFFC
FFE00001FFFFFFFFFC
FFE00001FFFFFFFFFC
FFE00001FFFFFFFFFC
FFE00001FFFFFFFFFC
FFF00001FFFFFFFFFC
7FF00000000007FF80
7FF00000000007FF80
7FF00000000007FF80
7FF8000000000FFF00
7FF8000000000FFF00
3FFC000000000FFF00
3FFC000000001FFE00
1FFE000000003FFE00
1FFF000000003FFE00
1FFF800000007FFC00
0FFF80000000FFFC00
07FFC0000001FFF800
07FFF0000003FFF800
03FFF8000007FFF000
01FFFE00001FFFE000
01FFFF80007FFFE000
00FFFFF803FFFFC000
007FFFFFFFFFFF8000
003FFFFFFFFFFF0000
001FFFFFFFFFFE0000
0007FFFFFFFFFC0000
0003FFFFFFFFF00000
0000FFFFFFFFE00000
00007FFFFFFF800000
00001FFFFFFE000000
000003FFFFF8000000
0000003FFF80000000
ENDCHAR
STARTCHAR 0121
ENCODING 289
SWIDTH 832 0
DWIDTH 74 0
BBX 70 83 3 -1
BITMAP
00000003F800000000
0000000FFC00000000
0000001FFE00000000
0000001FFF00000000
0000003FFF00000000
0000003FFF00000000
0000003FFF00000000
0000003FFF00000000
0000003FFF00000000
0000001FFF00000000
0000001FFE00000000
0000000FFE00000000
00000007FC00000000
00000001F000000000
000000000000000000
000000000000000000
000000000000000000
000000000000000000
00000001F000000000
0000007FFFC0000000
000007FFFFF8000000
00001FFFFFFF000000
00007FFFFFFF800000
0001FFFFFFFFE00000
0003FFFFFFFFF80000
000FFFFFFFFFFC0000
001FFFFFFFFFFE0000
003FFFFFFFFFFF0000
007FFFFFFFFFFF8000
00FFFFE001FFFF8000
01FFFF80003FFE0000
03FFFC00000FFC0000
03FFF8000007F80000
07FFE0000001F00000
0FFFC0000000E00000
0FFF80000000400000
1FFF00000000000000
1FFE00000000000000
3FFE00000000000000
3FFC00000000000000
3FFC00000000000000
7FF800000000000000
7FF800000000000000
7FF000000000000000
7FF000000000000000
FFF000000000000000
FFF00001FFFFFFFFFC
FFE00001FFFFFFFFFC
FFE00001FFFFFFFFFC
FFE00001FFFFFFFFFC
FFE00001FFFFFFFFFC
FFE00001FFFFFFFFFC
FFE00001FFFFFFFFFC
FFE00001FFFFFFFFFC
FFE00001FFFFFFFFFC
FFF00001FFFFFFFFFC
7FF00000000007FF80
7FF00000000007FF80
7FF00000000007FF80
7FF8000000000FFF00
7FF8000000000FFF00
3FFC000000000FFF00
3FFC000000001FFE00
1FFE000000003FFE00
1FFF000000003FFE00
1FFF800000007FFC00
0FFF80000000FFFC00
07FFC0000001FFF800
07FFF0000003FFF800
03FFF8000007FFF000
01FFFE00001FFFE000
01FFFF80007FFFE000
00FFFFF803FFFFC000
007FFFFFFFFFFF8000
003FFFFFFFFFFF0000
001FFFFFFFFFFE0000
0007FFFFFFFFFC0000
0003FFFFFFFFF00000
0000FFFFFFFFE00000
00007FFFFFFF800000
00001FFFFFFE000000
000003FFFFF8000000
0000003FFF80000000
ENDCHAR
STARTCHAR 0124
ENCODING 292
SWIDTH 573 0
DWIDTH 51 0
BBX 44 79 2 0
BITMAP
00001FFF0000
00003FFF0000
00003FFF8000
00007FFFC000
0000FFFFE000
0001FF3FE000
0001FF1FF000
0003FE0FF800
0007FC0FF800
000FF807FC00
000FF803FE00
001FF001FF00
000000000000
000000000000
000000000000
000000000000
000000000000
03FF80007FF0
03FF80007FF0
03FF80007FF0
03FF80007FF0
03FF80007FF0
03FF80007FF0
03FF80007FF0
03FF80007FF0
03FF80007FF0
03FF80007FF0
03FF80007FF0
03FF80007FF0
03FF80007FF0
03FF80007FF0
03FF80007FF0
03FF80007FF0
03FF80007FF0
03FF80007FF0
03FF80007FF0
03FF80007FF0
03FF80007FF0
03FF80007FF0
03FF80007FF0
03FF80007FF0
03FF80007FF0
03FF80007FF0
FFFFFFFFFFF0
FFFFFFFFFFF0
FFFFFFFFFFF0
FFFFFFFFFFF0
FFFFFFFFFFF0
FFFFFFFFFFF0
FFFFFFFFFFF0
FFFFFFFFFFF0
FFFFFFFFFFF0
FFFFFFFFFFF0
FFFFFFFFFFF0
03FF80007FF0
03FF80007FF0
03FF80007FF0
03FF80007FF0
03FF80007FF0
03FF80007FF0
03FF80007FF0
03FF80007FF0
03FF80007FF0
03FF80007FF0
03FF80007FF0
03FF80007FF0
03FF80007FF0
03FF80007FF0
03FF80007FF0
03FF80007FF0
03FF80007FF0
03FF80007FF0
03FF80007FF0
03FF80007FF0
03FF80007FF0
03FF80007FF0
03FF80007FF0
03FF80007FF0
03FF80007FF0
ENDCHAR
STARTCHAR 0125
ENCODING 293
SWIDTH 573 0
DWIDTH 51 0
BBX 44 79 2 0
BITMAP
00001FFF0000
00003FFF0000
00003FFF8000
00007FFFC000
0000FFFFE000
0001FF3FE000
0001FF1FF000
0003FE0FF800
0007FC0FF800
000FF807FC00
000FF803FE00
001FF001FF00
000000000000
000000000000
000000000000
000000000000
000000000000
03FF80007FF0
03FF80007FF0
03FF80007FF0
03FF80007FF0
03FF80007FF0
03FF80007FF0
03FF80007FF0
03FF80007FF0
03FF80007FF0
03FF80007FF0
03FF80007FF0
03FF80007FF0
03FF80007FF0
03FF80007FF0
03FF80007FF0
03FF80007FF0
03FF80007FF0
03FF80007FF0
03FF80007FF0
03FF80007FF0
03FF80007FF0
03FF80007FF0
03FF80007FF0
03FF80007FF0
03FF80007FF0
03FF80007FF0
FFFFFFFFFFF0
FFFFFFFFFFF0
FFFFFFFFFFF0
FFFFFFFFFFF0
FFFFFFFFFFF0
FFFFFFFFFFF0
FFFFFFFFFFF0
FFFFFFFFFFF0
FFFFFFFFFFF0
FFFFFFFFFFF0
FFFFFFFFFFF0
03FF80007FF0
03FF80007FF0
03FF80007FF0
03FF80007FF0
03FF80007FF0
03FF80007FF0
03FF80007FF0
03FF80007FF0
03FF80007FF0
03FF80007FF0
03FF80007FF0
03FF80007FF0
03FF80007FF0
03FF80007FF0
03FF80007FF0
03FF80007FF0
03FF80007FF0
03FF80007FF0
03FF80007FF0
03FF80007FF0
03FF80007FF0
03FF80007FF0
03FF80007FF0
03FF80007FF0
03FF80007FF0
ENDCHAR
STARTCHAR 0128
ENCODING 296
SWIDTH 225 0
DWIDTH 20 0
BBX 22 55 -2 0
BITMAP
3FC000
FFFC1C
FFFFFC
FFFFFC
FFFFFC
FFFFFC
FFFFFC
801FF8
0001C0
000000
000000
000000
000000
000000
000000
000000
000000
01FFC0
01FFC0
01FFC0
01FFC0
01FFC0
01FFC0
01FFC0
01FFC0
01FFC0
01FFC0
01FFC0
01FFC0
01FFC0
01FFC0
01FFC0
01FFC0
01FFC0
01FFC0
01FFC0
01FFC0
01FFC0
01FFC0
01FFC0
01FFC0
01FFC0
01FFC0
01FFC0
01FFC0
01FFC0
01FFC0
01FFC0
01FFC0
01FFC0
01FFC0
01FFC0
01FFC0
01FFC0
01FFC0
ENDCHAR
STARTCHAR 0129
ENCODING 297
SWIDTH 225 0
DWIDTH 20 0
BBX 22 55 -2 0
BITMAP
3FC000
FFFC1C
FFFFFC
FFFFFC
FFFFFC
FFFFFC
FFFFFC
801FF8
0001C0
000000
000000
000000
000000
000000
000000
000000
000000
01FFC0
01FFC0
01FFC0
01FFC0
01FFC0
01FFC0
01FFC0
01FFC0
01FFC0
01FFC0
01FFC0
01FFC0
01FFC0
01FFC0
01FFC0
01FFC0
01FFC0
01FFC0
01FFC0
01FFC0
01FFC0
01FFC0
01FFC0
01FFC0
01FFC0
01FFC0
01FFC0
01FFC0
01FFC0
01FFC0
01FFC0
01FFC0
01FFC0
01FFC0
01FFC0
01FFC0
01FFC0
01FFC0
ENDCHAR
STARTCHAR 012A
ENCODING 298
SWIDTH 225 0
DWIDTH 20 0
BBX 25 54 -2 0
BITMAP
FFFFFF80
FFFFFF80
FFFFFF80
FFFFFF80
FFFFFF80
FFFFFF80
FFFFFF80
FFFFFF80
FFFFFF80
00000000
00000000
00000000
00000000
00000000
00000000
00000000
01FFC000
01FFC000
01FFC000
01FFC000
01FFC000
01FFC000
01FFC000
01FFC000
01FFC000
01FFC000
01FFC000
01FFC000
01FFC000
01FFC000
01FFC000
01FFC000
01FFC000
01FFC000
01FFC000
01FFC000
01FFC000
01FFC000
01FFC000
01FFC000
01FFC000
01FFC000
01FFC000
01FFC000
01FFC000
01FFC000
01FFC000
01FFC000
01FFC000
01FFC000
01FFC000
01FFC000
01FFC000
01FFC000
ENDCHAR
STARTCHAR 012B
ENCODING 299
SWIDTH 225 0
DWIDTH 20 0
BBX 25 54 -2 0
BITMAP
FFFFFF80
FFFFFF80
FFFFFF80
FFFFFF80
FFFFFF80
FFFFFF80
FFFFFF80
FFFFFF80
FFFFFF80
00000000
00000000
00000000
00000000
00000000
00000000
00000000
01FFC000
01FFC000
01FFC000
01FFC000
01FFC000
01FFC000
01FFC000
01FFC000
01FFC000
01FFC000
01FFC000
01FFC000
01FFC000
01FFC000
01FFC000
01FFC000
01FFC000
01FFC000
01FFC000
01FFC000
01FFC000
01FFC000
01FFC000
01FFC000
01FFC000
01FFC000
01FFC000
01FFC000
01FFC000
01FFC000
01FFC000
01FFC000
01FFC000
01FFC000
01FFC000
01FFC000
01FFC000
01FFC000
ENDCHAR
STARTCHAR 012E
ENCODING 302
SWIDTH 225 0
DWIDTH 20 0
BBX 24 88 -2 -17
BITMAP
001000
001800
001800
003800
003C00
003C00
007E00
007E00
01FF80
FFFFFF
7FFFFE
3FFFFC
1FFFF8
07FFE0
03FFC0
03FFC0
03FFC0
03FFC0
07FFC0
07E7E0
07C3E0
0700E0
0E0070
080010
000000
000000
000000
000000
000000
000000
000000
000000
000000
03FFC0
03FFC0
03FFC0
03FFC0
03FFC0
03FFC0
03FFC0
03FFC0
03FFC0
03FFC0
03FFC0
03FFC0
03FFC0
03FFC0
03FFC0
03FFC0
03FFC0
03FFC0
03FFC0
03FFC0
03FFC0
03FFC0
03FFC0
03FFC0
03FFC0
03FFC0
03FFC0
03FFC0
03FFC0
03FFC0
03FFC0
03FFC0
03FFC0
03FFC0
03FFC0
03FFC0
03FFC0
03FFC0
01FE00
03F800
07E000
0FC000
1F8000
1F8000
3F0000
3F0000
3F0000
3F0040
3F80E0
1FC3F0
1FFFF8
0FFFF8
0FFFF0
07FFE0
01FF80
ENDCHAR
STARTCHAR 012F
ENCODING 303
SWIDTH 225 0
DWIDTH 20 0
BBX 24 88 -2 -17
BITMAP
001000
001800
001800
003800
003C00
003C00
007E00
007E00
01FF80
FFFFFF
7FFFFE
3FFFFC
1FFFF8
07FFE0
03FFC0
03FFC0
03FFC0
03FFC0
07FFC0
07E7E0
07C3E0
0700E0
0E0070
080010
000000
000000
000000
000000
000000
000000
000000
000000
000000
03FFC0
03FFC0
03FFC0
03FFC0
03FFC0
03FFC0
03FFC0
03FFC0
03FFC0
03FFC0
03FFC0
03FFC0
03FFC0
03FFC0
03FFC0
03FFC0
03FFC0
03FFC0
03FFC0
03FFC0
03FFC0
03FFC0
03FFC0
03FFC0
03FFC0
03FFC0
03FFC0
03FFC0
03FFC0
03FFC0
03FFC0
03FFC0
03FFC0
03FFC0
03FFC0
03FFC0
03FFC0
03FFC0
01FE00
03F800
07E000
0FC000
1F8000
1F8000
3F0000
3F0000
3F0000
3F0040
3F80E0
1FC3F0
1FFFF8
0FFFF8
0FFFF0
07FFE0
01FF80
ENDCHAR
STARTCHAR 0130
ENCODING 304
SWIDTH 225 0
DWIDTH 20 0
BBX 14 58 4 0
BITMAP
1FC0
3FF0
7FF8
7FF8
FFFC
FFFC
FFFC
FFFC
FFFC
FFFC
7FF8
3FF0
1FE0
0780
0000
0000
0000
0000
0000
0000
7FF0
7FF0
7FF0
7FF0
7FF0
7FF0
7FF0
7FF0
7FF0
7FF0
7FF0
7FF0
7FF0
7FF0
7FF0
7FF0
7FF0
7FF0
7FF0
7FF0
7FF0
7FF0
7FF0
7FF0
7FF0
7FF0
7FF0
7FF0
7FF0
7FF0
7FF0
7FF0
7FF0
7FF0
7FF0
7FF0
7FF0
7FF0
ENDCHAR
STARTCHAR 0139
ENCODING 313
SWIDTH 450 0
DWIDTH 40 0
BBX 33 79 5 0
BITMAP
01FE000000
03FC000000
03FC000000
07F8000000
07F0000000
0FF0000000
0FE0000000
1FC0000000
1F80000000
3F80000000
3F00000000
7E00000000
0000000000
0000000000
0000000000
0000000000
0000000000
FFE0000000
FFE0000000
FFE0000000
FFE0000000
FFE0000000
FFE0000000
FFE0000000
FFE0000000
FFE0000000
FFE0000000
FFE0000000
FFE0000000
FFE0000000
FFE0000000
FFE0000000
FFE0000000
FFE0000000
FFE0000000
FFE0000000
FFE0000000
FFE0000000
FFE0000000
FFE0000000
FFE0000000
FFE0000000
FFE0000000
FFE0000000
FFE0000000
FFE0000000
FFE0000000
FFE0000000
FFE0000000
FFE0000000
FFE0000000
FFE0000000
FFE0000000
FFE0000000
FFE0000000
FFE0000000
FFE0000000
FFE0000000
FFE0000000
FFE0000000
FFE0000000
FFE0000000
FFE0000000
FFE0000000
FFE0000000
FFE0000000
FFE0000000
FFE0000000
FFE0000000
FFFFFFFF80
FFFFFFFF80
FFFFFFFF80
FFFFFFFF80
FFFFFFFF80
FFFFFFFF80
FFFFFFFF80
FFFFFFFF80
FFFFFFFF80
FFFFFFFF80
ENDCHAR
STARTCHAR 013A
ENCODING 314
SWIDTH 450 0
DWIDTH 40 0
BBX 33 79 5 0
BITMAP
01FE000000
03FC000000
03FC000000
07F8000000
07F0000000
0FF0000000
0FE0000000
1FC0000000
1F80000000
3F80000000
3F00000000
7E00000000
0000000000
0000000000
0000000000
0000000000
0000000000
FFE0000000
FFE0000000
FFE0000000
FFE0000000
FFE0000000
FFE0000000
FFE0000000
FFE0000000
FFE0000000
FFE0000000
FFE0000000
FFE0000000
FFE0000000
FFE0000000
FFE0000000
FFE0000000
FFE0000000
FFE0000000
FFE0000000
FFE0000000
FFE0000000
FFE0000000
FFE0000000
FFE0000000
FFE0000000
FFE0000000
FFE0000000
FFE0000000
FFE0000000
FFE0000000
FFE0000000
FFE0000000
FFE0000000
FFE0000000
FFE0000000
FFE0000000
FFE0000000
FFE0000000
FFE0000000
FFE0000000
FFE0000000
FFE0000000
FFE0000000
FFE0000000
FFE0000000
FFE0000000
FFE0000000
FFE0000000
FFE0000000
FFE0000000
FFE0000000
FFE0000000
FFFFFFFF80
FFFFFFFF80
FFFFFFFF80
FFFFFFFF80
FFFFFFFF80
FFFFFFFF80
FFFFFFFF80
FFFFFFFF80
FFFFFFFF80
FFFFFFFF80
ENDCHAR
STARTCHAR 013D
ENCODING 317
SWIDTH 450 0
DWIDTH 40 0
BBX 41 80 -3 0
BITMAP
FF803FE00000
7FC03FC00000
7FC07FC00000
3FE0FF800000
1FF1FF000000
1FFBFE000000
0FFBFE000000
07FFFC000000
03FFF8000000
03FFF8000000
01FFF0000000
000000000000
000000000000
000000000000
000000000000
000000000000
000000000000
000000000000
00FFE0000000
00FFE0000000
00FFE0000000
00FFE0000000
00FFE0000000
00FFE0000000
00FFE0000000
00FFE0000000
00FFE0000000
00FFE0000000
00FFE0000000
00FFE0000000
00FFE0000000
00FFE0000000
00FFE0000000
00FFE0000000
00FFE0000000
00FFE0000000
00FFE0000000
00FFE0000000
00FFE0000000
00FFE0000000
00FFE0000000
00FFE0000000
00FFE0000000
00FFE0000000
00FFE0000000
00FFE0000000
00FFE0000000
00FFE0000000
00FFE0000000
00FFE0000000
00FFE0000000
00FFE0000000
00FFE0000000
00FFE0000000
00FFE0000000
00FFE0000000
00FFE0000000
00FFE0000000
00FFE0000000
00FFE0000000
00FFE0000000
00FFE0000000
00FFE0000000
00FFE0000000
00FFE0000000
00FFE0000000
00FFE0000000
00FFE0000000
00FFE0000000
00FFE0000000
00FFFFFFFF80
00FFFFFFFF80
00FFFFFFFF80
00FFFFFFFF80
00FFFFFFFF80
00FFFFFFFF80
00FFFFFFFF80
00FFFFFFFF80
00FFFFFFFF80
00FFFFFFFF80
ENDCHAR
STARTCHAR 013E
ENCODING 318
SWIDTH 450 0
DWIDTH 40 0
BBX 41 80 -3 0
BITMAP
FF803FE00000
7FC03FC00000
7FC07FC00000
3FE0FF800000
1FF1FF000000
1FFBFE000000
0FFBFE000000
07FFFC000000
03FFF8000000
03FFF8000000
01FFF0000000
000000000000
000000000000
000000000000
000000000000
000000000000
000000000000
000000000000
00FFE0000000
00FFE0000000
00FFE0000000
00FFE0000000
00FFE0000000
00FFE0000000
00FFE0000000
00FFE0000000
00FFE0000000
00FFE0000000
00FFE0000000
00FFE0000000
00FFE0000000
00FFE0000000
00FFE0000000
00FFE0000000
00FFE0000000
00FFE0000000
00FFE0000000
00FFE0000000
00FFE0000000
00FFE0000000
00FFE0000000
00FFE0000000
00FFE0000000
00FFE0000000
00FFE0000000
00FFE0000000
00FFE0000000
00FFE0000000
00FFE0000000
00FFE0000000
00FFE0000000
00FFE0000000
00FFE0000000
00FFE0000000
00FFE0000000
00FFE0000000
00FFE0000000
00FFE0000000
00FFE0000000
00FFE0000000
00FFE0000000
00FFE0000000
00FFE0000000
00FFE0000000
00FFE0000000
00FFE0000000
00FFE0000000
00FFE0000000
00FFE0000000
00FFE0000000
00FFFFFFFF80
00FFFFFFFF80
00FFFFFFFF80
00FFFFFFFF80
00FFFFFFFF80
00FFFFFFFF80
00FFFFFFFF80
00FFFFFFFF80
00FFFFFFFF80
00FFFFFFFF80
ENDCHAR
STARTCHAR 0141
ENCODING 321
SWIDTH 506 0
DWIDTH 45 0
BBX 42 62 1 0
BITMAP
007FF0000000
007FF0000000
007FF0000000
007FF0000000
007FF0000000
007FF0000000
007FF0000000
007FF0000000
007FF0000000
007FF0000000
007FF0000000
007FF0000000
007FF0000000
007FF0000000
007FF0000000
007FF0000000
007FF0000000
007FF0000000
007FF0000000
007FF00C0000
007FF03C0000
007FF07E0000
007FF1FE0000
007FF7FF0000
007FFFFF0000
007FFFFC0000
007FFFF80000
007FFFE00000
007FFF800000
007FFE000000
00FFF8000000
03FFF0000000
0FFFF0000000
3FFFF0000000
FFFFF0000000
FFFFF0000000
7FFFF0000000
7F7FF0000000
3C7FF0000000
307FF0000000
007FF0000000
007FF0000000
007FF0000000
007FF0000000
007FF0000000
007FF0000000
007FF0000000
007FF0000000
007FF0000000
007FF0000000
007FF0000000
007FF0000000
007FFFFFFFC0
007FFFFFFFC0
007FFFFFFFC0
007FFFFFFFC0
007FFFFFFFC0
007FFFFFFFC0
007FFFFFFFC0
007FFFFFFFC0
007FFFFFFFC0
007FFFFFFFC0
ENDCHAR
STARTCHAR 0142
ENCODING 322
SWIDTH 506 0
DWIDTH 45 0
BBX 42 62 1 0
BITMAP
007FF0000000
007FF0000000
007FF0000000
007FF0000000
007FF0000000
007FF0000000
007FF0000000
007FF0000000
007FF0000000
007FF0000000
007FF0000000
007FF0000000
007FF0000000
007FF0000000
007FF0000000
007FF0000000
007FF0000000
007FF0000000
007FF0000000
007FF00C0000
007FF03C0000
007FF07E0000
007FF1FE0000
007FF7FF0000
007FFFFF0000
007FFFFC0000
007FFFF80000
007FFFE00000
007FFF800000
007FFE000000
00FFF8000000
03FFF0000000
0FFFF0000000
3FFFF0000000
FFFFF0000000
FFFFF0000000
7FFFF0000000
7F7FF0000000
3C7FF0000000
307FF0000000
007FF0000000
007FF0000000
007FF0000000
007FF0000000
007FF0000000
007FF0000000
007FF0000000
007FF0000000
007FF0000000
007FF0000000
007FF0000000
007FF0000000
007FFFFFFFC0
007FFFFFFFC0
007FFFFFFFC0
007FFFFFFFC0
007FFFFFFFC0
007FFFFFFFC0
007FFFFFFFC0
007FFFFFFFC0
007FFFFFFFC0
007FFFFFFFC0
ENDCHAR
STARTCHAR 0143
ENCODING 323
SWIDTH 551 0
DWIDTH 49 0
BBX 44 79 1 0
BITMAP
0000007FC000
0000007F8000
000000FF0000
000000FE0000
000001FE0000
000001FC0000
000003F80000
000003F80000
000007F00000
000007E00000
00000FC00000
00000FC00000
000000000000
000000000000
000000000000
010000000000
038000000000
07C000007FF0
0FF000007FF0
0FF800007FF0
1FFC00007FF0
3FFE00007FF0
7FFF80007FF0
FFFFC0007FF0
7FFFE0007FF0
1FFFF8007FF0
0FFFFC007FF0
07FFFE007FF0
07FFFF007FF0
07FFFFC07FF0
07FFFFE07FF0
07FFFFF07FF0
07FFFFFC7FF0
07FFFFFE7FF0
07FFFFFF7FF0
07FFFFFFFFF0
07FF7FFFFFF0
07FF3FFFFFF0
07FF0FFFFFF0
07FF07FFFFF0
07FF03FFFFF0
07FF00FFFFF0
07FF007FFFF0
07FF003FFFF0
07FF001FFFF0
07FF0007FFF0
07FF0003FFF0
07FF0001FFF0
07FF0000FFF0
07FF00007FF0
07FF00007FF0
07FF00007FF0
07FF00007FF0
07FF00007FF0
07FF00007FF0
07FF00007FF0
07FF00007FF0
07FF00007FF0
07FF00007FF0
07FF00007FF0
07FF00007FF0
07FF00007FF0
07FF00007FF0
07FF00007FF0
07FF00007FF0
07FF00007FF0
07FF00007FF0
07FF00007FF0
07FF00007FF0
07FF00007FF0
07FF00007FF0
07FF00007FF0
07FF00007FF0
07FF00007FF0
07FF00007FF0
07FF00007FF0
07FF00007FF0
07FF00007FF0
07FF00007FF0
ENDCHAR
STARTCHAR 0144
ENCODING 324
SWIDTH 551 0
DWIDTH 49 0
BBX 44 79 1 0
BITMAP
0000007FC000
0000007F8000
000000FF0000
000000FE0000
000001FE0000
000001FC0000
000003F80000
000003F80000
000007F00000
000007E00000
00000FC00000
00000FC00000
000000000000
000000000000
000000000000
010000000000
038000000000
07C000007FF0
0FF000007FF0
0FF800007FF0
1FFC00007FF0
3FFE00007FF0
7FFF80007FF0
FFFFC0007FF0
7FFFE0007FF0
1FFFF8007FF0
0FFFFC007FF0
07FFFE007FF0
07FFFF007FF0
07FFFFC07FF0
07FFFFE07FF0
07FFFFF07FF0
07FFFFFC7FF0
07FFFFFE7FF0
07FFFFFF7FF0
07FFFFFFFFF0
07FF7FFFFFF0
07FF3FFFFFF0
07FF0FFFFFF0
07FF07FFFFF0
07FF03FFFFF0
07FF00FFFFF0
07FF007FFFF0
07FF003FFFF0
07FF001FFFF0
07FF0007FFF0
07FF0003FFF0
07FF0001FFF0
07FF0000FFF0
07FF00007FF0
07FF00007FF0
07FF00007FF0
07FF00007FF0
07FF00007FF0
07FF00007FF0
07FF00007FF0
07FF00007FF0
07FF00007FF0
07FF00007FF0
07FF00007FF0
07FF00007FF0
07FF00007FF0
07FF00007FF0
07FF00007FF0
07FF00007FF0
07FF00007FF0
07FF00007FF0
07FF00007FF0
07FF00007FF0
07FF00007FF0
07FF00007FF0
07FF00007FF0
07FF00007FF0
07FF00007FF0
07FF00007FF0
07FF00007FF0
07FF00007FF0
07FF00007FF0
07FF00007FF0
ENDCHAR
STARTCHAR 0147
ENCODING 327
SWIDTH 551 0
DWIDTH 49 0
BBX 44 80 1 0
BITMAP
003FE007FC00
001FF00FF800
000FF81FF000
000FF83FE000
0007FC3FE000
0003FE7FC000
0001FFFF8000
0001FFFF0000
0000FFFF0000
00007FFE0000
00003FFC0000
000000000000
000000000000
000000000000
000000000000
000000000000
010000000000
038000000000
07C000007FF0
0FF000007FF0
0FF800007FF0
1FFC00007FF0
3FFE00007FF0
7FFF80007FF0
FFFFC0007FF0
7FFFE0007FF0
1FFFF8007FF0
0FFFFC007FF0
07FFFE007FF0
07FFFF007FF0
07FFFFC07FF0
07FFFFE07FF0
07FFFFF07FF0
07FFFFFC7FF0
07FFFFFE7FF0
07FFFFFF7FF0
07FFFFFFFFF0
07FF7FFFFFF0
07FF3FFFFFF0
07FF0FFFFFF0
07FF07FFFFF0
07FF03FFFFF0
07FF00FFFFF0
07FF007FFFF0
07FF003FFFF0
07FF001FFFF0
07FF0007FFF0
07FF0003FFF0
07FF0001FFF0
07FF0000FFF0
07FF00007FF0
07FF00007FF0
07FF00007FF0
07FF00007FF0
07FF00007FF0
07FF00007FF0
07FF00007FF0
07FF00007FF0
07FF00007FF0
07FF00007FF0
07FF00007FF0
07FF00007FF0
07FF00007FF0
07FF00007FF0
07FF00007FF0
07FF00007FF0
07FF00007FF0
07FF00007FF0
07FF00007FF0
07FF00007FF0
07FF00007FF0
07FF00007FF0
07FF00007FF0
07FF00007FF0
07FF00007FF0
07FF00007FF0
07FF00007FF0
07FF00007FF0
07FF00007FF0
07FF00007FF0
ENDCHAR
ENDFONT
